SplineFontDB: 3.2
FontName: RoutedGothicNarrow-Half-Italic
FullName: Routed Gothic Narrow Half Italic
FamilyName: Routed Gothic Narrow
Weight: Regular

StartChar: exclam
Encoding: 33 33 0
Width: 230
Flags: HW
LayerCount: 2
Back
SplineSet
74.49609375 72 m 0
 68.642578125 59.068359375 55.7939453125 48 45.1474609375 48 c 0
 38.748046875 48 33.939453125 56 35.5302734375 64 c 0
 36.06640625 66.6923828125 36.9638671875 69.3837890625 38.1484375 72 c 1024
38.1484375 72 m 0
 44.001953125 84.931640625 56.849609375 96 67.4951171875 96 c 0
 73.8955078125 96 78.705078125 88 77.11328125 80 c 0
 76.578125 77.3076171875 75.6806640625 74.6162109375 74.49609375 72 c 1024
178.852539062 688 m 1
 99.287109375 288 l 1025
EndSplineSet
Fore
SplineSet
-19.2058186577 93.2311135648 m 0
 -18.2593451038 96.1810961599 -18.4684520327 95.4840108066 -18.1192490033 96.3133680014 c 0
 -8.12329594877 120.053756506 8.27046043199 137.54401551 24.9668250317 149.469990224 c 0
 38.278456073 159.151176436 56.0429971879 168 77 168 c 0
 106.792206144 168 124.45082317 147.763985121 132.466252584 131.733126292 c 0
 137.255692072 122.154247317 141.368395434 108.538083159 141.368395434 93.013871256 c 0
 141.368395434 87.4389354058 140.83801437 81.6179345454 139.618126678 75.6494773288 c 0
 137.677429338 64.1982498078 135.006426773 58.7853433117 131.175457808 50.6742572947 c 0
 130.292742088 47.9229960493 130.449278684 48.4704524896 130.119249003 47.6866319986 c 0
 120.411647488 24.6310783998 105.238087424 6.81923295898 88.0331749683 -5.46999022393 c 0
 74.721543927 -15.1511764358 56.9570028121 -24 36 -24 c 0
 12.0272183358 -24 -4.4207698069 -9.70776054893 -12.9369423677 1.24417746585 c 0
 -23.1648486864 14.519245515 -28.3378335882 30.4410011338 -28.3378335882 48.9747578517 c 0
 -28.3378335882 55.0414942778 -27.7835595346 61.3881009268 -26.6708705668 68.0133612341 c 0
 -25.1362191263 77.8186083259 -22.8346332832 85.2471356235 -19.2058186577 93.2311135648 c 0
26.5491504646 78.6916519019 m 0
 24.6827663365 73.2333576071 25.5414927971 75.4173541342 24.466252584 73.266873708 c 0
 22.7744601593 69.8832888586 21.5231827371 65.9566516746 20.6943658899 60.1549337442 c 0
 17.5249779581 42.7233001195 21.3438966331 35.2388746332 24.9750549048 30.6999267936 c 0
 28.6187903823 25.8416128235 31.8115615917 24 36 24 c 0
 43.0429971879 24 51.278456073 27.1511764358 59.9668250317 33.4699902239 c 0
 70.6105513632 41.0726518893 78.6576328221 50.0134615458 85.4443248989 65.28926661 c 0
 87.3250061125 70.7893731446 86.4534822527 68.5725959654 87.533747416 70.733126292 c 0
 90.0709319643 75.8074953887 91.8645963633 80.7578020278 92.2412121521 83.3941125497 c 0
 92.30285268 83.8255962448 92.4443871178 84.6342755174 92.5715105556 85.2063309876 c 0
 95.2124249998 97.0904459866 93.0073923955 103.319583749 89.533747416 110.266873708 c 0
 85.5491768304 118.236014879 83.2077938558 120 77 120 c 0
 69.9570028121 120 61.721543927 116.848823564 53.0331749683 110.530009776 c 0
 41.9261412744 102.59641428 33.0528189542 93.2251300008 26.5491504646 78.6916519019 c 0
116.443181293 692.591284756 m 2
 123.005133248 726.713434918 151.33432168 760 188 760 c 0
 224.202089577 760 241.894858114 728.124746444 241.894858114 697.683611247 c 0
 241.894858114 692.844468166 241.447751562 688.04156609 240.556818707 683.408715244 c 2
 161.556818707 283.408715244 l 2
 154.994866752 249.286565082 126.66567832 216 90 216 c 0
 53.7979104228 216 36.1051418858 247.875253556 36.1051418858 278.316388753 c 0
 36.1051418858 283.155531834 36.5522484384 287.95843391 37.4431812934 292.591284756 c 2
 116.443181293 692.591284756 l 2
163.556818707 683.408715244 m 2
 84.5568187066 283.408715244 l 2
 81.0522577797 265.184998423 89.9570356453 264 90 264 c 0
 95.3343216798 264 111.005133248 274.713434918 114.443181293 292.591284756 c 2
 193.443181293 692.591284756 l 2
 196.94774222 710.815001577 188.042964355 712 188 712 c 0
 182.66567832 712 166.994866752 701.286565082 163.556818707 683.408715244 c 2
EndSplineSet
EndChar

StartChar: quotedbl
Encoding: 34 34 1
Width: 307
Flags: HW
LayerCount: 2
Back
SplineSet
281.251953125 688 m 1
 239.877929688 480 l 1025
153.251953125 688 m 1
 111.877929688 480 l 1025
EndSplineSet
Fore
SplineSet
91.452820397 692.641408095 m 2
 97.9969089873 726.670668765 126.337708708 760 163 760 c 0
 199.192605081 760 216.890240495 728.160250034 216.890240495 697.681319773 c 0
 216.890240495 692.827884616 216.441480363 688.008955856 215.547179603 683.358591905 c 2
 173.547179603 475.358591905 l 2
 167.003091013 441.329331235 138.662291292 408 102 408 c 0
 65.8073949186 408 48.1097595053 439.839749966 48.1097595053 470.318680227 c 0
 48.1097595053 475.172115384 48.5585196372 479.991044144 49.452820397 484.641408095 c 2
 91.452820397 692.641408095 l 2
138.547179603 683.358591905 m 2
 96.547179603 475.358591905 l 2
 93.0575707426 457.212625831 101.955880249 456 102 456 c 0
 107.337708708 456 122.996908987 466.670668765 126.452820397 484.641408095 c 2
 168.452820397 692.641408095 l 2
 171.942429257 710.787374169 163.044119751 712 163 712 c 0
 157.662291292 712 142.003091013 701.329331235 138.547179603 683.358591905 c 2
219.452820397 692.641408095 m 2
 225.996908987 726.670668765 254.337708708 760 291 760 c 0
 327.192605081 760 344.890240495 728.160250034 344.890240495 697.681319773 c 0
 344.890240495 692.827884616 344.441480363 688.008955856 343.547179603 683.358591905 c 2
 301.547179603 475.358591905 l 2
 295.003091013 441.329331235 266.662291292 408 230 408 c 0
 193.807394919 408 176.109759505 439.839749966 176.109759505 470.318680227 c 0
 176.109759505 475.172115384 176.558519637 479.991044144 177.452820397 484.641408095 c 2
 219.452820397 692.641408095 l 2
266.547179603 683.358591905 m 2
 224.547179603 475.358591905 l 2
 221.057570743 457.212625831 229.955880249 456 230 456 c 0
 235.337708708 456 250.996908987 466.670668765 254.452820397 484.641408095 c 2
 296.452820397 692.641408095 l 2
 299.942429257 710.787374169 291.044119751 712 291 712 c 0
 285.662291292 712 270.003091013 701.329331235 266.547179603 683.358591905 c 2
EndSplineSet
EndChar

StartChar: numbersign
Encoding: 35 35 2
Width: 537
Flags: HW
LayerCount: 2
Back
SplineSet
205.147460938 48 m 1
 473.251953125 688 l 1025
64.34765625 48 m 1
 332.452148438 688 l 1025
105.512695312 448 m 1
 463.913085938 448 l 1025
73.6865234375 288 m 1
 432.086914062 288 l 1025
EndSplineSet
Fore
SplineSet
267.92333248 376 m 1
 261.17333248 360 l 1
 270.07666752 360 l 1
 276.82666752 376 l 1
 267.92333248 376 l 1
229.887260137 409.32881213 m 2
 233.243391675 417.284086887 242.115048203 424 252 424 c 2
 313 424 l 2
 315.485976387 424 318.134078703 423.583964567 320.56515487 422.776488575 c 0
 330.602660328 419.442555732 336.952006736 409.820831631 336.952006736 399.784333709 c 0
 336.952006736 396.729852216 336.363922389 393.636953857 335.112739863 390.67118787 c 2
 308.112739863 326.67118787 l 2
 304.756608325 318.715913113 295.884951797 312 286 312 c 2
 225 312 l 2
 222.514023613 312 219.865921297 312.416035433 217.43484513 313.223511425 c 0
 207.397339672 316.557444268 201.047993264 326.179168369 201.047993264 336.215666291 c 0
 201.047993264 339.270147784 201.636077611 342.363046143 202.887260137 345.32881213 c 2
 229.887260137 409.32881213 l 2
143.716579997 53.8208550009 m 0
 144.480935456 56.8782768377 145.972511777 63.8770804855 149.331127604 71.3883618867 c 2
 209.922596087 216 l 1
 200.958050079 216 l 1
 121.012387325 25.4318504127 l 2
 109.536713356 -0.0696472968675 86.7242339431 -24 55 -24 c 0
 18.7867395597 -24 1.09970387809 7.91706487245 1.09970387809 38.3136539857 c 0
 1.09970387809 43.1359891073 1.54486796583 47.9200554531 2.43184527246 52.5323374476 c 0
 2.51101501169 52.9440200916 2.64124479711 53.5195142033 2.71657999651 53.8208550009 c 0
 3.48093545571 56.8782768377 4.97251177706 63.8770804855 8.3311276036 71.3883618867 c 2
 68.9225960868 216 l 1
 64 216 l 2
 27.7867395597 216 10.0997038781 247.917064872 10.0997038781 278.313653986 c 0
 10.0997038781 283.135989107 10.5448679658 287.920055453 11.4318452725 292.532337448 c 0
 18.0148053489 326.763729845 46.3303383817 360 83 360 c 2
 129.07666752 360 l 1
 135.82666752 376 l 1
 96 376 l 2
 59.7867395597 376 42.0997038781 407.917064872 42.0997038781 438.313653986 c 0
 42.0997038781 443.135989107 42.5448679658 447.920055453 43.4318452725 452.532337448 c 0
 50.0148053489 486.763729845 78.3303383817 520 115 520 c 2
 196.041949921 520 l 1
 275.987612675 710.568149587 l 2
 287.463286644 736.069647297 310.275766057 760 342 760 c 0
 378.21326044 760 395.900296122 728.082935128 395.900296122 697.686346014 c 0
 395.900296122 692.864010893 395.455132034 688.079944547 394.568154728 683.467662552 c 0
 394.488984988 683.055979908 394.358755203 682.480485797 394.283420003 682.179144999 c 0
 393.519064544 679.121723162 392.027488223 672.122919515 388.668872396 664.611638113 c 2
 328.077403913 520 l 1
 337.041949921 520 l 1
 416.987612675 710.568149587 l 2
 428.463286644 736.069647297 451.275766057 760 483 760 c 0
 519.21326044 760 536.900296122 728.082935128 536.900296122 697.686346014 c 0
 536.900296122 692.864010893 536.455132034 688.079944547 535.568154728 683.467662552 c 0
 535.488984988 683.055979908 535.358755203 682.480485797 535.283420003 682.179144999 c 0
 534.519064544 679.121723162 533.027488223 672.122919515 529.668872396 664.611638113 c 2
 469.077403913 520 l 1
 473 520 l 2
 509.21326044 520 526.900296122 488.082935128 526.900296122 457.686346014 c 0
 526.900296122 452.864010893 526.455132034 448.079944547 525.568154728 443.467662552 c 0
 518.985194651 409.236270155 490.669661618 376 454 376 c 2
 408.154874059 376 l 1
 401.654874059 360 l 1
 442 360 l 2
 478.545490472 360 494.927366291 327.797982026 494.927366291 298.041797345 c 0
 494.927366291 293.061062715 494.468383983 288.148854683 493.568154728 283.467662552 c 0
 487.111583519 249.893492268 460.167081763 216 423 216 c 2
 341.030057781 216 l 1
 262.032853233 25.4773302088 l 2
 250.518773817 -0.109512939631 227.730883632 -24 196 -24 c 0
 159.78673956 -24 142.099703878 7.91706487245 142.099703878 38.3136539857 c 0
 142.099703878 43.1359891073 142.544867966 47.9200554531 143.431845272 52.5323374476 c 0
 143.511015012 52.9440200916 143.641244797 53.5195142033 143.716579997 53.8208550009 c 0
190.467043574 42.9207539466 m 0
 187.406817998 25.4222170132 195.725208022 24 196 24 c 0
 200.289508308 24 210.860467205 29.2843325472 217.966915561 44.5221121763 c 2
 302.830189274 249.192360545 l 2
 306.198085496 257.314933785 315.09835017 264 325 264 c 2
 423 264 l 2
 427.832918237 264 442.888416481 274.106507732 446.431845272 292.532337448 c 0
 450.132995783 311.778320103 442 312 442 312 c 1
 366 312 l 2
 364.261146529 312 361.039944998 312.394406657 358.739304137 313.124635618 c 0
 348.552093468 316.358080871 342.045131804 326.062068456 342.045131804 336.213298474 c 0
 342.045131804 339.164755469 342.595196574 342.154020018 343.764802149 345.033049127 c 2
 369.764802149 409.033049127 l 2
 373.144617349 417.352594235 382.080490711 424 392 424 c 2
 454 424 l 2
 459.330338382 424 475.014805349 434.763729845 478.431845272 452.532337448 c 0
 481.953990504 470.847492654 473.041605557 472 473 472 c 2
 433 472 l 2
 430.650707607 472 427.898538443 472.411816766 425.490621958 473.205061057 c 0
 415.425554955 476.520814318 409.04746581 486.157750622 409.04746581 496.215277166 c 0
 409.04746581 499.250833458 409.628477395 502.324703388 410.864490554 505.274654796 c 2
 485.864490554 684.274654796 l 2
 486.010844374 684.623952578 486.30560138 685.276834219 486.533747416 685.733126292 c 0
 486.566124739 685.797880938 487.322494114 688.094989475 488.532956426 693.079246053 c 0
 491.593182002 710.577782987 483.274791978 712 483 712 c 0
 478.705996465 712 468.151643954 706.741636427 461.019311147 691.448354873 c 2
 375.131422969 486.715598169 l 2
 371.771305876 478.706016727 362.890527922 472 353 472 c 2
 292 472 l 2
 289.650707607 472 286.898538443 472.411816766 284.490621958 473.205061057 c 0
 274.425554955 476.520814318 268.04746581 486.157750622 268.04746581 496.215277166 c 0
 268.04746581 499.250833458 268.628477395 502.324703388 269.864490554 505.274654796 c 2
 344.864490554 684.274654796 l 2
 345.010844374 684.623952578 345.30560138 685.276834219 345.533747416 685.733126292 c 0
 345.566124739 685.797880938 346.322494114 688.094989475 347.532956426 693.079246053 c 0
 350.593182002 710.577782987 342.274791978 712 342 712 c 0
 337.705996465 712 327.151643954 706.741636427 320.019311147 691.448354873 c 2
 234.131422969 486.715598169 l 2
 230.771305876 478.706016727 221.890527922 472 212 472 c 2
 115 472 l 2
 109.669661618 472 93.9851946511 461.236270155 90.5681547275 443.467662552 c 0
 87.0460094955 425.152507346 95.9583944433 424 96 424 c 2
 172 424 l 2
 174.485976387 424 177.134078703 423.583964567 179.56515487 422.776488575 c 0
 189.602660328 419.442555732 195.952006736 409.820831631 195.952006736 399.784333709 c 0
 195.952006736 396.729852216 195.363922389 393.636953857 194.112739863 390.67118787 c 2
 167.112739863 326.67118787 l 2
 163.756608325 318.715913113 154.884951797 312 145 312 c 2
 83 312 l 2
 77.6696616183 312 61.9851946511 301.236270155 58.5681547275 283.467662552 c 0
 55.0460094955 265.152507346 63.9583944433 264 64 264 c 2
 105 264 l 2
 107.349292393 264 110.101461557 263.588183234 112.509378042 262.794938943 c 0
 122.574445045 259.479185682 128.95253419 249.842249378 128.95253419 239.784722834 c 0
 128.95253419 236.749166542 128.371522605 233.675296612 127.135509446 230.725345204 c 2
 52.1355094457 51.7253452043 l 2
 51.9891556261 51.3760474216 51.6943986205 50.723165781 51.466252584 50.266873708 c 0
 51.4338752609 50.2021190618 50.6775058857 47.9050105246 49.4670435739 42.9207539466 c 0
 46.4068179975 25.4222170132 54.7252080223 24 55 24 c 0
 59.2940035349 24 69.8483560455 29.258363573 76.9806888527 44.5516451272 c 2
 162.868577031 249.284401831 l 2
 166.228694124 257.293983273 175.109472078 264 185 264 c 2
 246 264 l 2
 248.349292393 264 251.101461557 263.588183234 253.509378042 262.794938943 c 0
 263.574445045 259.479185682 269.95253419 249.842249378 269.95253419 239.784722834 c 0
 269.95253419 236.749166542 269.371522605 233.675296612 268.135509446 230.725345204 c 2
 193.135509446 51.7253452043 l 2
 192.989155626 51.3760474216 192.69439862 50.723165781 192.466252584 50.266873708 c 0
 192.433875261 50.2021190618 191.677505886 47.9050105246 190.467043574 42.9207539466 c 0
EndSplineSet
EndChar

StartChar: dollar
Encoding: 36 36 3
Width: 403
Flags: HW
LayerCount: 2
Back
SplineSet
340.6171875 536 m 0
 340.6171875 536 316.556640625 592 246.15625 592 c 0
 186.15625 592 131.20703125 545 120.665039062 492 c 0
 112.39453125 450.420898438 119.772460938 390.134765625 203.986328125 380 c 0
 296.327148438 368.887695312 303.290039062 316.170898438 292.913085938 264 c 0
 280.182617188 200 230.243164062 144 157.04296875 144 c 0
 89.84375 144 59.365234375 216 59.365234375 216 c 1024
268.452148438 688 m 1
 141.147460938 48 l 1025
EndSplineSet
Fore
SplineSet
222.34789813 181.420169783 m 0
 217.93760404 178.773993329 212.397523952 177.534531713 207.11563061 178.173955149 c 0
 193.420035126 179.831937271 183.746310457 193.221502079 186.47369834 206.744800335 c 2
 210.47369834 325.744800335 l 2
 210.713725166 326.934933346 211.20216534 328.645040602 211.757827506 330.015861731 c 0
 215.527464492 339.31557357 224.73146702 344.937946769 234.218342536 344.937946769 c 0
 237.773938023 344.937946769 241.369268196 344.148181632 244.733126292 342.466252584 c 0
 257.936926863 335.864352299 265.132857748 326.822856336 269.436002166 321.085330445 c 0
 277.490503897 309.578899401 280.874478674 296.863443475 280.874478674 282.32622468 c 0
 280.874478674 275.242586078 280.070994633 267.72639183 278.612877842 259.706749483 c 0
 273.59115956 232.087298931 259.818638393 209.179351502 238.772675074 192.079506306 c 0
 232.418191872 187.313643904 227.624246811 184.585978991 222.34789813 181.420169783 c 0
189.942603741 557.791025228 m 0
 193.774146298 559.559429485 198.547085219 560.370384424 202.987390133 559.813347102 c 0
 216.675686747 558.096146992 226.291411028 544.664868525 223.505560345 531.153492712 c 2
 203.505560345 434.153492712 l 2
 203.434681252 433.809729111 202.418929501 430.235901689 201.615565142 428.570841664 c 0
 197.493455118 420.027320234 188.736698027 415.075807683 179.793833546 415.075807683 c 0
 175.73095118 415.075807683 171.629655763 416.097812826 167.907095387 418.269306378 c 0
 151.456817842 427.865301613 143.069695353 440.911192662 138.825242968 450.814914895 c 0
 134.950655366 460.5013839 133.43295537 468.972189907 133.43295537 477.568124139 c 0
 133.43295537 483.797165577 134.229925794 490.091914003 135.504533885 496.962575422 c 0
 137.167846867 505.573295362 142.307832205 517.41044294 149.8 527.4 c 0
 150.056503607 527.742004809 150.559557945 528.371423295 150.938159327 528.804110589 c 0
 160.168257948 539.352794727 173.356585673 550.135939966 189.942603741 557.791025228 c 0
402.591122064 531.587092702 m 0
 395.965598498 497.134370157 367.677731976 464 331 464 c 0
 314.266019121 464 300.236134202 472.169786466 290.646120615 483.64051978 c 1
 281.461736472 436.466183047 l 1
 303.510974397 426.583866715 320.303178906 412.904281386 333.1944878 395.408933602 c 0
 353.503362225 368.851174738 359.686275931 337.591543862 359.686275931 308.577601402 c 0
 359.686275931 290.774490565 357.358337523 273.816907348 354.537538941 259.30994321 c 0
 343.506983248 205.260220315 315.370892206 152.669659437 271.108719116 116.351978953 c 0
 252.847353134 101.742886168 231.588139508 89.4994514245 210.880762386 82.2236896679 c 1
 203.576089468 43.508923201 l 2
 196.978424585 9.20106581162 168.67244976 -24 132 -24 c 0
 95.7789096752 -24 78.0958926802 7.94636812062 78.0958926802 38.3117140117 c 0
 78.0958926802 43.1222844006 78.5396985548 47.8931745158 79.4239105323 52.491076799 c 2
 85.7441136459 85.988153301 l 1
 67.1766853041 95.073993618 54.0174188514 106.041455652 43.0294372515 117.029437252 c 0
 15.2877512111 144.771123292 3.34268254608 170.779784278 0.114083226598 179.707523556 c 0
 -2.66674471385 187.616586564 -4.07699631138 195.854142357 -4.07699631138 204.534688474 c 0
 -4.07699631138 209.664825837 -3.58443478028 214.949687358 -2.591122064 220.412907298 c 0
 4.03440150226 254.865629843 32.3222680236 288 69 288 c 0
 92.4163228417 288 109.782821742 272.672047524 117.94232788 254.721134021 c 0
 118.215109335 254.118513672 118.437340181 253.650579573 118.879884742 252.768329296 c 2
 133.386460679 323.746932987 l 1
 100.695786706 338.713446629 77.8548065014 363.741006061 65.7165594188 394.086623768 c 0
 57.4308712617 414.80084416 54.4256195575 435.61595531 54.4256195575 455.288980099 c 0
 54.4256195575 469.859773659 56.0741804151 483.804064332 58.4469171812 496.616842869 c 0
 65.4571894196 530.499825354 81.1532863309 560.421137703 101.425024819 585.197706966 c 0
 127.839882161 617.482532606 162.225899734 642.567318407 199.215525766 655.007476016 c 1
 206.431845272 692.532337448 l 2
 213.014805349 726.763729845 241.330338382 760 278 760 c 0
 314.180587166 760 331.884388746 728.205242549 331.884388746 697.678456388 c 0
 331.884388746 692.806883272 331.433527596 687.96760147 330.53494678 683.294981227 c 2
 323.703416594 650.379426691 l 1
 376.45053635 626.250580396 395.60532749 582.605724937 398.991079781 575.656326855 c 0
 403.125897578 566.610981975 404.51192856 558.028231625 404.51192856 549.915861091 c 0
 404.51192856 543.511868744 403.648196601 537.401002658 402.591122064 531.587092702 c 0
355.408877936 540.412907298 m 0
 356.988042531 549.098312569 355.691613982 554.951140576 355.533747416 555.266873708 c 0
 353.609547878 559.115272784 335.409598768 599.010060502 289.513846637 611.893078644 c 0
 279.046411925 614.831305932 269.809790364 626.911479558 272.500787901 639.877194964 c 2
 283.46505322 692.705018773 l 2
 286.935686666 710.752312696 278.045586044 712 278 712 c 0
 272.669661618 712 256.985194651 701.236270155 253.568154728 683.467662552 c 2
 243.568154728 631.467662552 l 2
 242.048791828 623.566975473 235.077780287 614.907106881 225.531193213 612.6460731 c 0
 193.655412921 605.096546189 162.822141853 584.437718967 138.574975181 554.802293034 c 0
 122.77618281 535.492657913 111.017814474 512.98616575 105.555588777 487.400268949 c 0
 103.722030779 477.28136623 102.567807432 466.534980279 102.567807432 455.688501022 c 0
 102.567807432 440.832890855 104.732983726 425.789518371 110.283440581 411.913376232 c 0
 119.60129194 388.618747835 137.196022309 371.115032155 167.839286434 362.004872551 c 0
 179.230598804 358.618266171 187.013258968 346.423123857 184.513923922 334.194234527 c 2
 156.513923922 197.194234527 l 2
 156.288921001 196.093327375 155.383847579 193.110110394 154.485172823 191.304797863 c 0
 150.305085271 182.907583642 141.636921514 178.078328627 132.797840503 178.078328627 c 0
 128.637030893 178.078328627 124.438348486 179.148421813 120.65210187 181.420169783 c 0
 88.7800161046 200.543421242 75.5777351164 231.823766727 74.0782534814 235.229332621 c 0
 72.0764470045 239.34619253 69.682365473 240 69 240 c 0
 63.6777319764 240 47.9655984977 229.134370157 44.591122064 211.587092702 c 0
 43.3240062162 204.617955539 44.0721008698 199.159760976 45.5646703098 195.179575803 c 0
 46.8788470993 192.138475943 57.9120308067 170.02909469 76.9705627485 150.970562748 c 0
 88.2610379613 139.680087536 101.859035018 129.477647318 119.987878779 123.96017313 c 0
 130.562526695 120.741802025 138.919583198 108.929439973 136.58387969 96.5502113793 c 2
 126.58387969 43.5502113793 l 2
 123.037113406 25.1070267021 131.960445025 24 132 24 c 0
 137.330338382 24 153.014805349 34.763729845 156.431845272 52.5323374476 c 2
 166.41612031 105.449788621 l 2
 167.867026862 113.139593344 174.693295067 121.91195752 184.179144999 124.283420003 c 0
 204.091493878 129.261507223 223.263278064 139.545618791 240.891280884 153.648021047 c 0
 274.629107794 181.330340563 298.493016752 224.739779685 307.462461059 268.69005679 c 0
 309.890668772 281.177982172 311.421783714 294.353597396 311.421783714 307.272481521 c 0
 311.421783714 329.372654933 306.941049827 350.721517195 294.8055122 366.591066398 c 0
 283.871315436 381.430333435 270.260169922 391.150833492 247.181880087 397.988845295 c 0
 236.100047693 401.27235119 228.047797298 413.287331314 230.442316309 425.586451692 c 2
 252.442316309 538.586451692 l 1
 252.442316309 538.586451692 253.104041362 541.402968297 253.757827506 543.015861731 c 0
 257.527464492 552.31557357 266.73146702 557.937946769 276.218342536 557.937946769 c 0
 279.773938023 557.937946769 283.369268196 557.148181632 286.733126292 555.466252584 c 0
 290.473916621 553.59585742 295.956079873 551.303204265 302.570347405 545.310578418 c 0
 315.277357145 535.287280171 323.030402121 525.039340528 327.389300935 514.851279412 c 0
 329.017560989 511.884449743 329.495519019 512 331 512 c 0
 336.322268024 512 352.034401502 522.865629843 355.408877936 540.412907298 c 0
EndSplineSet
EndChar

StartChar: percent
Encoding: 37 37 5
Width: 691
Flags: HW
LayerCount: 2
Back
SplineSet
561.817382812 168 m 0
 548.634765625 101.725585938 492.1015625 48 435.547851562 48 c 0
 378.994140625 48 343.834960938 101.725585938 357.017578125 168 c 0
 370.200195312 234.274414062 426.733398438 288 483.287109375 288 c 0
 539.840820312 288 575 234.274414062 561.817382812 168 c 0
334.182617188 568 m 0
 321 501.725585938 264.466796875 448 207.913085938 448 c 0
 151.359375 448 116.19921875 501.725585938 129.381835938 568 c 0
 142.564453125 634.274414062 199.098632812 688 255.65234375 688 c 0
 312.206054688 688 347.365234375 634.274414062 334.182617188 568 c 0
141.147460938 48 m 1
 550.052734375 688 l 1025
EndSplineSet
Fore
SplineSet
132 -24 m 0
 95.7867395597 -24 78.0997038781 7.91706487245 78.0997038781 38.3136539857 c 0
 78.0997038781 43.1359891073 78.5448679658 47.9200554531 79.4318452725 52.5323374476 c 0
 79.5110150117 52.9440200916 79.6412447971 53.5195142033 79.7165799965 53.8208550009 c 0
 82.1706037582 63.6369500475 85.8251784305 73.5676087431 91.162164589 82.9073345206 c 0
 91.3493516011 83.2349117916 91.6264678718 83.6884676557 91.776882835 83.9238358133 c 2
 301.721089481 412.442887777 l 1
 270.475418951 389.513234753 234.543244222 376 198 376 c 0
 189.029321889 376 180.258874409 376.847764597 171.781690451 378.512760807 c 0
 104.216576433 391.78316515 63.0664519048 453.673845593 63.0664519048 529.201960953 c 0
 63.0664519048 543.304047414 64.5010181373 557.881559013 67.4660637834 572.706787243 c 0
 88.219448533 676.473710991 174.127301504 760 265 760 c 0
 273.938208114 760 282.683134755 759.158406414 291.141910988 757.507470324 c 0
 358.901473456 744.282542271 400.883287908 682.239925915 400.883287908 606.316931884 c 0
 400.883287908 592.37180261 399.466973602 577.958399686 396.533936217 563.293212757 c 0
 396.287445397 562.060758658 396.031647619 560.831199634 395.766646952 559.6046403 c 2
 500.5944616 723.638384492 l 2
 512.584167523 743.621227697 534.330370007 760 560 760 c 0
 596.21326044 760 613.900296122 728.082935128 613.900296122 697.686346014 c 0
 613.900296122 692.864010893 613.455132034 688.079944547 612.568154728 683.467662552 c 0
 612.488984988 683.055979908 612.358755203 682.480485797 612.283420003 682.179144999 c 0
 609.384872707 670.584955814 604.321542727 660.939153283 599.837835411 653.092665479 c 0
 599.650648399 652.765088208 599.373532128 652.311532344 599.223117165 652.076164187 c 2
 388.950035502 323.042491169 l 1
 420.145039609 346.275822629 456.164633728 360 493 360 c 0
 501.970678111 360 510.741125591 359.152235403 519.218309549 357.487239193 c 0
 586.783423567 344.21683485 627.933548095 282.326154407 627.933548095 206.798039047 c 0
 627.933548095 192.695952586 626.498981863 178.118440987 623.533936217 163.293212757 c 0
 602.780551467 59.5262890088 516.872698496 -24 426 -24 c 0
 417.029321889 -24 408.258874409 -23.1522354032 399.781690451 -21.4872391926 c 0
 332.216576433 -8.21683485005 291.066451905 53.6738455934 291.066451905 129.201960953 c 0
 291.066451905 143.304047414 292.501018137 157.881559013 295.466063783 172.706787243 c 0
 295.872968343 174.741310041 296.304919656 176.768051912 296.761464061 178.786535857 c 2
 190.4055384 12.361615508 l 2
 178.826507715 -6.93676896775 158.060457437 -24 132 -24 c 0
132 24 m 0
 135.939542564 24 143.173492285 26.9367689677 149.5944616 37.638384492 c 2
 558.448642749 677.410208295 l 2
 561.154077088 682.201577997 564.089609 688.113151587 565.559853444 693.207008203 c 0
 568.354190806 710.950240084 560.324599998 712 560 712 c 0
 555.669629993 712 547.415832477 708.378772303 541.4055384 698.361615508 c 2
 132.573710566 58.6247699969 l 2
 130.635548258 55.1204419599 127.97867784 48.7030601087 126.455808351 42.8565103279 c 0
 123.413003625 25.4575867694 131.72386645 24 132 24 c 0
349.466063783 572.706787243 m 0
 351.940457263 585.078754642 353.096021526 596.794503354 353.096021526 607.783432466 c 0
 353.096021526 665.102063711 321.656568575 702.646104006 281.947036062 710.396385906 c 0
 276.577498516 711.444381866 270.931357103 712 265 712 c 0
 203.872698496 712 131.780551467 649.526289009 114.533936217 563.293212757 c 0
 112.017598628 550.711524812 110.842910237 538.815943075 110.842910237 527.677444518 c 0
 110.842910237 470.542831541 141.750700067 433.328197359 181.032582751 425.612877492 c 0
 186.395115673 424.559627139 192.047041747 424 198 424 c 0
 259.242756973 424 332.254625503 486.649595843 349.466063783 572.706787243 c 0
272.418314103 572.461400035 m 0
 273.086140878 575.991341557 273.384429454 579.242611077 273.384429454 582.692533039 c 0
 273.384429454 604.31613387 262.018176308 616 246 616 c 0
 223.852328645 616 196.839210826 591.328374593 191.581685897 563.538599965 c 0
 190.884723427 559.854655483 190.566161434 556.372844615 190.566161434 552.855996466 c 0
 190.566161434 531.03621839 201.326457627 520 217 520 c 0
 239.406478719 520 267.237848088 545.078936811 272.418314103 572.461400035 c 0
319.581685897 563.538599965 m 0
 310.762151912 516.921063189 268.593521281 472 217 472 c 0
 168.846065404 472 142.566568294 513.046495795 142.566568294 552.994703606 c 0
 142.566568294 559.528952431 143.183552753 565.934804328 144.418314103 572.461400035 c 0
 153.160789174 618.671625407 194.147671355 664 246 664 c 0
 294.154166427 664 321.383144195 623.035191883 321.383144195 582.468020596 c 0
 321.383144195 576.022961919 320.784921211 569.898558054 319.581685897 563.538599965 c 0
576.466063783 172.706787243 m 0
 578.982401372 185.288475188 580.157089763 197.184056925 580.157089763 208.322555482 c 0
 580.157089763 265.457168459 549.249299933 302.671802641 509.967417249 310.387122508 c 0
 504.604884327 311.440372861 498.952958253 312 493 312 c 0
 431.872698496 312 359.780551467 249.526289009 342.533936217 163.293212757 c 0
 340.017598628 150.711524812 338.842910237 138.815943075 338.842910237 127.677444518 c 0
 338.842910237 70.5428315412 369.750700067 33.3281973593 409.032582751 25.6128774916 c 0
 414.395115673 24.5596271387 420.047041747 24 426 24 c 0
 487.127301504 24 559.219448533 86.4737109912 576.466063783 172.706787243 c 0
499.418314103 172.461400035 m 0
 500.115276573 176.145344517 500.433838566 179.627155385 500.433838566 183.144003534 c 0
 500.433838566 204.96378161 489.673542373 216 474 216 c 0
 451.593521281 216 423.762151912 190.921063189 418.581685897 163.538599965 c 0
 417.913859122 160.008658443 417.615570546 156.757388923 417.615570546 153.307466961 c 0
 417.615570546 131.68386613 428.981823692 120 445 120 c 0
 467.147671355 120 494.160789174 144.671625407 499.418314103 172.461400035 c 0
546.581685897 163.538599965 m 0
 537.839210826 117.328374593 496.852328645 72 445 72 c 0
 396.845833573 72 369.616855805 112.964808117 369.616855805 153.531979404 c 0
 369.616855805 159.977038081 370.215078789 166.101441946 371.418314103 172.461400035 c 0
 380.237848088 219.078936811 422.406478719 264 474 264 c 0
 522.153934596 264 548.433431706 222.953504205 548.433431706 183.005296394 c 0
 548.433431706 176.471047569 547.816447247 170.065195672 546.581685897 163.538599965 c 0
EndSplineSet
EndChar

StartChar: ampersand
Encoding: 38 38 6
Width: 627
Flags: HW
LayerCount: 2
Back
SplineSet
477.147460938 48 m 0
 524.88671875 288 421.950195312 414 249.150390625 414 c 0
 165.950195312 414 124.6953125 464 142.19921875 552 c 0
 154.9296875 616 215.643554688 696 337.243164062 696 c 0
 452.443359375 696 492.521484375 624 478.19921875 552 c 0
 463.877929688 480 403.774414062 414.848632812 318.108398438 406.75 c 1024
535.196289062 372 m 0
 535.196289062 372 460.852539062 320 403.391601562 192 c 0
 345.930664062 64 262.094726562 40 187.556640625 40 c 0
 78.7568359375 40 38.6611328125 128 57.7568359375 224 c 0
 81.626953125 344 185.418945312 409.096679688 249.150390625 414 c 1024
EndSplineSet
Fore
SplineSet
328.833360746 479.383579129 m 1
 353.594924375 483.608644331 370.656903901 492.89692754 383.542493302 503.360504045 c 0
 402.608998848 520.059545598 412.628878439 537.520860519 416.466063783 556.706787243 c 0
 417.244765616 560.600296408 417.667437143 564.358285123 417.667437143 568.062654618 c 0
 417.667437143 574.822998288 416.259731202 581.404763342 413.03927143 588.305748568 c 0
 410.052042937 595.475096951 405.093694617 601.848457152 392.031505104 609.195938753 c 0
 378.641488304 617.072419224 358.355962142 624 328 624 c 0
 284.773355387 624 255.884847737 611.513044517 238.201062951 598.652110127 c 0
 216.846935956 582.834238279 207.512509876 562.186081053 204.562289328 547.434978312 c 0
 201.855945925 533.001146832 201.612728274 522.312826955 202.533936217 517.706787243 c 0
 202.600806974 517.372433454 202.682558361 516.898727911 202.720920744 516.649372422 c 0
 204.01969694 508.207327144 205.998617745 504.942507752 210.970562748 499.970562748 c 0
 217.236188529 493.704936968 231.459007206 486 258 486 c 2
 259 486 l 2
 282.741530433 486 306.532093614 483.986314284 328.833360746 479.383579129 c 1
331.171929282 431.210530384 m 0
 328.780552341 430.891680125 325.427402707 430.972650281 322.681093514 431.596811461 c 0
 302.864308965 436.100626131 281.674666681 438 259 438 c 2
 258 438 l 2
 222.540992794 438 194.763811471 448.295063032 177.029437252 466.029437252 c 0
 166.032146592 477.026727911 158.601825034 489.733293531 155.324634646 509.012043604 c 0
 154.421984907 513.974849784 154.017822064 519.231066412 154.017822064 524.723407181 c 0
 154.017822064 534.675599977 155.344846731 545.40308067 157.437710672 556.565021688 c 0
 162.487490124 581.813918947 177.153064044 613.165761721 209.798937049 637.347889873 c 0
 236.115152263 656.486955483 275.226644613 672 328 672 c 0
 365.644037858 672 395.358511696 662.927580776 415.968494896 650.804061247 c 0
 434.861295155 640.176861102 448.8281744 626.334059684 456.933040087 607.762825463 c 0
 462.818199693 594.650807912 465.497717948 580.72910207 465.497717948 567.212424823 c 0
 465.497717948 560.418969006 464.820858738 553.727825363 463.533936217 547.293212757 c 0
 457.35605722 516.403817773 440.342881743 488.993706552 414.474049641 466.652442463 c 0
 393.807517098 449.632945076 365.824108332 435.830820924 331.171929282 431.210530384 c 0
382.959202225 284.882251794 m 1
 381.498837266 286.707707993 l 2
 351.480897119 321.50045835 305.697603808 341.546111366 242.492317984 341.996839484 c 0
 229.160663244 340.066459536 210.162947597 333.223808506 192.126353078 321.907366203 c 0
 174.433377244 310.031729793 161.022523869 298.794373257 148.843536206 283.135674833 c 0
 134.846495261 265.639373652 124.814880528 245.697934313 119.533936217 219.293212757 c 0
 117.521118884 209.229126092 116.571545393 199.746633955 116.571545393 190.919802435 c 0
 116.571545393 168.750236999 122.561634296 150.716702554 132.740851427 137.992681141 c 0
 144.123700295 123.764120055 162.169633544 112 197 112 c 0
 225.048052214 112 251.010141033 115.837886246 272.383534679 126.524583069 c 0
 302.938018952 141.38892677 326.349232873 168.536264462 348.223752898 216.089568864 c 0
 359.73177555 240.749617403 371.656682863 264.811686096 382.959202225 284.882251794 c 1
430.740851427 301.992681141 m 2
 436.964439548 294.21319599 437.691476876 283.048870807 432.500765335 274.521273275 c 0
 419.314976901 252.858906562 405.533675269 225.390634351 391.776247102 195.910431136 c 0
 367.650767127 143.463735538 337.061981048 104.61107323 293.616465321 83.4754169307 c 0
 262.989858967 68.1621137537 228.951947786 64 197 64 c 0
 149.830366456 64 115.876299705 82.2358799445 95.2591485734 108.007318859 c 0
 76.8709795257 130.992530168 68.5712578866 159.895473801 68.5712578866 190.794147446 c 0
 68.5712578866 203.194755653 69.9080683156 215.916809904 72.4660637834 228.706787243 c 0
 79.1851194722 262.302065687 93.153504739 290.360626348 111.156463794 312.864325167 c 0
 127.135504602 333.408806207 146.139599692 348.937476665 165.899609627 362.110816622 c 0
 191.193106132 378.206678034 216.504868578 387.283739035 238.195810058 389.835614504 c 0
 238.865186754 389.914364703 240.103152864 390 241 390 c 0
 316.308623279 390 377.671354542 365.121438088 418.501898383 317.291372445 c 2
 430.740851427 301.992681141 l 2
540.518660713 547.214711353 m 0
 530.269795365 495.038669584 503.767753426 445.886986753 466.927821778 408.325859932 c 1
 469.480769097 405.868205907 471.399722301 403.941353713 473.345596243 401.958914339 c 0
 491.730008568 419.600021584 502.914060167 427.483779742 506.058942076 429.941826698 c 0
 506.897493199 430.676755821 507.604428983 431.211135903 508.050283351 431.529603309 c 0
 518.308375257 438.856811813 530.950032164 444 545 444 c 0
 581.247576891 444 598.916997126 411.954525412 598.916997126 381.694989668 c 0
 598.916997126 376.924116779 598.477765634 372.197639267 597.602864248 367.648152057 c 0
 593.348374716 343.539378045 578.612382109 325.55515971 563.246828799 313.430761673 c 0
 560.587393458 311.113788831 557.76532853 309.029225025 550.711960739 302.857528209 c 0
 546.859959501 299.555812861 540.694229584 293.537926925 535.901112599 288.326008597 c 1
 546.650568659 251.130189718 552.21323052 210.340312907 552.21323052 166.006199383 c 0
 552.21323052 127.771904672 548.075970944 86.9015649085 539.560361278 43.4271366133 c 0
 532.991844166 9.27084763062 504.666923124 -24 468 -24 c 0
 431.818024961 -24 414.114935432 7.79995366641 414.114935432 38.3212152314 c 0
 414.114935432 43.1906920933 414.56555362 48.0276208558 415.463639442 52.6976671315 c 0
 419.084704907 70.1994835411 421.682567332 87.342754912 423.241584563 101.902427962 c 1
 414.775020775 89.0005366133 407.933787213 79.7501404716 399.359978286 69.5432250817 c 0
 370.339638695 35.1487485292 338.746023873 10.9856796272 306.376265737 -4.64110016243 c 0
 260.225513976 -26.6176486202 216.241456629 -32 178 -32 c 0
 115.820797498 -32 65.1106032237 -8.05699945428 32.2383254453 33.0333477688 c 0
 2.83041544662 70.0032917671 -10.5036031081 117.829916499 -10.5036031081 168.446289029 c 0
 -10.5036031081 188.230638361 -8.46645519684 208.441200456 -4.55577420862 228.596248626 c 0
 10.8151067381 307.372013478 52.7828698282 368.749661046 98.4144426788 410.708912329 c 1
 83.0013146699 436.014325424 74.8713749641 466.504601619 74.8713749641 502.235011304 c 0
 74.8713749641 519.175078696 76.6988085418 537.293014096 80.4439132559 556.594707623 c 0
 91.5811618464 613.394675434 125.540751337 673.430511725 181.630188605 715.222641453 c 0
 225.775750879 748.33181316 282.153135518 768 347 768 c 0
 433.176388966 768 498.164934086 733.049792474 527.693095947 669.268962854 c 0
 539.241290542 645.402694025 545.052206348 618.278622795 545.052206348 590.30588635 c 0
 545.052206348 576.056233722 543.544269232 561.586351818 540.518660713 547.214711353 c 0
493.481339287 556.785288647 m 0
 495.869390652 568.12853263 497.028736103 579.359838345 497.028736103 590.263329342 c 0
 497.028736103 611.534437702 492.616467289 631.557939792 484.306904053 648.731037146 c 0
 463.835065914 692.950207526 420.823611034 720 347 720 c 0
 291.860749373 720 246.192322024 703.644241518 210.4 676.8 c 0
 164.424015939 642.543384425 136.425521099 592.639407588 127.551529992 547.382052943 c 0
 124.326343719 530.75993907 122.874929014 515.769249011 122.874929014 502.28781805 c 0
 122.874929014 465.42560376 133.726244088 439.847170694 148.83905951 423.055153559 c 0
 152.793043539 418.661837971 154.815329753 412.86003086 154.815329753 407.020436433 c 0
 154.815329753 400.022061661 151.910828005 392.969414985 145.945899378 388.221818731 c 0
 100.639315818 352.161476714 57.2713356901 294.821003967 42.5557742086 219.403751374 c 0
 39.2061385205 202.140244366 37.5664118708 185.24117083 37.5664118708 169.050761839 c 0
 37.5664118708 126.824603798 48.7201117206 89.4189026512 69.7824253002 62.9405655797 c 0
 92.871575249 34.0791281438 128.185730429 16 178 16 c 0
 211.758543371 16 247.774486024 20.6176486202 285.623734263 38.6411001624 c 0
 311.266327284 51.0202830003 337.640141131 70.8272868198 362.657004396 100.476902541 c 0
 381.700279534 123.147468181 399.795314233 153.382603834 415.068522833 187.747323185 c 0
 415.172548923 187.981381888 415.378947176 188.423525812 415.533747416 188.733126292 c 2
 424.533747416 206.733126292 l 2
 427.665527531 212.996686522 433.69747289 217.81327721 440.672406398 219.401212499 c 0
 442.406234496 219.795941254 444.142958094 219.984644765 445.85730254 219.984644765 c 0
 457.443194906 219.984644765 468.00695665 211.365924397 469.747065539 199.475180323 c 0
 472.230059121 182.508057517 473.571656001 164.32828474 473.571656001 144.955080317 c 0
 473.571656001 114.076711572 470.163434469 80.1665234393 462.536360558 43.3023328685 c 0
 459.063534076 25.2436351634 467.954583419 24 468 24 c 0
 473.330338382 24 489.014805349 34.763729845 492.431845272 52.5323374476 c 0
 500.418039479 93.3039605014 504.144183462 131.184296027 504.144183462 165.997018951 c 0
 504.144183462 211.509181732 497.775662338 251.778349142 486.231600847 286.410533616 c 0
 483.672977714 294.086403015 485.263537772 303.005443771 490.56268929 309.364425592 c 0
 501.278053501 322.222862646 511.240777211 332.244818606 519.288039261 339.142471791 c 0
 525.571589867 344.640578572 529.736253632 347.974177244 531.615830582 349.537415857 c 0
 532.068166009 349.958445097 532.938804043 350.704103033 533.6 351.2 c 0
 542.01178984 357.50884238 548.702584936 366.749393314 550.397135752 376.351847943 c 0
 553.973121992 394.94697639 545.037445082 396 545 396 c 0
 543.142725052 396 540.370711042 395.385291499 536.698232368 392.985982572 c 0
 531.869708501 389.038634407 514.377863791 377.210184531 489.83905951 349.944846441 c 0
 486.071938881 345.759156853 478.814036884 342.552703895 471.26813249 342.552703895 c 0
 464.600400715 342.552703895 457.707799858 345.056266857 452.8 351.6 c 0
 448.68912858 357.081161894 446.284878138 360.773996365 445.029437252 362.029437252 c 0
 444.83964274 362.219231763 444.485372729 362.587525005 444.241438238 362.855852944 c 0
 435.223403619 372.775691026 426.260694903 380.868150563 415.802293034 389.425024819 c 0
 411.14208585 393.237921606 407.503718538 400.889375546 407.503718538 408.825098233 c 0
 407.503718538 415.164227026 409.825347035 421.684746636 415.802293034 426.574975181 c 0
 455.401084973 458.973986768 483.507015437 506.006912685 493.481339287 556.785288647 c 0
EndSplineSet
EndChar

StartChar: quotesingle
Encoding: 39 39 7
Width: 179
Flags: HW
LayerCount: 2
Back
SplineSet
153.251953125 688 m 1
 111.877929688 480 l 1025
EndSplineSet
Fore
SplineSet
91.452820397 692.641408095 m 2
 97.9969089873 726.670668765 126.337708708 760 163 760 c 0
 199.192605081 760 216.890240495 728.160250034 216.890240495 697.681319773 c 0
 216.890240495 692.827884616 216.441480363 688.008955856 215.547179603 683.358591905 c 2
 173.547179603 475.358591905 l 2
 167.003091013 441.329331235 138.662291292 408 102 408 c 0
 65.8073949186 408 48.1097595053 439.839749966 48.1097595053 470.318680227 c 0
 48.1097595053 475.172115384 48.5585196372 479.991044144 49.452820397 484.641408095 c 2
 91.452820397 692.641408095 l 2
138.547179603 683.358591905 m 2
 96.547179603 475.358591905 l 2
 93.0575707426 457.212625831 101.955880249 456 102 456 c 0
 107.337708708 456 122.996908987 466.670668765 126.452820397 484.641408095 c 2
 168.452820397 692.641408095 l 2
 171.942429257 710.787374169 163.044119751 712 163 712 c 0
 157.662291292 712 142.003091013 701.329331235 138.547179603 683.358591905 c 2
EndSplineSet
EndChar

StartChar: parenleft
Encoding: 40 40 8
Width: 275
Flags: HW
LayerCount: 2
Back
SplineSet
265.165039062 768 m 0
 265.165039062 768 135.747070312 600 89.599609375 368 c 0
 43.4521484375 136 106.034179688 -32 106.034179688 -32 c 1024
EndSplineSet
Fore
SplineSet
275 840 m 0
 311.196725215 840 328.892246483 808.14482655 328.892246483 777.68231177 c 0
 328.892246483 772.835087615 328.444205169 768.023124847 327.551368523 763.380374288 c 0
 324.591334375 748.580203549 318.31911276 736.42548368 310.003205098 725.337606797 c 0
 309.417875305 724.600052735 276.078667774 682.524127522 235.407212424 602.149584806 c 0
 203.151364982 538.615339845 170.004155058 456.616175522 151.54332138 363.34038431 c 0
 140.442777324 307.253424867 136.375873057 255.395911276 136.375873057 209.255651888 c 0
 136.375873057 178.718040387 138.157324616 150.684793568 140.860137663 125.587243843 c 0
 149.423351124 46.61538637 165.172169241 5.21869782254 165.498221167 4.35677351827 c 0
 168.347931582 -3.24245425728 169.449274253 -11.0147175682 169.449274253 -18.5618031782 c 0
 169.449274253 -24.8108074536 168.694207137 -30.9054326407 167.551368523 -36.6196257122 c 0
 160.999516949 -70.6892538943 132.663763212 -104 96 -104 c 0
 71.515487192 -104 53.6692978354 -84.7274997455 48.0053434555 -71.8957849851 c 0
 42.3315235618 -58.9245193773 24.5062834992 -7.92189425126 14.1428318431 86.3855158184 c 0
 10.9038872473 115.940885255 8.7857689049 148.991125694 8.7857689049 185.147436487 c 0
 8.7857689049 240.773630505 13.7992651253 303.751761226 27.4579417958 372.665993518 c 0
 49.9992131035 486.396953298 89.8886399297 583.461108358 127.581028545 657.827172384 c 0
 173.35306262 748.376196314 215.190430464 803.791102375 221.385333837 811.173536923 c 0
 234.236377115 827.701820604 252.478490496 840 275 840 c 0
275 792 m 0
 271.93223293 792 264.934349248 789.245798998 259.2 781.6 c 0
 258.949745944 781.266327925 258.532871317 780.730884456 257.910896316 780.0242417 c 0
 253.231641312 774.203019161 212.815802091 720.044818657 170.418971455 636.172827616 c 0
 134.11136007 564.538891642 96.0007868965 471.603046702 74.5420582042 363.334006482 c 0
 61.5371105384 297.718134168 56.7793581201 237.91733922 56.7793581201 185.186249581 c 0
 56.7793581201 150.889975203 58.79198022 119.584324105 61.8571681569 91.6144841816 c 0
 70.9380909937 8.97808636583 88.6974756158 -44.2293126199 91.0611656582 -50.5495852555 c 0
 91.0852346569 -50.6062495635 91.1244003067 -50.698560736 91.1538461538 -50.7692307692 c 0
 93.6964326735 -56.8714384165 94.5738195885 -56 96 -56 c 0
 101.336236788 -56 117.000483051 -45.3107461057 120.448631477 -27.3803742878 c 0
 121.872734081 -20.2598612696 121.380591445 -14.907167577 120.565421881 -12.5262009148 c 0
 119.429423674 -9.5391400357 102.248577708 36.4101588454 93.139862337 120.412756157 c 0
 90.2668383192 147.090836323 88.3759198869 176.860862382 88.3759198869 209.269715582 c 0
 88.3759198869 258.231105581 92.69163676 313.215193662 104.45667862 372.65961569 c 0
 123.997657364 471.392981977 158.839577055 557.366818714 192.599997538 623.864616635 c 0
 233.986862766 705.652945538 269.005423502 750.856190939 271.982695456 754.643036156 c 0
 275.649866287 759.665941137 279.397795709 767.365446873 280.448631477 772.619625712 c 0
 283.944738142 790.799380368 275.043617644 792 275 792 c 0
EndSplineSet
EndChar

StartChar: parenright
Encoding: 41 41 9
Width: 275
Flags: HW
LayerCount: 2
Back
SplineSet
143.565429688 768 m 0
 143.565429688 768 206.147460938 600 160 368 c 0
 113.852539062 136 -15.5654296875 -32 -15.5654296875 -32 c 1024
EndSplineSet
Fore
SplineSet
81.4486314772 772.619625712 m 0
 88.0004830507 806.689253894 116.336236788 840 153 840 c 0
 177.484512808 840 195.330702165 820.727499745 200.994656544 807.895784985 c 0
 206.668476438 794.924519377 224.493716501 743.921894251 234.857168157 649.614484182 c 0
 238.096112753 620.059114745 240.214231095 587.008874306 240.214231095 550.852563513 c 0
 240.214231095 495.226369495 235.200734875 432.248238774 221.542058204 363.334006482 c 0
 199.000786897 249.603046702 159.11136007 152.538891642 121.418971455 78.1728276163 c 0
 75.4423039359 -12.781014649 34.4293110185 -68.2404453263 28.6511842117 -75.1265694786 c 0
 15.7287587904 -91.7466608278 -2.46485650041 -104 -25 -104 c 0
 -61.1967252145 -104 -78.8922464826 -72.1448265495 -78.8922464826 -41.6823117704 c 0
 -78.8922464826 -36.8350876151 -78.4442051687 -32.0231248467 -77.5513685228 -27.3803742878 c 0
 -74.6072107043 -12.6595851952 -68.2024915082 -0.269988677639 -60.1040801778 10.5278930962 c 0
 -59.7254858988 11.0189190893 -27.1003628171 53.4329989418 13.5927875757 133.850415194 c 0
 45.9347862138 197.554351906 80.0263200228 279.537803833 98.4566786196 372.65961569 c 0
 109.557222676 428.746575133 113.624126943 480.604088724 113.624126943 526.744348112 c 0
 113.624126943 557.281959613 111.842675384 585.315206432 109.139862337 610.412756157 c 0
 100.576648876 689.38461363 84.8278307593 730.781302177 84.5017788334 731.643226482 c 0
 81.5389012683 739.544233322 79.9266848179 748.26721926 79.9266848179 757.338319155 c 0
 79.9266848179 762.352402918 80.4192759836 767.472848244 81.4486314772 772.619625712 c 0
128.551368523 763.380374288 m 0
 127.463901722 757.943040285 127.979240501 752.668596768 129.410512809 748.58892733 c 0
 130.011437418 747.025429514 147.612360163 700.872303012 156.860137663 615.587243843 c 0
 159.733161681 588.909163677 161.624080113 559.139137618 161.624080113 526.730284418 c 0
 161.624080113 477.768894419 157.30836324 422.784806338 145.54332138 363.34038431 c 0
 125.971867311 264.453037435 90.0742721646 178.463490355 56.4000024622 112.135383365 c 0
 13.9275012725 28.2016310143 -20.8346044978 -17.1514017891 -21.947038315 -18.5941967549 c 0
 -25.6913529492 -23.7227652032 -29.3919910143 -31.3364233976 -30.4486314772 -36.6196257122 c 0
 -33.9447381418 -54.799380368 -25.0436176437 -56 -25 -56 c 0
 -21.9322329302 -56 -14.9343492483 -53.2457989977 -9.2 -45.6 c 0
 -8.97899515024 -45.305326867 -8.61314209256 -44.8309263826 -8.01546935285 -44.1421341557 c 0
 -3.49271621781 -38.4169565084 36.1606195783 15.9085372531 78.5810285454 99.8271723837 c 0
 114.88863993 171.461108358 152.999213103 264.396953298 174.457941796 372.665993518 c 0
 187.462889462 438.281865832 192.22064188 498.08266078 192.22064188 550.813750419 c 0
 192.22064188 585.110024797 190.20801978 616.415675895 187.142831843 644.385515818 c 0
 178.061909006 727.021913634 160.302524384 780.22931262 157.938834342 786.549585256 c 0
 157.914765343 786.606249564 157.875599693 786.698560736 157.846153846 786.769230769 c 0
 155.303567326 792.871438416 154.426180411 792 153 792 c 0
 147.663763212 792 131.999516949 781.310746106 128.551368523 763.380374288 c 0
EndSplineSet
EndChar

StartChar: asterisk
Encoding: 42 42 10
Width: 409
Flags: HW
LayerCount: 2
Back
SplineSet
325.397460938 684.708007812 m 1
 160.584960938 435.291992188 l 1025
210.197265625 684.708007812 m 1
 275.78515625 435.291992188 l 1025
127.791015625 560 m 1
 358.19140625 560 l 1025
EndSplineSet
Fore
SplineSet
335 757 m 0
 371.149451285 757 388.869224448 725.321837394 388.869224448 694.671246868 c 0
 388.869224448 689.752535065 388.412890036 684.860286158 387.503155062 680.129664291 c 0
 384.886618914 668.355251625 380.848699262 657.709782859 373.598454609 647.125354899 c 2
 363.610012694 632 l 1
 368 632 l 2
 404.21326044 632 421.900296122 600.082935128 421.900296122 569.686346014 c 0
 421.900296122 564.864010893 421.455132034 560.079944547 420.568154728 555.467662552 c 0
 413.985194651 521.236270155 385.669661618 488 349 488 c 2
 331.162813718 488 l 1
 337.142666418 465.361986208 l 2
 338.727046103 459.81665731 339.431786727 453.766015676 339.431786727 447.716981788 c 0
 339.431786727 441.685431597 338.73111408 435.655479873 337.503155062 430.129664291 c 0
 331.04065356 396.524656481 302.646821766 363 266 363 c 0
 238.720536861 363 220.936601148 383.360577312 214.857333582 404.638013792 c 2
 214.486565257 406.041636738 l 1
 209.108477359 397.897675065 l 2
 196.993002129 379.051380261 176.065234298 363 151 363 c 0
 114.850548715 363 97.1307755518 394.678162606 97.1307755518 425.328753132 c 0
 97.1307755518 430.247464935 97.5871099637 435.139713842 98.4968449382 439.870335709 c 0
 101.113381086 451.644748375 105.151300738 462.290217141 112.401545391 472.874645101 c 2
 122.389987306 488 l 1
 118 488 l 2
 81.7867395597 488 64.0997038781 519.917064872 64.0997038781 550.313653986 c 0
 64.0997038781 555.135989107 64.5448679658 559.920055453 65.4318452725 564.532337448 c 0
 72.0148053489 598.763729845 100.330338382 632 137 632 c 2
 154.837186282 632 l 1
 148.857333582 654.638013792 l 2
 147.272953897 660.18334269 146.568213273 666.233984324 146.568213273 672.283018212 c 0
 146.568213273 678.314568403 147.26888592 684.344520127 148.496844938 689.870335709 c 0
 154.95934644 723.475343519 183.353178234 757 220 757 c 0
 247.279463139 757 265.063398852 736.639422688 271.142666418 715.361986208 c 2
 271.513434743 713.958363262 l 1
 276.891522641 722.102324935 l 2
 289.006997871 740.948619739 309.934765702 757 335 757 c 0
335 709 m 0
 332.065234298 709 322.993002129 705.051380261 317.108477359 695.897675065 c 2
 282.027150634 642.774523166 l 2
 279.600144815 639.099342925 274.921509953 635.095629889 269.931019726 633.348312952 c 0
 267.382448636 632.455983496 264.773699193 632.03496637 262.199549217 632.03496637 c 0
 251.622461964 632.03496637 241.629537521 639.143241738 238.795892268 649.870613052 c 2
 224.857333582 702.638013792 l 2
 222.730556969 710.081731936 220.720536861 709 220 709 c 0
 214.646821766 709 199.04065356 698.524656481 195.503155062 680.129664291 c 0
 193.962632592 673.197313176 194.30684641 670.287356237 195.142666418 667.361986208 c 2
 209.204107732 614.129386948 l 2
 209.575380021 612.723856138 209.998331894 610.107550744 209.998331894 608.044917584 c 0
 209.998331894 595.067208887 199.177423954 584 186 584 c 2
 137 584 l 2
 131.669661618 584 115.985194651 573.236270155 112.568154728 555.467662552 c 0
 109.046009496 537.152507346 117.958394443 536 118 536 c 2
 167 536 l 2
 169.517081189 536 175.068512431 534.963181831 178.613437326 533.003049147 c 0
 186.496421129 528.64422783 190.913303036 520.29253259 190.913303036 511.81591056 c 0
 190.913303036 507.310475996 189.665507224 502.769748859 187.027150634 498.774523166 c 2
 151.785006981 445.407848492 l 2
 148.620292212 440.977247815 147.319484953 437.93066619 145.507006425 430.149263711 c 0
 142.384816181 412.296409426 150.729979895 411 151 411 c 0
 153.934765702 411 163.006997871 414.948619739 168.891522641 424.102324935 c 2
 203.972849366 477.225476834 l 2
 206.399855185 480.900657075 211.078490047 484.904370111 216.068980274 486.651687048 c 0
 218.617551364 487.544016504 221.226300807 487.96503363 223.800450783 487.96503363 c 0
 234.377538036 487.96503363 244.370462479 480.856758262 247.204107732 470.129386948 c 2
 261.142666418 417.361986208 l 2
 263.269443031 409.918268064 265.279463139 411 266 411 c 0
 271.353178234 411 286.95934644 421.475343519 290.496844938 439.870335709 c 0
 292.037367408 446.802686824 291.69315359 449.712643763 290.857333582 452.638013792 c 2
 276.795892268 505.870613052 l 2
 276.424619979 507.276143862 276.001668106 509.892449256 276.001668106 511.955082416 c 0
 276.001668106 524.932791113 286.822576046 536 300 536 c 2
 349 536 l 2
 354.330338382 536 370.014805349 546.763729845 373.431845272 564.532337448 c 0
 376.953990504 582.847492654 368.041605557 584 368 584 c 2
 319 584 l 2
 316.482918811 584 310.931487569 585.036818169 307.386562674 586.996950853 c 0
 299.503578871 591.35577217 295.086696964 599.70746741 295.086696964 608.18408944 c 0
 295.086696964 612.689524004 296.334492776 617.230251141 298.972849366 621.225476834 c 2
 334.214993019 674.592151508 l 2
 337.379707788 679.022752185 338.680515047 682.06933381 340.492993575 689.850736289 c 0
 343.615183819 707.703590574 335.270020105 709 335 709 c 0
EndSplineSet
EndChar

StartChar: plus
Encoding: 43 43 11
Width: 512
Flags: HW
LayerCount: 2
Back
SplineSet
428.799804688 368 m 1
 83.2001953125 368 l 1025
298.96484375 584 m 1
 213.03515625 152 l 1025
EndSplineSet
Fore
SplineSet
438 440 m 2
 474.21326044 440 491.900296122 408.082935128 491.900296122 377.686346014 c 0
 491.900296122 372.864010893 491.455132034 368.079944547 490.568154728 363.467662552 c 0
 483.985194651 329.236270155 455.669661618 296 419 296 c 2
 304.629421556 296 l 1
 274.546182696 147.353407987 l 2
 268.003941592 113.333754249 239.661940994 80 203 80 c 0
 166.463817628 80 150.076778873 112.168326911 150.076778873 141.958966409 c 0
 150.076778873 146.953448729 150.537376598 151.88110034 151.440843922 156.579130423 c 2
 178.82708616 296 l 1
 74 296 l 2
 37.7867395597 296 20.0997038781 327.917064872 20.0997038781 358.313653986 c 0
 20.0997038781 363.135989107 20.5448679658 367.920055453 21.4318452725 372.532337448 c 0
 28.0148053489 406.763729845 56.3303383817 440 93 440 c 2
 207.370578444 440 l 1
 237.453817304 588.646592013 l 2
 243.996058408 622.666245751 272.338059006 656 309 656 c 0
 345.536182372 656 361.923221127 623.831673089 361.923221127 594.041033591 c 0
 361.923221127 589.046551271 361.462623402 584.11889966 360.559156078 579.420869577 c 2
 333.17291384 440 l 1
 438 440 l 2
438 392 m 2
 304 392 l 2
 293.416818383 392 277.088250115 403.511380137 280.450028307 420.625887297 c 2
 313.450028307 588.625887297 l 2
 317.123328204 607.727046756 309 608 309 608 c 1
 303.661940994 608 288.003941592 597.333754249 284.546182696 579.353407987 c 2
 250.523103948 411.23937182 l 2
 248.296420044 400.236933709 238.30645973 392 227 392 c 2
 93 392 l 2
 87.6696616183 392 71.9851946511 381.236270155 68.5681547275 363.467662552 c 0
 65.0460094955 345.152507346 73.9583944433 344 74 344 c 2
 208 344 l 2
 218.583181617 344 234.911749885 332.488619863 231.549971693 315.374112703 c 2
 198.549971693 147.374112703 l 2
 194.876671796 128.272953244 203 128 203 128 c 1
 208.338059006 128 223.996058408 138.666245751 227.453817304 156.646592013 c 2
 261.476896052 324.76062818 l 2
 263.703579956 335.763066291 273.69354027 344 285 344 c 2
 419 344 l 2
 424.330338382 344 440.014805349 354.763729845 443.431845272 372.532337448 c 0
 446.953990504 390.847492654 438.041605557 392 438 392 c 2
EndSplineSet
EndChar

StartChar: comma
Encoding: 44 44 12
Width: 236
Flags: HW
LayerCount: 2
Back
SplineSet
67.4951171875 96 m 0
 73.8955078125 96 78.705078125 88.0009765625 77.11328125 79.9990234375 c 0
 73.9306640625 64 57.947265625 48 45.1474609375 48 c 0
 38.748046875 48 33.939453125 56 35.5302734375 64 c 0
 38.712890625 80 54.6953125 96 67.4951171875 96 c 0
 73.8955078125 96 85.1044921875 88 80.330078125 64 c 0
 72.3740234375 24 29.2607421875 -56 29.2607421875 -56 c 1024
EndSplineSet
Fore
SplineSet
95.5574025055 69.1443619834 m 0
 96.8326921721 75.6845916378 97.3799870327 81.4652301717 97.3799870327 86.5545595127 c 0
 97.3799870327 105.485979632 89.8070099125 114.851681016 83.9619762128 118.166245699 c 0
 80.1630025201 119.656551966 78.9847454046 120 77 120 c 0
 68.4537865563 120 57.7711977478 115.065956743 47.9709601231 106.082405587 c 0
 35.4899700534 95.2655475269 24.4823826432 80.601376183 20.5210628921 59.2102495267 c 0
 17.5659783581 45.9123691241 19.2847780162 40.5149563782 22.193954087 34.2864828043 c 0
 25.3937280506 28.7419868754 28.733126292 25.466252584 28.733126292 25.466252584 c 1
 36.2028722255 21.7313796173 41.8715207341 12.8657306222 41.8715207341 3.46115690946 c 0
 41.8715207341 0.1899164376 41.1856753175 -3.14652812074 39.6512213193 -6.3549319353 c 0
 28.5588803585 -29.5480084896 19.5033958997 -47.6587950685 19.4689238446 -47.7277821078 c 0
 16.4028499232 -53.8599299507 15.0709746579 -57.2088048796 14.7587878479 -59.3941125497 c 0
 14.7204202521 -59.6626857201 14.6373701367 -60.1724173201 14.5681547275 -60.5323374476 c 0
 11.0460094955 -78.8474926541 19.9583944433 -80 20 -80 c 0
 23.7930737261 -80 32.9488934483 -75.8001380217 39.1885643034 -64.8645718852 c 0
 41.8158538721 -58.8849706788 54.3058308457 -35.5118842072 67.0317662148 -7.33302731865 c 0
 72.9724205752 6.52849952235 79.6762409306 20.9140191662 85.4573589086 35.266751302 c 0
 88.9715452711 45.811744458 92.6468285945 56.7960523819 95.5574025055 69.1443619834 c 0
-33.3326535636 -55.7682827747 m 0
 -31.0815482565 -42.7655594422 -26.2658014779 -31.8659731587 -23.4689238446 -26.2722178922 c 2
 -23.4689238446 -26.2722178922 -18.2332646989 -15.7750909262 -11.4220536687 -1.76446512824 c 1
 -15.386370442 3.31810471719 -17.7570694811 7.45132510215 -19.837835411 11.0926654794 c 0
 -20.0477568616 11.4600280181 -20.3260437028 11.9864559457 -20.466252584 12.266873708 c 0
 -25.41572919 22.16582692 -28.6394928486 34.398821554 -28.6394928486 48.52378714 c 0
 -28.6394928486 54.9838061993 -27.9651884431 61.8395628136 -26.4732731888 69.0487676622 c 0
 -19.716462877 103.37879914 -1.45106684852 126.541271423 15.9375885036 141.838815167 c 0
 32.0079439493 156.279688115 51.6209086201 168 77 168 c 0
 88.7579797559 168 98.0362752809 164.234280962 102.913376232 162.283440581 c 0
 103.502871181 162.047642602 104.31017478 161.67772834 104.733126292 161.466252584 c 0
 130.875725628 148.394952916 145.274724539 119.984787325 145.274724539 85.8327677108 c 0
 145.274724539 77.1689986722 144.348079833 68.135713762 142.451439221 58.8895907778 c 0
 138.97315194 43.8170125586 134.825564518 31.5820297114 130.768399153 19.4105336156 c 0
 130.626723947 18.9855079958 130.406793494 18.3950060502 130.283440581 18.0866237675 c 0
 123.891012261 2.10555296697 116.970192644 -12.6624020109 110.968233785 -26.6669726814 c 0
 98.4762985575 -54.3276863999 86.1714102373 -77.8728348255 83.4521841082 -83.4851068654 c 0
 82.889423528 -84.9175432562 82.6168775325 -85.4624777142 82.2109099923 -86.2293052901 c 0
 70.3315316144 -108.668131115 48.0524428408 -128 20 -128 c 0
 -17.6091429021 -128 -34.147619276 -92.5419868494 -34.147619276 -65.6485216823 c 0
 -34.147619276 -62.1813086942 -33.8727266998 -58.8564504555 -33.3326535636 -55.7682827747 c 0
EndSplineSet
EndChar

StartChar: hyphen
Encoding: 45 45 13
Width: 332
Flags: HW
LayerCount: 2
Back
SplineSet
43.3134765625 264 m 1
 248.11328125 264 l 1025
EndSplineSet
Fore
SplineSet
34 192 m 2
 -2.21326044025 192 -19.9002961219 223.917064872 -19.9002961219 254.313653986 c 0
 -19.9002961219 259.135989107 -19.4551320342 263.920055453 -18.5681547275 268.532337448 c 0
 -11.9851946511 302.763729845 16.3303383817 336 53 336 c 2
 258 336 l 2
 294.21326044 336 311.900296122 304.082935128 311.900296122 273.686346014 c 0
 311.900296122 268.864010893 311.455132034 264.079944547 310.568154728 259.467662552 c 0
 303.985194651 225.236270155 275.669661618 192 239 192 c 2
 34 192 l 2
34 240 m 2
 239 240 l 2
 244.330338382 240 260.014805349 250.763729845 263.431845272 268.532337448 c 0
 266.953990504 286.847492654 258.041605557 288 258 288 c 2
 53 288 l 2
 47.6696616183 288 31.9851946511 277.236270155 28.5681547275 259.467662552 c 0
 25.0460094955 241.152507346 33.9583944433 240 34 240 c 2
EndSplineSet
EndChar

StartChar: period
Encoding: 46 46 14
Width: 230
Flags: HW
LayerCount: 2
Back
SplineSet
74.49609375 72 m 0
 68.642578125 59.068359375 55.7939453125 48 45.1474609375 48 c 0
 38.748046875 48 33.939453125 56 35.5302734375 64 c 0
 36.06640625 66.6923828125 36.9638671875 69.3837890625 38.1484375 72 c 1024
38.1484375 72 m 0
 44.001953125 84.931640625 56.849609375 96 67.4951171875 96 c 0
 73.8955078125 96 78.705078125 88 77.11328125 80 c 0
 76.578125 77.3076171875 75.6806640625 74.6162109375 74.49609375 72 c 1024
EndSplineSet
Fore
SplineSet
-19.2058186577 93.2311135648 m 0
 -18.2593451038 96.1810961599 -18.4684520327 95.4840108066 -18.1192490033 96.3133680014 c 0
 -8.12329594877 120.053756506 8.27046043199 137.54401551 24.9668250317 149.469990224 c 0
 38.278456073 159.151176436 56.0429971879 168 77 168 c 0
 106.792206144 168 124.45082317 147.763985121 132.466252584 131.733126292 c 0
 137.255692072 122.154247317 141.368395434 108.538083159 141.368395434 93.013871256 c 0
 141.368395434 87.4389354058 140.83801437 81.6179345454 139.618126678 75.6494773288 c 0
 137.677429338 64.1982498078 135.006426773 58.7853433117 131.175457808 50.6742572947 c 0
 130.292742088 47.9229960493 130.449278684 48.4704524896 130.119249003 47.6866319986 c 0
 120.411647488 24.6310783998 105.238087424 6.81923295898 88.0331749683 -5.46999022393 c 0
 74.721543927 -15.1511764358 56.9570028121 -24 36 -24 c 0
 12.0272183358 -24 -4.4207698069 -9.70776054893 -12.9369423677 1.24417746585 c 0
 -23.1648486864 14.519245515 -28.3378335882 30.4410011338 -28.3378335882 48.9747578517 c 0
 -28.3378335882 55.0414942778 -27.7835595346 61.3881009268 -26.6708705668 68.0133612341 c 0
 -25.1362191263 77.8186083259 -22.8346332832 85.2471356235 -19.2058186577 93.2311135648 c 0
26.5491504646 78.6916519019 m 0
 24.6827663365 73.2333576071 25.5414927971 75.4173541342 24.466252584 73.266873708 c 0
 22.7744601593 69.8832888586 21.5231827371 65.9566516746 20.6943658899 60.1549337442 c 0
 17.5249779581 42.7233001195 21.3438966331 35.2388746332 24.9750549048 30.6999267936 c 0
 28.6187903823 25.8416128235 31.8115615917 24 36 24 c 0
 43.0429971879 24 51.278456073 27.1511764358 59.9668250317 33.4699902239 c 0
 70.6105513632 41.0726518893 78.6576328221 50.0134615458 85.4443248989 65.28926661 c 0
 87.3250061125 70.7893731446 86.4534822527 68.5725959654 87.533747416 70.733126292 c 0
 90.0709319643 75.8074953887 91.8645963633 80.7578020278 92.2412121521 83.3941125497 c 0
 92.30285268 83.8255962448 92.4443871178 84.6342755174 92.5715105556 85.2063309876 c 0
 95.2124249998 97.0904459866 93.0073923955 103.319583749 89.533747416 110.266873708 c 0
 85.5491768304 118.236014879 83.2077938558 120 77 120 c 0
 69.9570028121 120 61.721543927 116.848823564 53.0331749683 110.530009776 c 0
 41.9261412744 102.59641428 33.0528189542 93.2251300008 26.5491504646 78.6916519019 c 0
EndSplineSet
EndChar

StartChar: slash
Encoding: 47 47 15
Width: 460
Flags: HW
LayerCount: 2
Back
SplineSet
25.947265625 48 m 1
 434.852539062 688 l 1025
EndSplineSet
Fore
SplineSet
16 -24 m 0
 -20.5454904723 -24 -36.9273662912 8.20201797387 -36.9273662912 37.9582026552 c 0
 -36.9273662912 42.938937285 -36.4683839834 47.8511453173 -35.5681547275 52.5323374476 c 0
 -35.4889849883 52.9440200916 -35.3587552029 53.5195142033 -35.2834200035 53.8208550009 c 0
 -32.8293962418 63.6369500475 -29.1748215695 73.5676087431 -23.837835411 82.9073345206 c 0
 -23.6506483989 83.2349117916 -23.3735321282 83.6884676557 -23.223117165 83.9238358133 c 2
 385.5944616 723.638384492 l 2
 397.173492285 742.936768968 417.939542564 760 444 760 c 0
 480.21326044 760 497.900296122 728.082935128 497.900296122 697.686346014 c 0
 497.900296122 692.864010893 497.455132034 688.079944547 496.568154728 683.467662552 c 0
 496.488984988 683.055979908 496.358755203 682.480485797 496.283420003 682.179144999 c 0
 493.829396242 672.363049953 490.17482157 662.432391257 484.837835411 653.092665479 c 0
 484.650648399 652.765088208 484.373532128 652.311532344 484.223117165 652.076164187 c 2
 75.4055384001 12.361615508 l 2
 63.4158324773 -7.6212276966 41.6696299931 -24 16 -24 c 0
16 24 m 1
 20.3303700069 24 28.5841675227 27.6212276966 34.5944615999 37.638384492 c 2
 443.426289434 677.375230003 l 2
 445.364451742 680.87955804 448.02132216 687.296939891 449.544191649 693.143489672 c 0
 452.586996375 710.542413231 444.27613355 712 444 712 c 0
 440.060457437 712 432.826507715 709.063231032 426.4055384 698.361615508 c 2
 17.5737105656 58.6247699968 l 2
 15.6338450014 55.1173623567 12.9805666044 48.7103113896 11.454305409 42.8507402836 c 0
 8.22415539568 24.4858933212 16 24 16 24 c 1
EndSplineSet
EndChar

StartChar: zero
Encoding: 48 48 16
Width: 537
Flags: HW
LayerCount: 2
Back
SplineSet
467.200195312 368 m 0
 431.166992188 186.850585938 313.129882812 40 203.556640625 40 c 0
 93.9833984375 40 34.3671875 186.850585938 70.400390625 368 c 0
 106.43359375 549.149414062 224.469726562 696 334.04296875 696 c 0
 443.616210938 696 503.233398438 549.149414062 467.200195312 368 c 0
EndSplineSet
Fore
SplineSet
529.520234552 363.225215542 m 0
 501.618802529 225.784828169 433.826227673 100.981027538 344.100757488 28.346123103 c 0
 299.235862195 -7.97307784874 247.384076637 -32 194 -32 c 0
 140.335120865 -32 94.319699116 -6.9271470046 62.5400417074 31.6624369916 c 0
 18.038934985 84.7514765902 -4.19901810089 162.823853331 -4.19901810089 251.647485117 c 0
 -4.19901810089 290.372808444 0.027939208874 331.141714465 8.47976544802 372.774784458 c 0
 36.3811974712 510.215171831 104.173772327 635.018972462 193.899242512 707.653876897 c 0
 238.764137805 743.973077849 290.615923363 768 344 768 c 0
 397.763350767 768 442.846405582 742.725448443 474.459958293 704.337563008 c 0
 519.206673187 650.955517169 541.977304002 572.202815888 541.977304002 482.570903781 c 0
 541.977304002 444.389734719 537.845419406 404.23445945 529.520234552 363.225215542 c 0
482.479765448 372.774784458 m 0
 490.168233263 410.647607397 493.787097661 447.098060681 493.787097661 481.20968022 c 0
 493.787097661 563.03453263 472.964347276 631.401861927 437.540041707 673.662436992 c 0
 413.153594418 703.274551557 382.236649233 720 344 720 c 0
 305.384076637 720 263.235862195 702.026922151 224.100757488 670.346123103 c 0
 145.826227673 606.981027538 81.6188025288 491.784828169 55.520234552 363.225215542 c 0
 47.70037817 324.705182253 44.0050729946 287.670440844 44.0050729946 253.078523712 c 0
 44.0050729946 171.938623215 64.3365995512 104.239113788 99.4599582926 62.3375630084 c 0
 123.680300884 32.9271470046 155.664879135 16 194 16 c 0
 232.615923363 16 274.764137805 33.9730778487 313.899242512 65.653876897 c 0
 392.173772327 129.018972462 456.381197471 244.215171831 482.479765448 372.774784458 c 0
405.482962831 372.790507571 m 0
 411.529065363 402.471374549 414.200868671 430.535344495 414.200868671 456.357253064 c 0
 414.200868671 520.512272364 397.70827023 570.827418842 375.496917961 597.714845272 c 0
 360.309696143 616.099376947 343.416402102 624 324 624 c 0
 304.327830412 624 281.48919614 615.200118089 256.233746161 594.454569891 c 0
 205.898733961 553.107952727 153.559927409 466.510953607 132.517037169 363.209492429 c 0
 126.337260665 332.872407771 123.60160779 304.23807515 123.60160779 277.967462174 c 0
 123.60160779 214.509149915 139.563986534 164.843007182 161.503082039 138.285154728 c 0
 176.690303857 119.900623053 193.583597898 112 213 112 c 0
 232.781047493 112 256.742089681 120.989866693 281.766253839 141.545430109 c 0
 332.101266039 182.892047273 384.440072591 269.489046393 405.482962831 372.790507571 c 0
452.517037169 363.209492429 m 0
 429.559927409 250.510953607 373.898733961 155.107952727 312.233746161 104.454569891 c 0
 281.257910319 79.0101333073 247.218952507 64 213 64 c 0
 178.416402102 64 147.309696143 80.0993769466 124.496917961 107.714845272 c 0
 93.0488569426 145.783550715 75.3133352603 205.263271282 75.3133352603 276.015337878 c 0
 75.3133352603 306.456234016 78.5964085276 338.983786446 85.482962831 372.790507571 c 0
 108.440072591 485.489046393 164.101266039 580.892047273 225.766253839 631.545430109 c 0
 256.51080386 656.799881911 289.672169588 672 324 672 c 0
 358.583597898 672 389.690303857 655.900623053 412.503082039 628.285154728 c 0
 444.141362848 589.986183222 462.466826373 529.831349468 462.466826373 458.194692239 c 0
 462.466826373 428.283027943 459.271865823 396.369560364 452.517037169 363.209492429 c 0
EndSplineSet
Substitution2: "(ss01) Slashed Zero subtable" zero.ss01
Substitution2: "(ss02) Dotted Zero subtable" zero.ss02
EndChar

StartChar: one
Encoding: 49 49 17
Width: 281
Flags: HW
LayerCount: 2
Back
SplineSet
204.452148438 688 m 1
 77.1474609375 48 l 1025
EndSplineSet
Fore
SplineSet
142.445225718 692.601915764 m 2
 149.003388907 726.704364347 177.335040058 760 214 760 c 0
 250.200076857 760 267.893878243 728.132280397 267.893878243 697.683122633 c 0
 267.893878243 692.840948255 267.446421116 688.034647774 266.554774282 683.398084236 c 2
 139.554774282 43.398084236 l 2
 132.996611093 9.29563565257 104.664959942 -24 68 -24 c 0
 31.7999231426 -24 14.1061217567 7.86771960279 14.1061217567 38.3168773675 c 0
 14.1061217567 43.1590517452 14.5535788837 47.9653522261 15.4452257179 52.601915764 c 2
 142.445225718 692.601915764 l 2
189.554774282 683.398084236 m 2
 62.5547742821 43.398084236 l 2
 59.0533846429 25.1908581125 67.9567905894 24 68 24 c 0
 73.3350400582 24 89.003388907 34.7043643474 92.4452257179 52.601915764 c 2
 219.445225718 692.601915764 l 2
 222.946615357 710.809141888 214.043209411 712 214 712 c 0
 208.664959942 712 192.996611093 701.295635653 189.554774282 683.398084236 c 2
EndSplineSet
Substitution2: "(ss03) Serifed One subtable" one.ss03
Substitution2: "Tabular Figures subtable" one.tnum
EndChar

StartChar: two
Encoding: 50 50 18
Width: 537
Flags: HW
LayerCount: 2
Back
SplineSet
135.817382812 536 m 0
 157.067382812 642.828125 236.637695312 696 322.842773438 696 c 0
 412.443359375 696 463.721679688 624 444.625976562 528 c 0
 432.33984375 466.232421875 404.588867188 435.219726562 322.78515625 382 c 0
 153.704101562 272 81.748046875 232 45.1474609375 48 c 1
 371.547851562 48 l 1025
EndSplineSet
Fore
SplineSet
197.551368523 531.380374288 m 0
 190.999516949 497.310746106 162.663763212 464 126 464 c 0
 89.7979767059 464 72.1051741546 495.87500545 72.1051741546 526.316404864 c 0
 72.1051741546 531.155647758 72.5522922495 535.958661728 73.4432486111 540.591634808 c 0
 90.716878122 628.039384208 138.483264665 689.427487042 190.532779911 724.865454869 c 0
 234.717458299 754.69011278 283.597402429 768 332 768 c 0
 371.035961537 768 408.162200591 757.976825432 438.02331342 736.476824195 c 0
 484.987308222 702.662747937 512.163972884 644.978075133 512.163972884 577.554300392 c 0
 512.163972884 560.000018041 510.321775384 541.785560886 506.506969038 523.160329904 c 0
 499.050165769 486.941571166 485.884807262 450.138464722 461.160439859 417.547253145 c 0
 431.54473345 378.059644601 394.242384686 350.980207703 347.018245577 320.837140187 c 0
 298.418096488 289.098267313 243.127109241 252.799643338 212.836317471 229.134962268 c 0
 190.206069681 211.219349434 173.470410239 194.370227161 161.026766708 178.371256907 c 0
 148.307712246 161.63565893 137.120487061 143.20300996 128.060482111 120 c 1
 381 120 l 2
 417.21326044 120 434.900296122 88.0829351276 434.900296122 57.6863460143 c 0
 434.900296122 52.8640108927 434.455132034 48.0799445469 433.568154728 43.4676625524 c 0
 426.985194651 9.23627015495 398.669661618 -24 362 -24 c 2
 36 -24 l 2
 -0.191624905896 -24 -17.8897632585 7.83608062829 -17.8897632585 38.3189154453 c 0
 -17.8897632585 43.1738287407 -17.4408320094 47.994415582 -16.5461826957 52.6465920132 c 0
 0.965949189951 139.177126036 27.9846226364 207.764977908 72.1058565434 264.79974369 c 0
 96.5359895532 295.602954877 123.128320864 321.084008473 153.396113818 344.045782438 c 0
 194.316894594 375.75938754 247.047757007 410.205193449 297.876990913 443.094697741 c 0
 340.251276327 471.023204036 361.723974186 490.394949167 369.856446199 500.482839854 c 0
 376.373129904 509.559397751 378.852934284 513.743254949 382.444473471 532.598835679 c 0
 384.202340757 541.388172111 385.039166396 549.486525086 385.039166396 556.926618354 c 0
 385.039166396 582.38430219 375.241650078 600.135111468 359.020392921 611.489991477 c 0
 348.831381876 618.96193291 333.239525994 624 313 624 c 0
 284.292112972 624 260.212800575 616.233759761 242.416808175 604.10012858 c 0
 229.651466622 595.589900877 220.07103207 585.950564346 212.686778843 572.823003053 c 0
 205.955031837 561.883914167 201.185287523 549.549969291 197.551368523 531.380374288 c 0
150.448631477 540.619625712 m 0
 154.848849456 562.620715607 161.116998199 580.299391976 171.291431452 597.142011248 c 0
 182.176765414 616.057458002 198.227500714 632.32941068 215.583191825 643.89987142 c 0
 241.787199425 661.766240239 275.707887028 672 313 672 c 0
 340.760474006 672 367.168618124 665.03806709 386.979607079 650.510008523 c 0
 417.744043621 628.974902943 432.812917902 594.199567116 432.812917902 555.399307655 c 0
 432.812917902 544.964615511 431.723057606 534.238819706 429.555526529 523.401164321 c 0
 425.153867647 500.292455187 418.20765371 485.356112326 408.147266875 471.523080426 c 0
 393.482430427 452.85874313 369.535211704 432.836072166 324.123009087 402.905302259 c 0
 272.952242993 369.794806551 221.683105406 336.24061246 182.603886182 305.954217562 c 0
 154.871679136 284.915991527 131.464010447 262.397045123 109.894143457 235.20025631 c 0
 72.0153773636 186.235022092 47.03405081 124.822873964 30.5461826957 43.3534079868 c 0
 27.0581202264 25.2154831464 35.9557607545 24 36 24 c 2
 362 24 l 2
 367.330338382 24 383.014805349 34.763729845 386.431845272 52.5323374476 c 0
 389.953990504 70.8474926541 381.041605557 72 381 72 c 2
 95 72 l 2
 93.706255668 72 91.9895757523 72.1426938108 90.5212691189 72.4215995094 c 0
 79.0527898942 74.6000438057 71.0219440501 84.9660607817 71.0219440501 96.1674959443 c 0
 71.0219440501 98.2037183472 71.2873217181 100.267546974 71.8456682903 102.314817739 c 0
 84.6162819672 149.140401221 102.423866758 180.590102917 122.973233292 207.628743093 c 0
 138.529589761 227.629772839 157.793930319 246.780650566 183.163682529 266.865037732 c 0
 216.872890759 293.200356662 271.581903512 328.901732687 320.981754423 361.162859813 c 0
 367.757615314 391.019792297 398.45526655 413.940355399 422.839560141 446.452746855 c 0
 442.115192738 471.861535278 452.949834231 501.058428834 459.493030962 532.839670096 c 0
 462.721917802 548.604235257 464.232138677 563.661267131 464.232138677 577.887638405 c 0
 464.232138677 632.099189414 442.302278765 674.248749432 409.97668658 697.523175805 c 0
 389.837799409 712.023174568 362.964038463 720 332 720 c 0
 292.383513323 720 253.325657126 709.338990131 217.42734852 685.107631822 c 0
 175.555800566 656.599343854 135.280400405 605.946838334 120.556751389 531.408365192 c 0
 117.052294884 513.185191368 125.957027576 512 126 512 c 0
 131.336236788 512 147.000483051 522.689253894 150.448631477 540.619625712 c 0
EndSplineSet
EndChar

StartChar: three
Encoding: 51 51 19
Width: 537
Flags: HW
LayerCount: 2
Back
SplineSet
205.94140625 422 m 0
 396.063476562 512.845703125 450.852539062 688 450.852539062 688 c 1
 156.452148438 688 l 1025
65.7412109375 153.767578125 m 0
 80.6953125 86.4765625 131.926757812 40 201.95703125 40 c 0
 299.159179688 40 397.368164062 129.54296875 419.338867188 240 c 0
 441.310546875 350.45703125 395.916992188 444 290.317382812 444 c 0
 264.528320312 444 230.264648438 433.32421875 205.94140625 422 c 1024
EndSplineSet
Fore
SplineSet
460 712 m 2
 166 712 l 2
 160.669661618 712 144.985194651 701.236270155 141.568154728 683.467662552 c 0
 138.046009496 665.152507346 146.958394443 664 147 664 c 2
 388 664 l 2
 390.219874233 664 395.580313783 663.0813661 398.935918283 661.36365351 c 0
 407.199703674 657.133474355 411.919422649 648.546668775 411.919422649 639.801941286 c 0
 411.919422649 635.55180471 410.804539498 631.264364116 408.439799601 627.421661784 c 0
 400.494748103 614.5109531 391.268175192 599.054256561 379.277417117 582.703222823 c 0
 344.416246955 536.221662607 291.27795145 483.233821075 210.564553553 444.449461046 c 0
 209.645264058 443.989816299 208.796034138 443.618196898 207.992070053 443.258528754 c 0
 207.934914387 443.213080588 207.586183179 442.939637384 207.4 442.8 c 0
 198.98821016 436.49115762 192.297415064 427.250606686 190.602864248 417.648152057 c 0
 187.084000103 399.350058504 195.845831021 398.002015666 195.845831021 398.002015666 c 2
 196.073360807 398.031168967 198.832983738 398.623385719 202.631186936 400.102075514 c 0
 224.63186148 409.853742802 256.449442054 420 281 420 c 0
 337.648339099 420 377.194241854 390.971288595 395.89052275 349.839470622 c 0
 404.95403225 329.446574248 409.478088276 306.575302392 409.478088276 281.878386584 c 0
 409.478088276 266.931815086 407.821076099 251.316570557 404.510464815 235.177340551 c 0
 386.620823871 146.847238389 305.382098848 64 212 64 c 0
 143.074672684 64 93.7223325017 111.016954931 80.5111438168 171.06781259 c 0
 79.1573522902 177.836770223 76.7118876312 178 75 178 c 0
 69.6696616183 178 53.9851946511 167.236270155 50.5681547275 149.467662552 c 0
 50.5094958973 149.162636635 50.3850972457 148.585853968 50.2834200035 148.179144999 c 0
 49.1861785522 143.790179194 49.4008316133 139.958408025 50.0765747434 137.59330707 c 0
 50.163259679 137.289909795 50.3147088282 136.710137575 50.4086510802 136.294813935 c 0
 67.3231695815 61.5148374031 119.905870108 16 192 16 c 0
 292.908762749 16 408.37189736 113.304135274 434.470466624 244.729073356 c 0
 438.483320205 264.458936797 440.399957988 283.843588302 440.399957988 302.403449767 c 0
 440.399957988 335.496401073 434.306531371 365.967157604 423.137649308 391.097142246 c 0
 407.456959975 425.071969135 384.322930283 447.769184795 351.891245913 459.411327902 c 0
 350.961298875 459.745155044 346.534244028 461.938746697 344.413210039 463.750288256 c 0
 338.905018634 468.454747358 336.110263499 475.239760086 336.110263499 482.035569945 c 0
 336.110263499 488.182230181 338.39659784 494.337723337 343.029437252 498.970562748 c 0
 429.668552581 585.609678078 461.325712474 677.749922637 465 688 c 0
 465 689.134663258 465.15472007 691.091286393 465.431845272 692.532337448 c 0
 469.064608191 711.422704625 460.9477424 712 460 712 c 2
175.671854431 478.956503961 m 0
 184.085106384 485.651556572 189.435446447 487.550538954 189.435446447 487.550538954 c 1
 262.72204855 522.766178925 309.583753045 569.778337393 340.722582883 611.296777177 c 0
 341.711968443 612.645939304 343.147214621 614.651932567 344.102642062 616 c 2
 147 616 l 2
 110.78673956 616 93.0997038781 647.917064872 93.0997038781 678.313653986 c 0
 93.0997038781 683.135989107 93.5448679658 687.920055453 94.4318452725 692.532337448 c 0
 101.014805349 726.763729845 129.330338382 760 166 760 c 2
 460 760 l 2
 497.605339395 760 513.899911513 726.920441084 513.899911513 697.602789909 c 0
 513.899911513 693.550717766 513.588640305 689.570508422 512.979341864 685.759432321 c 0
 512.854997174 682.09126398 511.465571337 675.320809088 511.465571337 675.320809088 c 2
 505.881523745 659.956318856 477.603017395 576.628377965 399.880642614 489.302660566 c 1
 430.658535135 469.997037344 451.602262957 443.966381179 466.862350692 410.902857754 c 0
 481.268010394 378.490123425 488.487632012 341.599652765 488.487632012 302.744817076 c 0
 488.487632012 280.731684579 486.170301508 258.088036628 481.529533376 235.270926644 c 0
 451.62810264 84.6958647258 321.091237251 -32 192 -32 c 0
 95.842808041 -32 24.9319311393 33.1926107821 3.77131285987 124.914732247 c 0
 2.15536979683 131.184457506 1.48564144207 136.85928831 1.48564144207 142.221490528 c 0
 1.48564144207 148.1667143 2.30892363433 153.727630695 3.5786551699 159.288949667 c 0
 10.8479765165 194.008327761 38.6782218455 226 75 226 c 0
 103.288112369 226 122.84264771 204.163229777 127.488856183 180.93218741 c 0
 136.277667498 140.983045069 166.925327316 112 212 112 c 0
 276.616321381 112 343.383948769 175.176702237 357.483523777 244.793353836 c 0
 360.202974351 258.050675387 361.454342868 270.400660099 361.454342868 281.782367398 c 0
 361.454342868 300.66678968 358.00943346 316.885627904 352.10947725 330.160529378 c 0
 340.805758146 355.028711405 320.351660901 372 281 372 c 0
 269.470481934 372 239.469848611 364.043377235 221.385271302 355.905317447 c 0
 214.394157661 353.10887199 207.296068074 350 196 350 c 0
 159.752423109 350 142.083002874 382.045474588 142.083002874 412.305010332 c 0
 142.083002874 417.075883221 142.522234366 421.802360733 143.397135752 426.351847943 c 0
 147.542500413 449.842247689 165.936072533 471.466338635 175.671854431 478.956503961 c 0
EndSplineSet
EndChar

StartChar: four
Encoding: 52 52 20
Width: 537
Flags: HW
LayerCount: 2
Back
SplineSet
454.106445312 270 m 1
 70.1064453125 270 l 1
 82.4384765625 332 l 1
 397.654296875 686 l 1
 447.25390625 686 l 1
 319.950195312 46 l 1025
EndSplineSet
Fore
SplineSet
310 -26 m 0
 273.469305026 -26 257.079222847 6.1484631344 257.079222847 35.9594052455 c 0
 257.079222847 40.9620006165 257.540774683 45.8987703799 258.446154762 50.6067467924 c 2
 287.75731307 198 l 1
 61 198 l 2
 24.7920759445 198 7.10232093448 229.897048845 7.10232093448 260.314948386 c 0
 7.10232093448 265.145327232 7.548414299 269.938405466 8.43728358583 274.560525758 c 2
 20.3779118043 336.253771553 l 2
 23.2282164177 353.355599233 32.2965153886 367.958358556 42.0705619696 378.954160959 c 2
 356.565338481 732.386385991 l 2
 370.938148926 749.259129915 387.491175665 758 407 758 c 2
 457 758 l 2
 493.19439577 758 510.891112347 726.153546605 510.891112347 695.681750266 c 0
 510.891112347 690.831014985 510.44266472 686.015114511 509.549000494 681.368060538 c 2
 441.30651006 342 l 1
 464 342 l 2
 500.21326044 342 517.900296122 310.082935128 517.900296122 279.686346014 c 0
 517.900296122 274.864010893 517.455132034 270.079944547 516.568154728 265.467662552 c 0
 509.985194651 231.236270155 481.669661618 198 445 198 c 2
 412.697232384 198 l 1
 381.553845238 41.3932532076 l 2
 374.99740377 7.29975757476 346.66463349 -26 310 -26 c 0
310 22 m 1
 315.33536651 22 331.00259623 32.7002424252 334.446154762 50.6067467924 c 2
 369.460933811 226.681064299 l 2
 371.342974472 236.145040193 380.934596316 246 393 246 c 2
 445 246 l 2
 450.330338382 246 466.014805349 256.763729845 469.431845272 274.532337448 c 0
 472.953990504 292.847492654 464.041605557 294 464 294 c 2
 412 294 l 2
 401.210244247 294 385.040975735 305.673983412 388.470994902 322.731376025 c 2
 462.450999506 690.631939462 l 2
 465.943432912 708.792593171 457.043901489 710 457 710 c 2
 407 710 l 2
 404.561974193 710 399.108424367 708.565397595 393.260044324 701.417377542 c 2
 77.9294380304 347.045839041 l 2
 71.7034846114 340.041641444 68.7717835823 334.644400767 67.6220881957 327.746228447 c 2
 55.5627164142 265.439474242 l 2
 52.048980343 247.168046672 60.957761916 246 61 246 c 2
 317 246 l 2
 327.691185031 246 343.936606921 234.403711954 340.539066189 217.318935701 c 2
 305.553845238 41.3932532076 l 2
 301.874838587 22.2624186225 310 22 310 22 c 1
316.250094495 342 m 1
 356.499573083 547.206358048 l 1
 174.387178159 342 l 1
 316.250094495 342 l 1
359.55124958 313.380623073 m 2
 357.67702421 303.825146184 348.061414249 294 336 294 c 2
 121 294 l 2
 116.8121275 294 110.735642294 295.673395285 106.527057021 298.854924353 c 0
 100.330737171 303.539104532 97.1065835146 310.797108691 97.1065835146 318.087371786 c 0
 97.1065835146 323.7448921 99.0482810162 329.421839868 103.049444127 333.930396852 c 2
 379.049444127 644.930396852 l 2
 384.107672948 650.630067733 392.00781488 653.737362515 399.75737526 652.841075514 c 0
 413.461610613 651.25609167 423.206542063 637.918261796 420.55124958 624.380623073 c 2
 359.55124958 313.380623073 l 2
EndSplineSet
EndChar

StartChar: five
Encoding: 53 53 21
Width: 537
Flags: HW
LayerCount: 2
Back
SplineSet
60.171875 155.704101562 m 0
 76.7177734375 86.712890625 125.415039062 40 192.356445312 40 c 0
 290.442382812 40 389.905273438 140.288085938 414.513671875 264 c 0
 439.12109375 387.711914062 379.5546875 488 281.46875 488 c 0
 223.69921875 488 164.704101562 456 115.165039062 400 c 1
 198.052734375 688 l 1
 454.052734375 688 l 1025
EndSplineSet
Fore
SplineSet
106 328 m 0
 72.586911785 328 51.8400161324 357.49802206 51.8400161324 389.289111034 c 0
 51.8400161324 393.371217448 52.182082958 397.491131066 52.8833240838 401.591256891 c 0
 53.8889814285 411.145001665 55.4348258134 413.368032923 55.4348258134 413.368032923 c 1
 137.949237983 699.683101656 l 2
 146.959769386 730.576352181 173.046834257 760 208 760 c 2
 464 760 l 2
 500.545490472 760 516.927366291 727.797982026 516.927366291 698.041797345 c 0
 516.927366291 693.061062715 516.468383983 688.148854683 515.568154728 683.467662552 c 0
 509.111583519 649.893492268 482.167081763 616 445 616 c 2
 241.103233906 616 l 1
 221.958946417 548.994993788 l 1
 246.23958134 556.65663265 267.33359522 560 291 560 c 0
 303.501446794 560 315.656790616 558.831918661 327.367328467 556.548342418 c 0
 426.075700329 537.300029846 483.683300828 443.553507738 483.683300828 329.935482307 c 0
 483.683300828 307.045696992 481.345170312 283.349383233 476.533936217 259.293212757 c 0
 445.005622801 101.651645681 318.989796202 -32 183 -32 c 0
 87.8533540634 -32 20.7249325997 36.3296382982 -1.11798212659 126.485205962 c 0
 -2.85473937861 133.223680269 -3.56373592739 138.997329996 -3.56373592739 144.361882364 c 0
 -3.56373592739 150.252235492 -2.70894519317 155.64936671 -1.4213448301 161.288949667 c 0
 5.84797651649 196.008327761 33.6782218455 228 70 228 c 0
 98.5653373394 228 115.55142619 206.327199967 121.264953349 184.901473118 c 0
 132.448626502 138.446215406 162.959715453 112 202 112 c 0
 263.107523758 112 334.958554827 178.40708903 352.438731639 268.568001009 c 0
 355.060457319 282.090586098 356.278223521 294.818308637 356.278223521 307.20755835 c 0
 356.278223521 375.750614075 320.254943365 416 272 416 c 0
 235.004323509 416 193.928868746 395.679334489 155.927079225 353.043180391 c 0
 145.843492259 341.699145055 129.277081159 328 106 328 c 0
106 376 m 0
 108.718770537 376 114.166814086 378.312449584 120.062176352 384.944732132 c 0
 164.081536344 434.332306758 216.991460237 464 272 464 c 0
 354.306571282 464 404.278044315 392.120653962 404.278044315 307.109222222 c 0
 404.278044315 291.543187807 402.733308218 275.793046675 399.561268361 259.431998991 c 0
 379.041445173 153.59291097 294.892476242 64 202 64 c 0
 137.360731575 64 90.3516539558 109.987183356 74.7195886005 173.153430865 c 0
 72.3001645107 181.619010186 71.5510049548 180 70 180 c 0
 64.6696616183 180 48.9851946511 169.236270155 45.5681547275 151.467662552 c 0
 45.5094958973 151.162636635 45.3850972457 150.585853968 45.2834200035 150.179144999 c 0
 44.1302816651 145.566591646 44.2380797263 142.528039629 45.2234863204 139.07911655 c 0
 63.5581739095 62.0734286759 113.899170961 16 183 16 c 0
 287.010203798 16 400.994377199 126.348354319 429.466063783 268.706787243 c 0
 433.852929113 290.641113892 435.917873446 311.610069283 435.917873446 331.387010308 c 0
 435.917873446 427.93404485 386.706216342 496.073048562 318.180283208 509.435730525 c 0
 309.571893838 511.114382155 300.51690183 512 291 512 c 0
 259.544096405 512 228.669446321 503.397963086 196.45020471 485.90751764 c 0
 192.097563253 483.544655135 185.795652383 482.35195963 180.237537649 483.477267328 c 0
 168.892376996 485.774232618 161.024000685 496.080302085 161.024000685 507.173866765 c 0
 161.024000685 509.301694879 161.313478955 511.458495013 161.923425257 513.59330707 c 2
 199.923425257 646.59330707 l 2
 202.776484307 656.579013745 212.319302229 664 223 664 c 2
 445 664 l 2
 449.832918237 664 464.888416481 674.106507732 468.431845272 692.532337448 c 0
 472.132995783 711.778320103 464 712 464 712 c 1
 208 712 l 2
 202.949542159 712 189.049453659 703.455269688 184.04 686.28 c 2
 101.061405794 398.353830969 l 2
 101.00209277 398.148021921 101.011641759 398.177838792 100.900730762 397.819056189 c 0
 100.853859126 397.314237349 100.673856749 395.966897795 100.502250068 395.137465503 c 0
 96.6280750259 376.412286132 105.750666392 376 106 376 c 0
EndSplineSet
EndChar

StartChar: six
Encoding: 54 54 22
Width: 537
Flags: HW
LayerCount: 2
Back
SplineSet
465.322265625 624 m 4
 465.322265625 624 441.243164062 696 351.643554688 696 c 4
 287.643554688 696 145.426757812 624.52734375 94.400390625 368 c 4
 41.4462890625 101.782226562 152.353515625 40 221.157226562 40 c 4
 325.819335938 40 402.61328125 131.782226562 420.55859375 222 c 4
 439.654296875 318 383.161132812 404 287.161132812 404 c 4
 191.471679688 404 113.431640625 340.1796875 86.34375 204 c 1028
EndSplineSet
Fore
SplineSet
527.551368523 619.380374288 m 0
 520.999516949 585.310746106 492.663763212 552 456 552 c 0
 432.120420615 552 412.717586796 567.356482767 405.030822837 589.954072138 c 0
 403.961880735 592.199609821 399.134178878 600.4811656 391.695189895 607.388798227 c 0
 382.976244454 615.437055557 368.23346644 624 342 624 c 0
 326.868062793 624 283.381851706 611.841709036 243.206899106 564.3622196 c 0
 220.414090683 538.217527585 196.577765455 499.346119102 178.168448064 446.588815182 c 1
 216.43087942 467.227598931 257.234577671 476 297 476 c 0
 383.40880666 476 449.800346471 423.36530548 475.684235065 346.839026158 c 0
 483.844411103 323.718527385 487.811086737 298.213768985 487.811086737 271.666471022 c 0
 487.811086737 253.899138657 486.034319681 235.664828368 482.548783578 217.365763824 c 0
 468.494705244 148.176455104 431.257110557 78.7017648729 374.5609612 30.7281000319 c 0
 329.034855267 -8.29427648188 273.283800033 -32 212 -32 c 0
 167.819911087 -32 113.326947206 -14.3274294315 72.2107855891 37.0677725891 c 0
 37.5537322519 80.9667068161 17.2299369054 144.578542891 17.2299369054 230.523148729 c 0
 17.2299369054 272.461601053 22.0693463046 319.717830597 32.4442257914 372.596248626 c 0
 57.1328564649 499.125480828 104.762115709 592.081450063 159.748262872 656.584430389 c 0
 228.481503231 736.949449886 305.310406269 768 361 768 c 0
 484.875200016 768 522.707623059 667.668689236 525.858316477 658.352236257 c 0
 528.459813965 650.794282545 529.468074451 643.708420884 529.468074451 636.871083779 c 0
 529.468074451 630.900979458 528.699364325 625.120353299 527.551368523 619.380374288 c 0
480.448631477 628.619625712 m 0
 481.980498685 636.27896175 481.563007394 639.813283654 480.372098355 642.989041089 c 0
 479.093486065 646.82487796 453.198503873 720 361 720 c 0
 322.684748883 720 257.530573471 697.064670566 196.239088068 625.400779942 c 0
 147.251728171 567.934838523 102.865546776 482.866335779 79.5557742086 363.403751374 c 0
 69.6689249426 313.012713179 65.3514719152 269.165816622 65.3514719152 231.263439817 c 0
 65.3514719152 152.762509671 83.8716149697 99.7611867032 109.789214411 66.9322274109 c 0
 140.673052794 28.3274294315 180.180088913 16 212 16 c 0
 260.716199967 16 304.965144733 34.2942764819 343.4390388 67.2718999681 c 0
 390.742889443 107.298235127 423.505294756 167.823544896 435.451216422 226.634236176 c 0
 438.365370632 241.933545775 439.788978198 256.978782704 439.788978198 271.404546796 c 0
 439.788978198 293.147731383 436.554837262 313.483602249 430.315764935 331.160973842 c 0
 410.199653529 390.63469452 362.59119334 428 297 428 c 0
 253.773672219 428 211.266882488 416.023983738 172.257984643 385.468430992 c 0
 166.087959907 380.178714086 158.937608011 373.996482514 152.970562748 368.029437252 c 0
 148.115941712 363.174816215 140.211702241 360.176914982 132.674344218 361.231533208 c 0
 120.722566675 362.903811797 112.014469539 373.495101971 112.014469539 385.138747394 c 0
 112.014469539 386.805363957 112.192878519 388.493540871 112.565720959 390.180209051 c 0
 134.255960893 488.30272304 170.056106449 553.498286772 206.793100894 595.6377804 c 0
 254.618148294 652.158290964 309.131937207 672 342 672 c 0
 379.754029372 672 407.050551604 658.53820962 424.278722466 642.635282671 c 0
 441.510925501 626.633951281 448.371417761 613.216177104 451.123745978 603.514869274 c 0
 452.069949936 600.981737154 453.368675672 600 456 600 c 0
 461.336236788 600 477.000483051 610.689253894 480.448631477 628.619625712 c 0
148.639467863 199.822629954 m 1
 154.383597845 171.180822819 163.543717084 152.31332321 172.715991094 141.024370582 c 0
 190.57545218 118.505919648 213.85752773 112 231 112 c 0
 262.88564088 112 287.924991723 123.324805196 308.238689741 141.099290962 c 0
 334.094491745 163.507652699 352.5451788 196.258319458 358.413299541 226.437226126 c 0
 359.920862559 234.728822725 360.728245777 242.469512777 360.728245777 249.824775522 c 0
 360.728245777 259.536789226 359.320572362 268.57681005 356.258427374 277.325795731 c 0
 346.09036276 308.612148388 319.587724703 332 278 332 c 0
 245.796118685 332 221.405273157 322.467268703 202.989825976 308.25610914 c 0
 180.788201524 289.968962758 160.866034348 259.943365303 148.639467863 199.822629954 c 1
100 201.662630267 m 0
 114.731077117 272.909115994 140.935053102 319.609139151 173.022777797 345.754692606 c 0
 200.731073154 367.439445494 236.097488289 380 278 380 c 0
 340.412275297 380 385.90963724 341.387851612 401.741572626 292.674204269 c 0
 406.652701406 278.642407755 408.677124793 264.253055701 408.677124793 249.888662759 c 0
 408.677124793 239.044278042 407.523308613 228.214118724 405.586700459 217.562773874 c 0
 397.4548212 175.741680542 373.905508255 134.492347301 339.761310259 104.900709038 c 0
 312.075008277 80.6751948042 275.11435912 64 231 64 c 0
 202.14247227 64 163.42454782 75.4940803525 135.284008906 110.975629418 c 0
 118.988625783 131.031485569 106.862335561 160.012019807 100.365194588 196.829151986 c 0
 100.185523232 197.847289671 100 200.103799433 100 201.662630267 c 0
EndSplineSet
EndChar

StartChar: seven
Encoding: 55 55 23
Width: 537
Flags: HW
LayerCount: 2
Back
SplineSet
146.852539062 688 m 1
 505.251953125 688 l 1
 493.71484375 630 l 1
 493.71484375 630 246.278320312 480 166.712890625 80 c 2
 160.34765625 48 l 1025
EndSplineSet
Fore
SplineSet
515 760 m 2
 553.194289614 760 568.96219029 726.637257791 568.96219029 697.852904363 c 0
 568.96219029 692.725612935 568.461882893 687.743591433 567.498901217 683.121279388 c 2
 555.662490187 625.911959409 l 2
 550.644030253 600.021470217 537.610108983 579.563749996 515.689496066 567.037685472 c 0
 514.848330509 566.549266761 498.372706667 556.812856067 469.196894794 530.289390727 c 0
 444.983818675 508.013360698 413.173633425 476.198063243 381.31965755 432.760823413 c 0
 323.072164426 354.126707696 260.801685097 239.564653672 228.56988903 75.4755100557 c 2
 222.578670535 43.5223447516 l 2
 215.976222371 9.18961429812 187.673356706 -24 151 -24 c 0
 114.776360804 -24 97.0946520902 7.95590668007 97.0946520902 38.3110783791 c 0
 97.0946520902 43.1178218819 97.5380164104 47.8844273648 98.4213294649 52.4776552484 c 2
 104.435068457 84.5509298745 l 2
 159.139000037 359.780085635 289.092802633 528.925493141 377.667272129 616 c 1
 137 616 l 2
 100.78673956 616 83.0997038781 647.917064872 83.0997038781 678.313653986 c 0
 83.0997038781 683.135989107 83.5448679658 687.920055453 84.4318452725 692.532337448 c 0
 91.0148053489 726.763729845 119.330338382 760 156 760 c 2
 515 760 l 2
515 712 m 2
 156 712 l 2
 150.669661618 712 134.985194651 701.236270155 131.568154728 683.467662552 c 0
 128.046009496 665.152507346 136.958394443 664 137 664 c 2
 440 664 l 2
 445.540450458 664 452.660172235 661.435619677 457.257602296 656.678583962 c 0
 461.706345854 652.075396592 463.890473389 646.057000898 463.890473389 640.050779388 c 0
 463.890473389 633.113489409 460.976705178 626.192440582 455.273190915 621.487041315 c 0
 378.320255588 558.00086967 214.211481393 390.639524058 151.564931543 75.4490701255 c 2
 145.578670535 43.5223447516 l 2
 142.040213304 25.1223671476 150.959654926 24 151 24 c 0
 156.326643294 24 172.023777629 34.8103857019 175.421329465 52.4776552484 c 2
 181.43011097 84.5244899443 l 2
 215.198314903 256.435346328 280.927835574 377.873292304 342.68034245 461.239176587 c 0
 376.826366575 507.801936757 411.016181325 541.986639302 436.803105206 565.710609273 c 0
 470.632810669 596.464886966 489.990402294 607.660372117 492.238250646 608.920398365 c 0
 498.431454154 612.635402845 506.454256233 623.342197332 508.426397376 634.51766381 c 2
 520.497749932 692.862534497 l 2
 524.13381747 710.315658681 516.001845804 712 515 712 c 2
EndSplineSet
EndChar

StartChar: eight
Encoding: 56 56 24
Width: 537
Flags: HW
LayerCount: 2
Back
SplineSet
338.38671875 380 m 0
 338.38671875 380 448.66015625 451.756835938 467.008789062 544 c 0
 483.8359375 628.595703125 422.422851562 696 334.04296875 696 c 0
 239.263671875 696 157.3828125 628.333007812 140.608398438 544 c 0
 123.103515625 456 179.729492188 386 280.379882812 386 c 0
 394.8359375 386 430.70703125 297.151367188 414.565429688 216 c 0
 396.498046875 125.171875 317.25390625 40 203.556640625 40 c 0
 97.95703125 40 46.65234375 136 64.9521484375 228 c 0
 89.6171875 352 201.565429688 400 201.565429688 400 c 1024
EndSplineSet
Fore
SplineSet
155.355555846 548.119635801 m 0
 157.859950107 561.893804239 162.552440252 576.235015578 170.343951094 589.220866981 c 0
 195.570768207 632.466839177 252.076281305 672 324 672 c 0
 381.396388014 672 427.554340768 641.440592935 445.811487734 601.014053224 c 0
 451.959247383 587.840282547 454.546087845 573.878517599 454.546087845 560.288922733 c 0
 454.546087845 553.253148031 453.852693214 546.317132375 452.601083287 539.641879429 c 0
 447.157855218 509.704125048 426.14062343 479.285999811 401.37543414 453.444063161 c 0
 382.331608035 433.342246717 364.294404542 418.447267648 352.116120744 409.590333977 c 0
 346.626721372 405.598043524 339.115913316 404.301523672 333.293212757 405.466063783 c 0
 319.49760289 408.225185757 305.11398016 410 290 410 c 0
 212.85716149 410 163.786933762 453.67884584 154.392091191 504.6794198 c 0
 153.312294359 510.618302377 152.877819973 516.446891906 152.877819973 522.126842331 c 0
 152.877819973 531.225014402 153.992585115 539.941811417 155.355555846 548.119635801 c 0
202.644444154 539.880364199 m 0
 200.846930506 529.095282311 200.411293821 519.901962635 201.612877842 513.293250517 c 0
 206.208778786 488.344073968 231.144398206 458 290 458 c 0
 304.893148416 458 317.68142805 456.787902519 331.86949092 454.503296146 c 1
 340.700777418 461.549927556 353.703128249 472.916641582 366.62456586 486.555936839 c 0
 387.85937657 508.714000189 402.842144782 534.295874952 405.398916713 548.358120571 c 0
 406.220223178 552.738421718 406.643880194 556.840504366 406.643880194 560.754313874 c 0
 406.643880194 567.948079009 405.2125905 574.505779132 402.188512266 580.985946776 c 0
 392.445659232 602.559407065 364.603611986 624 324 624 c 0
 269.923718695 624 228.429231793 593.533160823 211.656048906 564.779133019 c 0
 207.447559748 557.764984422 204.140049893 548.106195761 202.644444154 539.880364199 c 0
399.555526529 211.401164321 m 0
 390.241922234 162.504741768 358.932884699 116.507700013 307.380461817 87.8674650781 c 0
 281.308312027 74.2646043178 250.618681614 64 213 64 c 0
 203.072713845 64 193.56023531 64.8734841464 184.51139914 66.5664107757 c 0
 110.672393577 80.380786066 76.7878440769 144.929774646 76.7878440769 204.308354443 c 0
 76.7878440769 213.981913592 77.6871649779 223.518246283 79.4595614846 232.675628235 c 0
 92.1239207243 294.846119048 132.425351763 335.693479712 164.914669555 358.436002166 c 0
 173.608971231 364.956728423 181.764947508 369.573710631 182.6 370.2 c 0
 189.125596905 375.094197678 198.072717133 376.147448121 205.201833514 373.555042164 c 0
 224.739467112 366.450448128 246.973151765 362 271 362 c 0
 320.638787647 362 355.407068044 344.338333742 376.397711938 319.411944118 c 0
 395.339936818 296.681274262 402.620669067 268.800114507 402.620669067 241.965894594 c 0
 402.620669067 231.495541438 401.512209716 221.184580252 399.555526529 211.401164321 c 0
352.444473471 220.598835679 m 0
 353.811567663 227.434306643 354.497194504 234.360346887 354.497194504 241.152142682 c 0
 354.497194504 259.379498751 349.559025758 276.639970646 339.602288062 288.588055882 c 0
 328.592931956 301.661666258 309.361212353 314 271 314 c 0
 245.581443425 314 222.453229803 317.822839226 200.331919383 324.580866143 c 0
 199.292612597 323.91492377 196.172704973 321.87952873 193.085330445 319.563997834 c 0
 165.574648237 300.306520288 135.876079276 269.153880952 126.540438515 223.324371765 c 0
 125.269357744 216.757121115 124.636927948 210.055578932 124.636927948 203.360912974 c 0
 124.636927948 162.668168128 148.003148409 122.229477374 193.338459338 113.747794904 c 0
 199.347952945 112.623492114 205.882388195 112 213 112 c 0
 241.44112855 112 263.329000715 119.132716349 284.633078998 130.139142924 c 0
 323.009798516 151.756799257 345.72255703 185.308774368 352.444473471 220.598835679 c 0
144.406479755 382.597815848 m 0
 104.855027119 349.484971781 65.2991297491 297.119180419 50.5413601528 223.330332438 c 0
 47.6051665959 208.404681857 46.1747741284 193.545020204 46.1717500205 179.182624485 c 0
 46.1717500205 87.1652109455 102.201518911 16 194 16 c 0
 245.285858912 16 293.267162575 34.0161876121 332.326733544 63.9921374255 c 0
 381.556048558 102.281604659 417.624965926 160.590972058 429.459202592 220.672481287 c 0
 432.368814404 235.220540346 433.801423279 249.641932485 433.801423279 263.648739483 c 0
 433.801423279 302.277378436 422.905396519 337.752797503 402.044527357 364.035789401 c 0
 397.438787822 368.888666179 396.075160633 370.98371387 395.029437252 372.029437252 c 0
 390.321344487 376.737530016 388.39890766 382.729711199 388.39890766 388.54117207 c 0
 388.39890766 395.409391716 391.08406533 402.025190827 395.029437252 405.970562748 c 0
 400.040080751 410.981206247 404.409210844 415.380251457 408.56268929 420.364425592 c 0
 408.84782391 420.706587136 409.265285919 421.173711166 409.491107101 421.414587093 c 0
 438.149435011 451.983470197 470.8151375 495.452155824 481.466063783 548.706787243 c 0
 483.951089096 561.131913809 485.1100964 573.118660925 485.1100964 584.517004723 c 0
 485.1100964 605.867667957 481.04355302 625.153833741 474.008089172 641.389519544 c 0
 452.228163328 690.81319742 404.952619552 720 344 720 c 0
 268.649379915 720 192.442822204 678.448990288 150.849913823 606.113497452 c 0
 139.025845977 585.193992801 129.961920208 562.315243052 125.583740298 539.548707518 c 0
 123.228058418 526.828025367 122.138529138 514.238777495 122.138529138 502.302774745 c 0
 122.138529138 491.667745284 123.00349403 481.551319689 124.60848787 472.322605108 c 0
 128.985310522 449.563127318 136.785114034 430.893083712 148.321340096 415.236776913 c 0
 151.416942172 411.035602668 152.789883643 406.174100636 152.789883643 401.388528988 c 0
 152.789883643 394.069342916 149.578368648 386.92776934 144.406479755 382.597815848 c 0
97.822854769 405.284559372 m 1
 88.7892831094 421.726170492 81.5186019542 442.216527807 77.3915121303 463.677394892 c 0
 75.2192845387 476.167703543 74.0905755513 489.105566584 74.0905755513 502.44112851 c 0
 74.0905755513 517.306679808 75.4931353352 532.6664209 78.4162597021 548.451292482 c 0
 84.0380797918 577.684756948 94.9741540234 604.806007199 109.150086177 629.886502548 c 0
 159.557177796 717.551009712 251.350620085 768 344 768 c 0
 421.047380448 768 487.771836672 729.18680258 517.991910828 660.610480456 c 0
 527.894560654 637.758211628 533.127309273 612.013242325 533.127309273 584.601740226 c 0
 533.127309273 569.914469506 531.625044781 554.748755577 528.533936217 539.293212757 c 0
 515.141591096 472.331487153 477.461237467 423.849707759 444.05895667 388.102876909 c 1
 469.817466175 352.641592695 481.818701016 308.91148391 481.818701016 263.822729943 c 0
 481.818701016 246.382864194 480.023240986 228.739736602 476.533936217 211.293212757 c 0
 462.38178105 139.443809603 420.435123542 71.7115291964 361.673266456 26.0078625745 c 0
 314.732837425 -10.0161876121 256.714141088 -32 194 -32 c 0
 71.3497051906 -32 -1.82824836886 67.316913755 -1.82824836886 179.190271002 c 0
 -1.82824836886 196.746999671 -0.09069911208 214.627194519 3.45133304421 232.632524647 c 0
 18.7457669643 309.104694248 56.7874591378 366.001551001 97.822854769 405.284559372 c 1
EndSplineSet
EndChar

StartChar: nine
Encoding: 57 57 25
Width: 537
Flags: HW
LayerCount: 2
Back
SplineSet
72.2783203125 112 m 0
 72.2783203125 112 96.3564453125 40 185.95703125 40 c 0
 249.95703125 40 392.173828125 111.47265625 443.200195312 368 c 0
 496.154296875 634.217773438 385.24609375 696 316.443359375 696 c 0
 211.780273438 696 134.986328125 604.217773438 117.041015625 514 c 0
 97.9453125 418 154.438476562 332 250.438476562 332 c 0
 346.12890625 332 424.168945312 395.8203125 451.256835938 532 c 1024
EndSplineSet
Fore
SplineSet
10.4486314772 116.619625712 m 0
 17.0004830507 150.689253894 45.336236788 184 82 184 c 0
 106.379343746 184 125.017872833 166.654350574 131.616461851 147.083110177 c 0
 133.657773594 143.365006646 138.671179055 135.699573462 146.304810105 128.611201773 c 0
 155.023755546 120.562944443 169.76653356 112 196 112 c 0
 211.007669731 112 253.487617451 124.004027241 293.793100894 171.6377804 c 0
 316.549139861 197.740295686 340.464384587 236.774674218 358.796295689 289.310147691 c 1
 320.950565562 268.783688323 280.682894249 260 241 260 c 0
 154.59119334 260 88.199653529 312.63469452 62.3157649348 389.160973842 c 0
 54.1555888973 412.281472615 50.1889132633 437.786231015 50.1889132633 464.333528978 c 0
 50.1889132633 482.100861343 51.9656803187 500.335171632 55.4512164223 518.634236176 c 0
 69.5052947561 587.823544896 106.742889443 657.298235127 163.4390388 705.271899968 c 0
 208.965144733 744.294276482 264.716199967 768 326 768 c 0
 370.180088913 768 424.673052794 750.327429432 465.789214411 698.932227411 c 0
 500.446267748 655.033293184 520.770063095 591.421457109 520.770063095 505.476851271 c 0
 520.770063095 463.538398947 515.930653695 416.282169403 505.555774209 363.403751374 c 0
 480.84040431 236.737480645 432.135978046 143.799006072 377.251737128 79.4155696115 c 0
 308.518496769 -0.949449885745 231.689593731 -32 176 -32 c 0
 52.1963666944 -32 14.6139299684 70.334279579 12.8861738087 75.4656525401 c 0
 9.46470398915 85.4058160928 8.23970134097 92.6422244714 8.23970134097 99.2268506862 c 0
 8.23970134097 105.060398432 9.20118141384 110.382375395 10.4486314772 116.619625712 c 0
57.5513685228 107.380374288 m 0
 56.0195013152 99.7210382497 56.436992606 96.1867163464 57.6279016445 93.0109589105 c 0
 59.0242671376 88.8218624313 83.9067353802 16 176 16 c 0
 214.315251117 16 279.469426529 38.9353294337 340.760911932 110.599220058 c 0
 389.850178074 168.184705341 435.161192449 253.270702748 458.444225791 372.596248626 c 0
 468.331075057 422.987286821 472.648528085 466.834183378 472.648528085 504.736560183 c 0
 472.648528085 583.237490329 454.12838503 636.238813297 428.210785589 669.067772589 c 0
 397.326947206 707.672570568 357.819911087 720 326 720 c 0
 277.283800033 720 233.034855267 701.705723518 194.5609612 668.728100032 c 0
 147.257110557 628.701764873 114.494705244 568.176455104 102.548783578 509.365763824 c 0
 99.6346293682 494.066454225 98.2110218019 479.021217296 98.2110218019 464.595453204 c 0
 98.2110218019 442.852268617 101.445162738 422.516397751 107.684235065 404.839026158 c 0
 127.800346471 345.36530548 175.40880666 308 241 308 c 0
 284.181359327 308 325.607712815 319.870450511 364.741644415 350.53125099 c 0
 370.912529101 355.821705153 378.06216622 362.003291717 384.029437252 367.970562748 c 0
 388.884058288 372.825183785 396.788297759 375.823085018 404.325655782 374.768466792 c 0
 416.277433325 373.096188203 424.985530461 362.504898029 424.985530461 350.861252606 c 0
 424.985530461 349.194636043 424.807121481 347.506459129 424.434279041 345.819790949 c 0
 402.744039107 247.69727696 366.943893551 182.501713228 330.206899106 140.3622196 c 0
 282.512382549 83.9959727589 228.992330269 64 196 64 c 0
 158.245970628 64 130.949448396 77.4617903797 113.721277534 93.3647173289 c 0
 96.2101118329 109.62508548 90.0757538897 119.597911769 85.582276186 133.303018765 c 0
 84.7946724631 135.44545524 83.9372466284 136 82 136 c 0
 76.663763212 136 60.9995169493 125.310746106 57.5513685228 107.380374288 c 0
389.35548995 536.152536765 m 1
 383.655978497 564.133190578 373.774401394 583.295146356 364.284008906 594.975629418 c 0
 346.229657008 617.739812246 323.989136202 624 307 624 c 0
 275.03800341 624 248.858143189 612.485437852 228.761310259 594.900709038 c 0
 202.905508255 572.492347301 184.4548212 539.741680542 178.586700459 509.562773874 c 0
 177.287148074 502.415235756 176.622402537 495.587685228 176.622402537 488.969971626 c 0
 176.622402537 478.491021354 178.28917015 468.538211345 181.741572626 458.674204269 c 0
 191.90963724 427.387851612 218.412275297 404 260 404 c 0
 292.137773352 404 315.381041598 413.357314565 334.009606455 427.743428667 c 0
 356.483602487 446.245517419 377.186273408 476.376129719 389.35548995 536.152536765 c 1
438 534.319902792 m 0
 423.178725957 462.783790666 395.813503307 416.185980886 363.977222203 390.245307394 c 0
 336.489234376 368.732969094 301.963874466 356 260 356 c 0
 197.587724703 356 152.09036276 394.612148388 136.258427374 443.325795731 c 0
 131.102701283 458.056441706 128.698397147 473.456681348 128.698397147 489.082182677 c 0
 128.698397147 498.815589242 129.631331772 508.636403396 131.413299541 518.437226126 c 0
 139.5451788 560.258319458 163.094491745 601.507652699 197.238689741 631.099290962 c 0
 225.141856811 655.514562148 262.96199659 672 307 672 c 0
 336.010863798 672 373.770342992 660.260187754 401.715991094 625.024370582 c 0
 417.631955589 605.435491204 431.048622511 576.492551115 437.634805412 539.170848014 c 0
 437.814476768 538.152710329 438 535.884334919 438 534.319902792 c 0
EndSplineSet
EndChar

StartChar: colon
Encoding: 58 58 26
Width: 230
Flags: HW
LayerCount: 2
Back
SplineSet
150.877929688 456 m 0
 145.024414062 443.068359375 132.176757812 432 121.530273438 432 c 0
 115.130859375 432 110.321289062 440 111.913085938 448 c 0
 112.448242188 450.692382812 113.346679688 453.383789062 114.530273438 456 c 1024
114.530273438 456 m 0
 120.383789062 468.931640625 133.232421875 480 143.877929688 480 c 0
 150.278320312 480 155.086914062 472 153.49609375 464 c 0
 152.959960938 461.307617188 152.0625 458.616210938 150.877929688 456 c 1024
74.49609375 72 m 0
 68.642578125 59.068359375 55.7939453125 48 45.1474609375 48 c 0
 38.748046875 48 33.939453125 56 35.5302734375 64 c 0
 36.06640625 66.6923828125 36.9638671875 69.3837890625 38.1484375 72 c 1024
38.1484375 72 m 0
 44.001953125 84.931640625 56.849609375 96 67.4951171875 96 c 0
 73.8955078125 96 78.705078125 88 77.11328125 80 c 0
 76.578125 77.3076171875 75.6806640625 74.6162109375 74.49609375 72 c 1024
EndSplineSet
Fore
SplineSet
-19.2058186577 93.2311135648 m 0
 -18.2593451038 96.1810961599 -18.4684520327 95.4840108066 -18.1192490033 96.3133680014 c 0
 -8.12329594877 120.053756506 8.27046043199 137.54401551 24.9668250317 149.469990224 c 0
 38.278456073 159.151176436 56.0429971879 168 77 168 c 0
 106.792206144 168 124.45082317 147.763985121 132.466252584 131.733126292 c 0
 137.255692072 122.154247317 141.368395434 108.538083159 141.368395434 93.013871256 c 0
 141.368395434 87.4389354058 140.83801437 81.6179345454 139.618126678 75.6494773288 c 0
 137.677429338 64.1982498078 135.006426773 58.7853433117 131.175457808 50.6742572947 c 0
 130.292742088 47.9229960493 130.449278684 48.4704524896 130.119249003 47.6866319986 c 0
 120.411647488 24.6310783998 105.238087424 6.81923295898 88.0331749683 -5.46999022393 c 0
 74.721543927 -15.1511764358 56.9570028121 -24 36 -24 c 0
 12.0272183358 -24 -4.4207698069 -9.70776054893 -12.9369423677 1.24417746585 c 0
 -23.1648486864 14.519245515 -28.3378335882 30.4410011338 -28.3378335882 48.9747578517 c 0
 -28.3378335882 55.0414942778 -27.7835595346 61.3881009268 -26.6708705668 68.0133612341 c 0
 -25.1362191263 77.8186083259 -22.8346332832 85.2471356235 -19.2058186577 93.2311135648 c 0
26.5491504646 78.6916519019 m 0
 24.6827663365 73.2333576071 25.5414927971 75.4173541342 24.466252584 73.266873708 c 0
 22.7744601593 69.8832888586 21.5231827371 65.9566516746 20.6943658899 60.1549337442 c 0
 17.5249779581 42.7233001195 21.3438966331 35.2388746332 24.9750549048 30.6999267936 c 0
 28.6187903823 25.8416128235 31.8115615917 24 36 24 c 0
 43.0429971879 24 51.278456073 27.1511764358 59.9668250317 33.4699902239 c 0
 70.6105513632 41.0726518893 78.6576328221 50.0134615458 85.4443248989 65.28926661 c 0
 87.3250061125 70.7893731446 86.4534822527 68.5725959654 87.533747416 70.733126292 c 0
 90.0709319643 75.8074953887 91.8645963633 80.7578020278 92.2412121521 83.3941125497 c 0
 92.30285268 83.8255962448 92.4443871178 84.6342755174 92.5715105556 85.2063309876 c 0
 95.2124249998 97.0904459866 93.0073923955 103.319583749 89.533747416 110.266873708 c 0
 85.5491768304 118.236014879 83.2077938558 120 77 120 c 0
 69.9570028121 120 61.721543927 116.848823564 53.0331749683 110.530009776 c 0
 41.9261412744 102.59641428 33.0528189542 93.2251300008 26.5491504646 78.6916519019 c 0
57.7941813423 477.231113565 m 0
 58.7406548962 480.18109616 58.5315479673 479.484010807 58.8807509967 480.313368001 c 0
 68.588352512 503.3689216 83.7619125756 521.180767041 100.966825032 533.469990224 c 0
 114.278456073 543.151176436 132.042997188 552 153 552 c 0
 182.350947073 552 200.983042289 532.699546882 209.466252584 515.733126292 c 0
 214.397312792 505.871005876 217.596321585 493.033756611 217.596321585 478.898269771 c 0
 217.596321585 472.687393614 216.978732472 466.225884387 215.619118889 459.655985189 c 0
 214.200466773 450.591884922 211.754876881 442.577387418 208.205818658 434.768886435 c 0
 207.259345104 431.81890384 207.468452033 432.515989193 207.119249003 431.686631999 c 0
 197.123295949 407.946243494 180.729539568 390.45598449 164.033174968 378.530009776 c 0
 150.721543927 368.848823564 132.957002812 360 112 360 c 0
 82.2077938558 360 64.5491768304 380.236014879 56.533747416 396.266873708 c 0
 51.6026872079 406.128994124 48.4036784146 418.966243389 48.4036784146 433.101730229 c 0
 48.4036784146 439.312606386 49.0212675282 445.774115613 50.380881111 452.344014811 c 0
 51.7995332267 461.408115078 54.2451231188 469.422612582 57.7941813423 477.231113565 c 0
103.555675101 462.71073339 m 0
 101.674993887 457.210626855 102.546517747 459.427404035 101.466252584 457.266873708 c 0
 99.8867069772 454.107782494 98.4446656309 449.407031931 97.7587878479 444.60588745 c 0
 97.69714732 444.174403755 97.5556128822 443.365724483 97.4284894444 442.793669012 c 0
 94.562541763 429.896904446 96.6034943106 423.458642839 99.466252584 417.733126292 c 0
 103.45082317 409.763985121 105.792206144 408 112 408 c 0
 119.042997188 408 127.278456073 411.151176436 135.966825032 417.469990224 c 0
 147.073858726 425.40358572 155.947181046 434.774869999 162.450849535 449.308348098 c 0
 164.317233663 454.766642393 163.458507203 452.582645866 164.533747416 454.733126292 c 0
 166.113293023 457.892217506 167.555334369 462.592968069 168.241212152 467.39411255 c 0
 168.30285268 467.825596245 168.444387118 468.634275517 168.571510556 469.206330988 c 0
 171.437458237 482.103095554 169.396505689 488.541357161 166.533747416 494.266873708 c 0
 163.016957711 501.300453118 159.649052927 504 153 504 c 0
 145.957002812 504 137.721543927 500.848823564 129.033174968 494.530009776 c 0
 118.389448637 486.927348111 110.342367178 477.986538454 103.555675101 462.71073339 c 0
EndSplineSet
EndChar

StartChar: semicolon
Encoding: 59 59 27
Width: 236
Flags: HW
LayerCount: 2
Back
SplineSet
67.4951171875 96 m 0
 73.8955078125 96 78.705078125 88.0009765625 77.11328125 79.9990234375 c 0
 73.9306640625 64 57.947265625 48 45.1474609375 48 c 0
 38.748046875 48 33.939453125 56 35.5302734375 64 c 0
 38.712890625 80 54.6953125 96 67.4951171875 96 c 0
 73.8955078125 96 85.1044921875 88 80.330078125 64 c 0
 72.3740234375 24 29.2607421875 -56 29.2607421875 -56 c 1024
150.877929688 456 m 0
 145.024414062 443.068359375 132.176757812 432 121.530273438 432 c 0
 115.130859375 432 110.321289062 440 111.913085938 448 c 0
 112.448242188 450.692382812 113.346679688 453.383789062 114.530273438 456 c 1024
114.530273438 456 m 0
 120.383789062 468.931640625 133.232421875 480 143.877929688 480 c 0
 150.278320312 480 155.086914062 472 153.49609375 464 c 0
 152.959960938 461.307617188 152.0625 458.616210938 150.877929688 456 c 1024
EndSplineSet
Fore
SplineSet
57.7941813423 477.231113565 m 0
 58.7406548962 480.18109616 58.5315479673 479.484010807 58.8807509967 480.313368001 c 0
 68.588352512 503.3689216 83.7619125756 521.180767041 100.966825032 533.469990224 c 0
 114.278456073 543.151176436 132.042997188 552 153 552 c 0
 182.350947073 552 200.983042289 532.699546882 209.466252584 515.733126292 c 0
 214.397312792 505.871005876 217.596321585 493.033756611 217.596321585 478.898269771 c 0
 217.596321585 472.687393614 216.978732472 466.225884387 215.619118889 459.655985189 c 0
 214.200466773 450.591884922 211.754876881 442.577387418 208.205818658 434.768886435 c 0
 207.259345104 431.81890384 207.468452033 432.515989193 207.119249003 431.686631999 c 0
 197.123295949 407.946243494 180.729539568 390.45598449 164.033174968 378.530009776 c 0
 150.721543927 368.848823564 132.957002812 360 112 360 c 0
 82.2077938558 360 64.5491768304 380.236014879 56.533747416 396.266873708 c 0
 51.6026872079 406.128994124 48.4036784146 418.966243389 48.4036784146 433.101730229 c 0
 48.4036784146 439.312606386 49.0212675282 445.774115613 50.380881111 452.344014811 c 0
 51.7995332267 461.408115078 54.2451231188 469.422612582 57.7941813423 477.231113565 c 0
103.555675101 462.71073339 m 0
 101.674993887 457.210626855 102.546517747 459.427404035 101.466252584 457.266873708 c 0
 99.8867069772 454.107782494 98.4446656309 449.407031931 97.7587878479 444.60588745 c 0
 97.69714732 444.174403755 97.5556128822 443.365724483 97.4284894444 442.793669012 c 0
 94.562541763 429.896904446 96.6034943106 423.458642839 99.466252584 417.733126292 c 0
 103.45082317 409.763985121 105.792206144 408 112 408 c 0
 119.042997188 408 127.278456073 411.151176436 135.966825032 417.469990224 c 0
 147.073858726 425.40358572 155.947181046 434.774869999 162.450849535 449.308348098 c 0
 164.317233663 454.766642393 163.458507203 452.582645866 164.533747416 454.733126292 c 0
 166.113293023 457.892217506 167.555334369 462.592968069 168.241212152 467.39411255 c 0
 168.30285268 467.825596245 168.444387118 468.634275517 168.571510556 469.206330988 c 0
 171.437458237 482.103095554 169.396505689 488.541357161 166.533747416 494.266873708 c 0
 163.016957711 501.300453118 159.649052927 504 153 504 c 0
 145.957002812 504 137.721543927 500.848823564 129.033174968 494.530009776 c 0
 118.389448637 486.927348111 110.342367178 477.986538454 103.555675101 462.71073339 c 0
95.5574025055 69.1443619834 m 0
 96.8326921721 75.6845916378 97.3799870327 81.4652301717 97.3799870327 86.5545595127 c 0
 97.3799870327 105.485979632 89.8070099125 114.851681016 83.9619762128 118.166245699 c 0
 80.1630025201 119.656551966 78.9847454046 120 77 120 c 0
 68.4537865563 120 57.7711977478 115.065956743 47.9709601231 106.082405587 c 0
 35.4899700534 95.2655475269 24.4823826432 80.601376183 20.5210628921 59.2102495267 c 0
 17.5659783581 45.9123691241 19.2847780162 40.5149563782 22.193954087 34.2864828043 c 0
 25.3937280506 28.7419868754 28.733126292 25.466252584 28.733126292 25.466252584 c 1
 36.2028722255 21.7313796173 41.8715207341 12.8657306222 41.8715207341 3.46115690946 c 0
 41.8715207341 0.1899164376 41.1856753175 -3.14652812074 39.6512213193 -6.3549319353 c 0
 28.5588803585 -29.5480084896 19.5033958997 -47.6587950685 19.4689238446 -47.7277821078 c 0
 16.4028499232 -53.8599299507 15.0709746579 -57.2088048796 14.7587878479 -59.3941125497 c 0
 14.7204202521 -59.6626857201 14.6373701367 -60.1724173201 14.5681547275 -60.5323374476 c 0
 11.0460094955 -78.8474926541 19.9583944433 -80 20 -80 c 0
 23.7930737261 -80 32.9488934483 -75.8001380217 39.1885643034 -64.8645718852 c 0
 41.8158538721 -58.8849706788 54.3058308457 -35.5118842072 67.0317662148 -7.33302731865 c 0
 72.9724205752 6.52849952235 79.6762409306 20.9140191662 85.4573589086 35.266751302 c 0
 88.9715452711 45.811744458 92.6468285945 56.7960523819 95.5574025055 69.1443619834 c 0
-33.3326535636 -55.7682827747 m 0
 -31.0815482565 -42.7655594422 -26.2658014779 -31.8659731587 -23.4689238446 -26.2722178922 c 2
 -23.4689238446 -26.2722178922 -18.2332646989 -15.7750909262 -11.4220536687 -1.76446512824 c 1
 -15.386370442 3.31810471719 -17.7570694811 7.45132510215 -19.837835411 11.0926654794 c 0
 -20.0477568616 11.4600280181 -20.3260437028 11.9864559457 -20.466252584 12.266873708 c 0
 -25.41572919 22.16582692 -28.6394928486 34.398821554 -28.6394928486 48.52378714 c 0
 -28.6394928486 54.9838061993 -27.9651884431 61.8395628136 -26.4732731888 69.0487676622 c 0
 -19.716462877 103.37879914 -1.45106684852 126.541271423 15.9375885036 141.838815167 c 0
 32.0079439493 156.279688115 51.6209086201 168 77 168 c 0
 88.7579797559 168 98.0362752809 164.234280962 102.913376232 162.283440581 c 0
 103.502871181 162.047642602 104.31017478 161.67772834 104.733126292 161.466252584 c 0
 130.875725628 148.394952916 145.274724539 119.984787325 145.274724539 85.8327677108 c 0
 145.274724539 77.1689986722 144.348079833 68.135713762 142.451439221 58.8895907778 c 0
 138.97315194 43.8170125586 134.825564518 31.5820297114 130.768399153 19.4105336156 c 0
 130.626723947 18.9855079958 130.406793494 18.3950060502 130.283440581 18.0866237675 c 0
 123.891012261 2.10555296697 116.970192644 -12.6624020109 110.968233785 -26.6669726814 c 0
 98.4762985575 -54.3276863999 86.1714102373 -77.8728348255 83.4521841082 -83.4851068654 c 0
 82.889423528 -84.9175432562 82.6168775325 -85.4624777142 82.2109099923 -86.2293052901 c 0
 70.3315316144 -108.668131115 48.0524428408 -128 20 -128 c 0
 -17.6091429021 -128 -34.147619276 -92.5419868494 -34.147619276 -65.6485216823 c 0
 -34.147619276 -62.1813086942 -33.8727266998 -58.8564504555 -33.3326535636 -55.7682827747 c 0
EndSplineSet
EndChar

StartChar: less
Encoding: 60 60 28
Width: 512
Flags: HW
LayerCount: 2
Back
SplineSet
385.834960938 152 m 1
 83.2001953125 368 l 1025
471.764648438 584 m 1
 83.2001953125 368 l 1025
EndSplineSet
Fore
SplineSet
447.528477771 147.26134238 m 0
 441.019047759 113.412306316 412.655719765 80 376 80 c 0
 364.386860988 80 354.59109124 84.2567761607 347.65210187 88.4201697829 c 0
 347.125356437 88.7362170425 346.409969152 89.2131321877 346.038057157 89.479135469 c 2
 47.6547058941 302.892393326 l 2
 45.5699814137 303.80289376 43.7604271232 304.952844619 42.8838792558 305.590333977 c 0
 26.6781651028 317.376307906 19.6563855522 336.159109867 19.6563855522 355.482359852 c 0
 19.6563855522 361.272834932 20.2869293231 367.111841318 21.4898348298 372.825642475 c 0
 26.8474564265 399.613750459 44.3683714525 422.714989495 66.004703966 433.347482614 c 2
 451.788633428 648.227132444 l 2
 460.608812997 652.637222229 469.356529638 656 481 656 c 0
 517.174240237 656 534.88129799 624.229006587 534.88129799 593.676962291 c 0
 534.88129799 588.795797354 534.429324648 583.94574614 533.528477771 579.26134238 c 0
 528.044543769 553.212655868 512.61707907 531.996304331 491.787497325 520.093686192 c 2
 213.885723111 365.505239442 l 1
 426.018046306 214.480992887 l 2
 442.348583491 202.604238571 449.39072873 184.07050476 449.39072873 164.775601964 c 0
 449.39072873 158.952823717 448.7494006 153.060725815 447.528477771 147.26134238 c 0
400.471522229 156.73865762 m 0
 403.233703151 169.859016999 398.723218752 174.979905252 397.981953694 175.519007113 c 2
 155.080743916 348.44867498 l 2
 154.09551913 349.150090156 150.574173704 352.362895892 149.006590772 354.72357023 c 0
 146.34589186 358.730403626 145.087164126 363.291338028 145.087164126 367.817164533 c 0
 145.087164126 376.272466175 149.480498004 384.605230824 157.333119548 388.973409368 c 2
 468.212502675 561.906313808 l 2
 475.386065613 566.00549263 483.534963017 575.780006973 486.47310133 588.736991349 c 0
 489.626135628 606.766213615 481.267644817 608 481 608 c 0
 480.323644187 608 478.422211641 607.799658627 474.173861102 605.751977204 c 2
 88.6784830593 391.033049019 l 2
 88.3239846322 390.835595232 87.6441406603 390.48255307 87.1492511679 390.25160464 c 0
 80.37473832 387.090165311 71.1948915094 376.597989221 68.5101651702 363.174357525 c 0
 66.5408724809 353.820217251 68.255793071 348.390093995 69.766486364 345.923955743 c 0
 70.2484245544 345.639243644 71.2684563518 345.016868114 71.9619428434 344.520864531 c 2
 373.077975048 129.153106398 l 2
 375.964543895 127.569378149 375.681099146 128 376 128 c 0
 381.344280235 128 396.980952241 138.587693684 400.471522229 156.73865762 c 0
EndSplineSet
EndChar

StartChar: equal
Encoding: 61 61 29
Width: 512
Flags: HW
AnchorPoint: "middle" 256 368 basechar 0
LayerCount: 2
Back
SplineSet
59.3310546875 248 m 1
 404.930664062 248 l 1025
107.069335938 488 m 1
 452.668945312 488 l 1025
EndSplineSet
Fore
SplineSet
98 416 m 2
 61.7867395597 416 44.0997038781 447.917064872 44.0997038781 478.313653986 c 0
 44.0997038781 483.135989107 44.5448679658 487.920055453 45.4318452725 492.532337448 c 0
 52.0148053489 526.763729845 80.3303383817 560 117 560 c 2
 462 560 l 2
 498.21326044 560 515.900296122 528.082935128 515.900296122 497.686346014 c 0
 515.900296122 492.864010893 515.455132034 488.079944547 514.568154728 483.467662552 c 0
 507.985194651 449.236270155 479.669661618 416 443 416 c 2
 98 416 l 2
98 464 m 2
 443 464 l 2
 448.330338382 464 464.014805349 474.763729845 467.431845272 492.532337448 c 0
 470.953990504 510.847492654 462.041605557 512 462 512 c 2
 117 512 l 2
 111.669661618 512 95.9851946511 501.236270155 92.5681547275 483.467662552 c 0
 89.0460094955 465.152507346 97.9583944433 464 98 464 c 2
50 176 m 2
 13.7867395597 176 -3.90029612191 207.917064872 -3.90029612191 238.313653986 c 0
 -3.90029612191 243.135989107 -3.45513203417 247.920055453 -2.56815472754 252.532337448 c 0
 4.0148053489 286.763729845 32.3303383817 320 69 320 c 2
 414 320 l 2
 450.21326044 320 467.900296122 288.082935128 467.900296122 257.686346014 c 0
 467.900296122 252.864010893 467.455132034 248.079944547 466.568154728 243.467662552 c 0
 459.985194651 209.236270155 431.669661618 176 395 176 c 2
 50 176 l 2
50 224 m 2
 395 224 l 2
 400.330338382 224 416.014805349 234.763729845 419.431845272 252.532337448 c 0
 422.953990504 270.847492654 414.041605557 272 414 272 c 2
 69 272 l 2
 63.6696616183 272 47.9851946511 261.236270155 44.5681547275 243.467662552 c 0
 41.0460094955 225.152507346 49.9583944433 224 50 224 c 2
EndSplineSet
EndChar

StartChar: greater
Encoding: 62 62 30
Width: 512
Flags: HW
LayerCount: 2
Back
SplineSet
40.2353515625 152 m 1
 428.799804688 368 l 1025
126.165039062 584 m 1
 428.799804688 368 l 1025
EndSplineSet
Fore
SplineSet
31 80 m 0
 -5.17424023731 80 -22.8812979896 111.770993413 -22.8812979896 142.323037709 c 0
 -22.8812979896 147.204202646 -22.4293246482 152.05425386 -21.5284777713 156.73865762 c 0
 -16.0445437688 182.787344132 -0.617079069782 204.003695669 20.2125026746 215.906313808 c 2
 298.114276889 370.494760558 l 1
 85.9819536937 521.519007113 l 2
 69.6451457954 533.400321948 62.6447622414 552.200687221 62.6447622414 571.458665344 c 0
 62.6447622414 577.235623615 63.2747018538 583.053760839 64.4715222287 588.73865762 c 0
 70.980952241 622.587693684 99.3442802354 656 136 656 c 0
 147.613139012 656 157.40890876 651.743223839 164.34789813 647.579830217 c 0
 164.874643563 647.263782957 165.590030848 646.786867812 165.961942843 646.520864531 c 2
 464.345294106 433.107606674 l 2
 466.430018586 432.19710624 468.239572877 431.047155381 469.116120744 430.409666023 c 0
 485.321834897 418.623692094 492.343614448 399.840890133 492.343614448 380.517640148 c 0
 492.343614448 374.727165068 491.713070677 368.888158682 490.51016517 363.174357525 c 0
 485.152543573 336.386249541 467.631628548 313.285010505 445.995296034 302.652517386 c 2
 60.2113665719 87.7728675559 l 2
 51.3911870029 83.3627777715 42.6434703618 80 31 80 c 0
31 128 m 0
 31.6763558131 128 33.5777883587 128.200341373 37.826138898 130.248022796 c 2
 423.321516941 344.966950981 l 2
 423.676015368 345.164404768 424.35585934 345.51744693 424.850748832 345.74839536 c 0
 431.62526168 348.909834689 440.805108491 359.402010779 443.48983483 372.825642475 c 0
 445.459127519 382.179782749 443.744206929 387.609906005 442.233513636 390.076044257 c 0
 441.751575446 390.360756356 440.731543648 390.983131886 440.038057157 391.479135469 c 2
 138.922024952 606.846893602 l 2
 136.035456105 608.430621851 136.318900854 608 136 608 c 0
 130.655719765 608 115.019047759 597.412306316 111.528477771 579.26134238 c 0
 108.714999908 565.89732253 113.255527417 561.035552079 114.018046306 560.480992887 c 2
 356.919256084 387.55132502 l 2
 357.90448087 386.849909844 361.425826296 383.637104108 362.993409228 381.27642977 c 0
 365.65410814 377.269596374 366.912835874 372.708661972 366.912835874 368.182835467 c 0
 366.912835874 359.727533825 362.519501996 351.394769176 354.666880452 347.026590632 c 2
 43.7874973254 174.093686192 l 2
 36.6139343866 169.99450737 28.465036983 160.219993027 25.5268986695 147.263008651 c 0
 22.3738643722 129.233786385 30.7323551829 128 31 128 c 0
EndSplineSet
EndChar

StartChar: question
Encoding: 63 63 31
Width: 512
Flags: HW
LayerCount: 2
Back
SplineSet
202.49609375 72 m 0
 196.642578125 59.068359375 183.793945312 48 173.147460938 48 c 0
 166.748046875 48 161.939453125 56 163.530273438 64 c 0
 164.06640625 66.6923828125 164.963867188 69.3837890625 166.1484375 72 c 1024
166.1484375 72 m 0
 172.001953125 84.931640625 184.849609375 96 195.495117188 96 c 0
 201.895507812 96 206.705078125 88 205.11328125 80 c 0
 204.578125 77.3076171875 203.680664062 74.6162109375 202.49609375 72 c 1024
123.016601562 536 m 0
 144.266601562 642.828125 222.237304688 696 308.443359375 696 c 0
 398.04296875 696 452.495117188 648 434.991210938 560 c 0
 421.11328125 490.232421875 386.881835938 459.178710938 331.138671875 424 c 0
 262.072265625 380.413085938 238.426757812 344 217.739257812 240 c 1024
EndSplineSet
Fore
SplineSet
108.794181342 93.2311135648 m 0
 109.740654896 96.1810961599 109.531547967 95.4840108066 109.880750997 96.3133680014 c 0
 119.876704051 120.053756506 136.270460432 137.54401551 152.966825032 149.469990224 c 0
 166.278456073 159.151176436 184.042997188 168 205 168 c 0
 228.972781664 168 245.420769807 153.707760549 253.936942368 142.755822534 c 0
 264.159282905 129.487978459 269.412503748 115.875900248 269.412503748 96.9181531623 c 0
 269.412503748 89.8193294626 268.675915154 81.9709544231 267.187821292 73.1104287203 c 0
 266.210402776 67.3430988138 262.375631026 57.4497964533 259.175457808 50.6742572947 c 0
 258.292742088 47.9229960493 258.449278684 48.4704524896 258.119249003 47.6866319986 c 0
 248.411647488 24.6310783998 233.238087424 6.81923295898 216.033174968 -5.46999022393 c 0
 202.721543927 -15.1511764358 184.957002812 -24 164 -24 c 0
 140.027218336 -24 123.579230193 -9.70776054893 115.063057632 1.24417746585 c 0
 104.835151314 14.519245515 99.6621664118 30.4410011338 99.6621664118 48.9747578517 c 0
 99.6621664118 55.0414942778 100.216440465 61.3881009268 101.329129433 68.0133612341 c 0
 102.863780874 77.8186083259 105.165366717 85.2471356235 108.794181342 93.2311135648 c 0
154.549150465 78.6916519019 m 0
 152.682766337 73.2333576071 153.541492797 75.4173541342 152.466252584 73.266873708 c 0
 150.774460159 69.8832888586 149.523182737 65.9566516746 148.69436589 60.1549337442 c 0
 145.524977958 42.7233001195 149.343896633 35.2388746332 152.975054905 30.6999267936 c 0
 156.618790382 25.8416128235 159.811561592 24 164 24 c 0
 171.042997188 24 179.278456073 27.1511764358 187.966825032 33.4699902239 c 0
 198.610551363 41.0726518893 206.657632822 50.0134615458 213.444324899 65.28926661 c 0
 215.325006113 70.7893731446 214.453482253 68.5725959654 215.533747416 70.733126292 c 0
 218.183178782 76.0319890245 219.786079257 80.2081822845 220.30563411 83.8450662558 c 0
 223.475022042 101.27669988 219.656103367 108.761125367 216.024945095 113.300073206 c 0
 212.381209618 118.158387176 209.188438408 120 205 120 c 0
 197.957002812 120 189.721543927 116.848823564 181.033174968 110.530009776 c 0
 169.926141274 102.59641428 161.052818954 93.2251300008 154.549150465 78.6916519019 c 0
184.551368523 531.380374288 m 0
 177.999516949 497.310746106 149.663763212 464 113 464 c 0
 76.4663028187 464 60.0778857 496.159330969 60.0778857 525.959166203 c 0
 60.0778857 530.957322077 60.5389153697 535.889101953 61.4432486111 540.591634808 c 0
 78.6330014038 627.614758321 124.155026544 689.204005768 176.532779911 724.865454869 c 0
 220.717458299 754.69011278 269.597402429 768 318 768 c 0
 391.679804546 768 451.825560816 740.141346131 482.132056206 684.377394614 c 0
 494.932820058 660.375962392 501.455806226 632.532622558 501.455806226 602.284196835 c 0
 501.455806226 587.108701603 499.813982039 571.327850468 496.499369756 555.123079309 c 0
 488.021798073 514.854613814 474.111031994 476.481375993 450.233027349 444.644036466 c 0
 421.643995301 406.158801016 387.501430855 382.136450889 354.61770599 361.584122848 c 0
 319.758576063 340.281321226 311.12247646 329.802519945 303.082030855 314.525673297 c 0
 296.16308166 302.225319171 288.34262863 278.356789359 279.541472421 235.328914558 c 0
 273.007960485 201.354652492 244.660285879 168 208 168 c 0
 171.803274785 168 154.107753517 199.85517345 154.107753517 230.31768823 c 0
 154.107753517 235.164912385 154.555794831 239.976875153 155.448631477 244.619625712 c 0
 167.715462738 305.953782018 183.48791941 357.733556229 215.35799846 402.791254196 c 0
 240.74266057 439.212725919 272.881568898 464.462972521 307.136854118 486.261790389 c 0
 336.564879318 504.899539682 351.911372518 517.767082806 358.530009776 527.033174968 c 0
 364.816061159 535.676495619 368.969176555 543.125493917 373.462436653 564.693142387 c 0
 374.633408956 570.840746976 375.138508708 575.795932533 375.138508708 579.913779312 c 0
 375.138508708 587.435094243 373.453413914 592.162911041 371.062902301 596.260930948 c 0
 363.182650243 610.89568477 339.385235715 624 299 624 c 0
 270.292112972 624 246.212800575 616.233759761 228.416808175 604.10012858 c 0
 216.335552277 596.045957981 207.170956028 585.889326611 200.040568951 573.454627197 c 0
 193.300524894 560.8239449 187.975026758 548.498665463 184.551368523 531.380374288 c 0
137.448631477 540.619625712 m 0
 142.05717672 563.662351927 150.002233779 581.769256081 157.973651421 596.573317417 c 0
 168.936633183 616.063062771 183.617485799 631.92273407 201.583191825 643.89987142 c 0
 227.787199425 661.766240239 261.707887028 672 299 672 c 0
 346.351867458 672 391.670667262 657.905063441 412.717084602 620.138500488 c 0
 419.705110023 607.681406875 422.962882438 594.186388885 422.962882438 579.193469613 c 0
 422.962882438 571.631939314 422.134238935 563.689404449 420.537563347 555.306857613 c 0
 415.030823445 528.874506083 407.183938841 512.323504381 397.469990224 498.966825032 c 0
 384.078962789 480.219386623 363.462960162 465.118091989 332.841249948 445.724342187 c 0
 301.138041752 425.549573335 275.252465445 404.780280972 254.64200154 375.208745804 c 0
 228.51208059 338.266443771 214.284537262 294.046217982 202.551368523 235.380374288 c 0
 199.055261858 217.200619632 207.956382356 216 208 216 c 0
 213.339714121 216 228.992039515 226.645347508 232.458527579 244.671085442 c 0
 241.64452752 289.580418487 249.209909435 316.318747629 260.905669462 337.452880817 c 0
 273.056214495 360.2026234 292.148369409 379.661812118 329.38229401 402.415877152 c 0
 360.498569145 421.863549111 388.356004699 441.841198984 411.766972651 473.355963534 c 0
 429.888968006 497.518624007 441.978201927 529.145386186 449.500630244 564.876920691 c 0
 452.185564403 578.003265471 453.433140231 590.444559197 453.433140231 602.08573932 c 0
 453.433140231 625.47112863 448.398573032 645.627675564 439.867943794 661.622605386 c 0
 420.174439184 697.858653869 380.320195454 720 318 720 c 0
 278.383513323 720 239.325657126 709.338990131 203.42734852 685.107631822 c 0
 161.884177425 656.822919588 123.364259925 606.371377153 108.556751389 531.408365192 c 0
 104.873247485 512.25414489 113 512 113 512 c 1
 118.336236788 512 134.000483051 522.689253894 137.448631477 540.619625712 c 0
EndSplineSet
EndChar

StartChar: at
Encoding: 64 64 32
Width: 704
Flags: HW
LayerCount: 2
Back
SplineSet
460.48828125 444.380859375 m 0
 454.474609375 504.428710938 424.245117188 545.881835938 379.665039062 545.881835938 c 0
 317.913085938 545.881835938 252.012695312 466.2421875 232.470703125 368 c 0
 212.928710938 269.7578125 247.147460938 190.118164062 308.899414062 190.118164062 c 0
 353.466796875 190.118164062 400.194335938 231.599609375 430.09765625 291.619140625 c 1024
403.4140625 70.470703125 m 0
 365.916992188 50.9169921875 326.270507812 40 286.756835938 40 c 0
 141.836914062 40 53.56640625 186.850585938 89.599609375 368 c 0
 125.6328125 549.149414062 272.323242188 696 417.243164062 696 c 0
 562.163085938 696 650.43359375 549.149414062 614.400390625 368 c 0
 605.848632812 325.0078125 595.6015625 282.721679688 571.549804688 246.32421875 c 0
 552.462890625 217.439453125 516.983398438 200 491.3828125 200 c 0
 452.581054688 200 418.783203125 231.52734375 426.833984375 272 c 2
 480.048828125 539.529296875 l 1025
EndSplineSet
Fore
SplineSet
396.631536666 433.534151656 m 1
 390.497054766 468.466204707 375.358835244 474 370 474 c 0
 365.246177305 474 359.742941517 472.523088305 348.63305826 463.977024261 c 0
 328.765976801 448.694653908 303.573193371 410.293863498 294.568154728 363.467662552 c 0
 292.064478122 350.448544204 291.014887468 338.353740544 291.014887468 327.419227921 c 0
 291.014887468 298.122110184 298.549672859 277.15447206 305.83905951 269.055153559 c 0
 312.10896241 262.088594781 313.715591607 262 318 262 c 0
 326.569128068 262 351.996281331 275.212002021 372.184216394 311.297550294 c 1
 396.631536666 433.534151656 l 1
444.769717489 436.316704766 m 0
 445.079014316 434.100077501 445.053850781 430.892785579 444.533936217 428.293212757 c 2
 418.533936217 298.293212757 l 2
 418.163436271 296.440713028 417.24932125 293.711609613 416.162831406 291.680345992 c 0
 391.250538753 245.105190161 355.288174694 214 318 214 c 0
 298.284408393 214 281.89103759 223.911405219 270.16094049 236.944846441 c 0
 251.816216179 257.327873454 242.669763301 288.538670642 242.669763301 324.864163497 c 0
 242.669763301 340.003050259 244.25837425 356.030288129 247.431845272 372.532337448 c 0
 258.426806629 429.706136502 287.234023199 477.305346092 319.36694174 502.022975739 c 0
 334.257058483 513.476911695 350.753822695 522 370 522 c 0
 410.551417365 522 438.038384673 484.557923281 444.769717489 436.316704766 c 0
413 95 m 0
 412.42704411 95 412.677063227 95.4479355607 407.080094386 92.708058144 c 0
 372.20561325 74.3688862326 334.279862601 64 296 64 c 0
 174.182774316 64 97.0108534154 169.270923322 97.0108534154 299.549878664 c 0
 97.0108534154 323.246872736 99.4404615158 347.578775905 104.466063783 372.706787243 c 0
 137.034297386 535.547955258 268.197426769 672 408 672 c 0
 464.623308689 672 513.503816863 648.534890616 548.111010921 609.415576555 c 0
 586.327688459 566.216171007 606.989168182 505.149352723 606.989168182 436.473414319 c 0
 606.989168182 412.839717024 604.532624991 388.286656627 599.555526529 363.401164321 c 0
 591.43931138 320.791034785 582.127873668 285.425195196 562.969207064 256.687195291 c 0
 556.619822945 247.163119112 550.378849897 243.491206154 541.634804949 237.245459762 c 0
 527.705907322 227.959528011 514.158757219 224 501 224 c 0
 487.218213167 224 475.117696848 228.433575236 465.092665479 234.162164589 c 0
 464.301271597 234.614389664 462.941665968 235.511670886 462.007318859 236.259148573 c 0
 453.172620627 243.326907158 448.518482525 251.455660906 447.030792936 253.687195291 c 0
 443.150474536 259.507672891 441.617282505 264.796138103 441.106522433 269.648358792 c 0
 440.899236172 272.569657978 440.983983785 274.269386591 441.455981727 276.656093166 c 2
 494.443750957 544.594247008 l 2
 496.22099746 553.835928824 493.993352431 560.384479586 492.453774668 562.566613058 c 0
 491.3427494 564.141334053 491.385120533 564 490 564 c 0
 486.93223293 564 479.934349248 561.245798998 474.2 553.6 c 0
 469.876711862 547.835615816 462.303971509 544.265336423 454.568198131 544.265336423 c 0
 448.914711449 544.265336423 443.174148289 546.172234467 438.551247224 550.523200175 c 0
 425.787698841 562.535951595 408.734930012 570 389 570 c 0
 366.174903222 570 342.020915356 559.94492283 317.820572416 541.122433876 c 0
 270.563650837 503.673552625 232.57249319 437.545729936 217.522414554 363.235966673 c 0
 213.287213163 342.324659803 211.313163889 322.300458508 211.313163889 303.559824825 c 0
 211.313163889 255.648850456 224.21523561 216.127069617 245.222158457 191.618992963 c 0
 259.451619498 175.017955081 276.426784752 166 299 166 c 0
 327.131979611 166 357.845209496 181.699990521 386.30988574 209.246451402 c 0
 390.347602641 213.153919372 396.705648689 215.555804424 403.256711405 215.555804424 c 0
 410.421902803 215.555804424 417.817995775 212.682482432 422.661566092 205.763096265 c 0
 428.23987348 197.794085711 433.891079027 192.250357519 440.455434626 187.874120453 c 0
 444.398549568 185.163228931 447.783433 183.313477422 451.697925909 181.633118923 c 0
 460.353739504 177.917472916 470.041109727 176 482 176 c 0
 498.963270003 176 517.224275364 181.226513 536.299044575 193.365002497 c 0
 551.854678321 202.871223121 567.177469466 216.463574809 580.131866163 235.463356631 c 0
 609.909657133 279.678864435 620.511842287 328.931735124 629.469666828 372.725543993 c 0
 635.424842018 402.937164468 638.243119484 431.961941112 638.243119484 459.466009675 c 0
 638.243119484 596.933125659 567.840712566 696.411963217 466.817203438 716.217930401 c 0
 454.163180581 718.698790189 440.88947821 720 427 720 c 0
 276.774605657 720 113.974396421 563.380923223 74.5469078545 363.358542202 c 0
 68.5836626162 333.105980993 65.7617269073 304.04766567 65.7617269073 276.516614966 c 0
 65.7617269073 138.998539157 136.169582385 39.5860184265 237.182796562 19.7820695991 c 0
 249.836819419 17.3012098109 263.11052179 16 277 16 c 0
 317.270746584 16 359.996759727 27.8640940201 399.88642379 48.2727593545 c 0
 406.994571431 52.0637714299 415.461180825 62.4150413531 418.473434215 75.7388947997 c 0
 420.893681811 89.5780026989 414.916133172 94.5415797292 414.37659517 94.769857165 c 0
 414.093994983 94.8894247317 413.772604853 95 413 95 c 0
471.962476711 609.100740516 m 1
 453.277550153 618.661333837 431.956381955 624 408 624 c 0
 299.802573231 624 180.965702614 510.452044742 151.533936217 363.293212757 c 0
 147.098590171 341.116482529 145.010810101 319.912712341 145.010810101 299.503178525 c 0
 145.010810101 186.304070533 207.630983278 112 296 112 c 0
 325.860793692 112 355.570512041 119.69834092 385.001898624 135.333765042 c 0
 392.273904163 138.969767812 401.181506423 143 413 143 c 0
 416.47812707 143 420.203165293 142.608921569 423.705940672 141.906270331 c 1
 420.28786071 143.795331984 416.297525968 146.233219138 413.544565374 148.125879547 c 0
 409.611477453 150.747938161 403.181071008 155.980099608 400.834851502 158.125214585 c 0
 371.096426854 134.398463712 336.627782946 118 299 118 c 0
 261.573215248 118 230.548380502 134.982044919 208.777841543 160.381007037 c 0
 178.269091656 195.974548572 163.180818118 246.291268081 163.180818118 302.56417228 c 0
 163.180818118 325.191117494 165.620272722 348.781051755 170.477585446 372.764033327 c 0
 187.42750681 456.454270064 229.436349163 532.326447375 288.179427584 578.877566124 c 0
 317.979084644 602.05507717 351.825096778 618 389 618 c 0
 412.890094458 618 435.858503866 610.465457583 453.256706824 599.570785683 c 1
 459.077025208 603.713462022 465.115841382 606.859482286 471.962476711 609.100740516 c 1
540.816592685 531.665603863 m 1
 490.183606959 275.63465717 l 2
 490.857156339 274.817316349 490.809956963 274.890482009 490.896040683 274.791738919 c 0
 495.679457488 272.59933955 499.026195562 272 501 272 c 0
 501.931024781 272 510.153527713 274.085149716 514.412122828 276.787047801 c 0
 519.706685192 280.624021179 522.600168329 283.174130821 523.550451232 284.099103525 c 0
 536.463757424 304.045339683 544.674700072 331.807525337 552.444473471 372.598835679 c 0
 556.85441858 394.648561227 558.92261196 415.917476521 558.92261196 436.0936569 c 0
 558.92261196 471.99714054 552.373439628 504.440353325 540.816592685 531.665603863 c 1
442.193958823 133.970502114 m 1
 459.082467866 121.760108569 467.002992926 102.006461329 467.002992926 81.6056477743 c 0
 467.002992926 76.4953567012 466.505999924 71.3444575717 465.528477771 66.2613423802 c 0
 460.118174079 40.5623998425 445.000904734 17.9338158583 422.11357621 5.72724064549 c 0
 376.003240273 -17.8640940201 326.729253416 -32 277 -32 c 0
 260.108021257 -32 243.717761521 -30.4129154379 227.948053689 -27.3212161045 c 0
 96.9382733578 -1.63634896389 17.9878361043 123.297443634 17.9878361043 277.96122379 c 0
 17.9878361043 308.53835218 21.0736568327 340.277493284 27.4530921455 372.641457798 c 0
 70.0256035789 588.619076777 245.225394343 768 427 768 c 0
 443.891978743 768 460.282238479 766.412915438 476.051946311 763.321216105 c 0
 607.049722023 737.638702506 686.007231738 612.773705464 686.007231738 458.05621643 c 0
 686.007231738 427.451517347 682.917712862 395.678723705 676.530333172 363.274456007 c 0
 667.488157713 319.068264876 656.090342867 262.321135565 619.868133837 208.536643369 c 0
 602.822530534 183.536425191 582.145321679 165.128776879 561.700955425 152.634997503 c 0
 536.775724636 136.773487 509.036729997 128 482 128 c 0
 468.55219782 128 454.913478125 129.93895105 442.193958823 133.970502114 c 1
EndSplineSet
EndChar

StartChar: A
Encoding: 65 65 33
Width: 550
Flags: HW
HStem: -0 21G<66.2082 85.2224 465.178 484.192> 144 96<170.213 380.187> 716 20G<252.758 305.763>
LayerCount: 2
Back
SplineSet
83.3916015625 192 m 5
 396.991210938 192 l 1029
13.1474609375 48 m 1
 316.452148438 688 l 1
 361.251953125 688 l 1
 409.947265625 48 l 1025
EndSplineSet
Fore
SplineSet
182.929517416 264 m 1
 329.108950543 264 l 1
 308.92226692 529.907349784 l 1
 182.929517416 264 l 1
145 216 m 2
 143.908337523 216 139.082928706 216.571692592 136.456785185 217.572037974 c 0
 126.912320493 221.207696536 121.057422146 230.552434874 121.057422146 240.219092095 c 0
 121.057422146 243.609438368 121.777624996 247.039383433 123.311448083 250.276512819 c 2
 304.311448083 632.276512819 l 2
 307.4311565 638.860648817 314.368876084 644.479430842 322.311271025 645.714832459 c 0
 323.516625563 645.902319603 324.716602636 645.992990422 325.903450967 645.992990422 c 0
 338.138979909 645.992990422 348.979174797 636.356417935 349.931138221 623.816761802 c 2
 378.931138221 241.816761802 l 2
 379.96609281 228.183911699 368.825598976 216 355 216 c 2
 145 216 l 2
4 -24 m 0
 -32.1967252145 -24 -49.8922464826 7.85517345047 -49.8922464826 38.3176882296 c 0
 -49.8922464826 43.1649123849 -49.4442051687 47.9768751533 -48.5513685228 52.6196257122 c 0
 -47.0472220111 60.1403582706 -44.7208859759 66.8197627459 -42.2834405812 72.9133762325 c 0
 -42.1087825824 73.3500212296 -41.8410346114 73.9544399278 -41.6917781046 74.2697011964 c 2
 261.310291867 714.274072274 l 2
 273.34026823 739.67068904 297.624305127 760 326 760 c 2
 371 760 l 2
 401.413947187 760 423.428700688 734.485829096 424.95277722 705.528374985 c 2
 472.932783437 65.7949587578 l 2
 472.975514214 65.2252150676 473 64.4247911843 473 64 c 0
 473 58.9826699983 473.204669558 51.6468794663 471.551368523 43.3803742878 c 0
 464.999516949 9.31074610573 436.663763212 -24 400 -24 c 0
 367.76601911 -24 348.473484231 3.3726574437 347.050581813 30.4078033801 c 2
 339.85120887 120 l 1
 114.194405005 120 l 1
 67.6897081334 21.7259277263 l 2
 56.2004255529 -2.5292243883 33.7531809369 -24 4 -24 c 0
4 24 m 0
 8.24681906311 24 17.7995744471 28.5292243883 24.3102918666 42.2740722737 c 2
 77.3063494833 154.265745334 l 2
 81.2131778446 162.521684512 89.7987290426 168 99 168 c 2
 362 168 l 2
 374.165971631 168 384.926698618 158.319373472 385.922886014 145.922374769 c 2
 394.949418187 33.5921966199 l 2
 395.526515769 22.6273425563 398.23398089 24 400 24 c 0
 405.336236788 24 421.000483051 34.6892538943 424.448631477 52.6196257122 c 0
 424.775826197 54.255599309 424.996204198 58.4077538673 424.999789175 63.1040730802 c 2
 377.04722278 702.471625015 l 2
 376.571299312 711.514170904 372.586052813 712 371 712 c 2
 326 712 l 2
 322.375694873 712 310.65973177 706.32931096 304.689708133 693.725927726 c 2
 2.02608054492 54.4364161694 l 2
 1.07342836872 51.9941963048 -1.03537727007 45.4466453234 -1.4486314772 43.3803742878 c 0
 -4.94473814178 25.200619632 3.95638235628 24 4 24 c 0
EndSplineSet
EndChar

StartChar: B
Encoding: 66 66 34
Width: 556
Flags: HW
AnchorPoint: "above" 361 784 basechar 0
LayerCount: 2
Back
SplineSet
131.978515625 388 m 1
 323.978515625 388 l 2
 400.778320312 388 465.90234375 458 481.815429688 538 c 0
 497.728515625 618 460.452148438 688 383.65234375 688 c 2
 178.852539062 688 l 1
 51.5478515625 48 l 1
 269.147460938 48 l 2
 352.34765625 48 415.049804688 138 430.962890625 218 c 0
 446.875976562 298 419.978515625 388 336.778320312 388 c 1024
EndSplineSet
Fore
SplineSet
208 664 m 2
 374 664 l 2
 406.581849273 664 432.32747109 650.509406562 448.789214411 629.932227411 c 0
 463.544323214 611.242422927 469.712405331 588.165723031 469.712405331 564.190347755 c 0
 469.712405331 553.964568488 468.590355493 543.57530914 466.533936217 533.293212757 c 0
 459.495323992 498.100151636 441.251286201 465.778237675 414.52685625 442.698048172 c 0
 393.154376394 424.887648291 366.652217375 412 334 412 c 2
 167 412 l 2
 151.259714264 412 140.799401773 427.438571827 143.470510415 440.728966044 c 2
 184.470510415 644.728966044 l 2
 186.69763846 655.810286076 196.729401084 664 208 664 c 2
227.656389624 616 m 1
 196.303448447 460 l 1
 334 460 l 2
 353.404072525 460 367.764378733 466.389241174 383.475042667 479.301847633 c 0
 400.684036875 494.40643566 414.479886996 517.775903304 419.466063783 542.706787243 c 0
 420.953594937 550.144443009 421.635858541 557.143632181 421.635858541 563.609461534 c 0
 421.635858541 579.407776263 417.562756876 592.021942292 411.210785589 600.067772589 c 0
 403.67252891 609.490593438 393.418150727 616 374 616 c 2
 227.656389624 616 l 1
75.4697801415 100.725331037 m 2
 124.469780142 344.725331037 l 2
 126.695114913 355.8065899 136.724218613 364 148 364 c 2
 314 364 l 1
 323 364 l 1
 327 364 l 2
 356.036280062 364 379.155227944 351.426119046 394.449382874 333.351208674 c 0
 407.049797993 317.950701306 413.165746768 300.828846995 416.67249072 280.95729793 c 0
 418.471825487 269.561511076 419.69882297 257.608743957 419.69882297 245.382636931 c 0
 419.69882297 234.751519655 418.771085487 223.91372903 416.48519484 213.055748455 c 0
 411.891092665 191.233763127 403.125095421 168.315350128 390.728574756 146.90317807 c 0
 379.383449595 127.616465295 366.802122587 112.62446736 351.319941222 99.5241600505 c 0
 332.018082078 83.8413994961 307.909900282 72 279 72 c 2
 99 72 l 2
 83.2579165119 72 72.8021232848 87.4414887302 75.4697801415 100.725331037 c 2
128.298831419 120 m 1
 279 120 l 2
 294.134552265 120 306.913155096 125.461864005 320.67810972 136.472783638 c 0
 331.16794372 145.462212528 340.594526575 156.346094193 349.271425244 171.09682193 c 0
 358.874904579 187.684649872 366.108907335 206.766236873 369.51480516 222.944251545 c 0
 370.94755752 229.749825254 371.577698246 237.438141215 371.577698246 245.393641197 c 0
 371.577698246 254.569386646 370.739425581 264.100565496 369.32750928 273.04270207 c 0
 366.842953928 287.121849064 363.52940708 295.136503511 357.557451249 302.642643999 c 0
 350.703139088 310.532443307 342.067571009 316 327 316 c 2
 323 316 l 1
 314 316 l 1
 167.659487157 316 l 1
 128.298831419 120 l 1
445.479359686 222.773266759 m 0
 449.088286508 240.817900868 450.705714907 257.882542701 450.705714907 273.788194877 c 0
 450.705714907 318.983468809 437.646768247 354.821182228 420.110658036 377.194840083 c 0
 416.729658496 381.508529151 415.105568064 386.716148342 415.105568064 391.895941625 c 0
 415.105568064 398.479134308 417.728931644 405.017380312 422.702992441 409.61838655 c 0
 458.821928237 443.028402161 486.453143361 491.732654842 496.465510586 542.704706168 c 0
 499.516293185 557.704387281 500.967542752 572.185932261 500.967542752 585.92638834 c 0
 500.967542752 621.729135471 491.114451408 652.500345091 474.031510597 674.295821298 c 0
 455.443397115 698.54118671 429.407582291 712 393 712 c 2
 188 712 l 2
 183.374975129 712 167.819795855 703.283145482 163.505478358 683.14966383 c 2
 36.5547742821 43.398084236 l 2
 36.1809214277 41.4540493934 35.9662792714 39.3451776152 35.9346758894 37.5606399767 c 0
 35.7002713894 24.3245992109 41.4238247798 24 42 24 c 2
 260 24 l 2
 292.199771461 24 324.216091476 37.3488665164 352.713562723 60.5030619047 c 0
 374.652616363 78.9318669624 394.59702157 104.286876057 410.423794433 130.354501948 c 0
 427.73643224 159.512628782 438.946020375 191.039904389 445.479359686 222.773266759 c 0
492.520640314 213.226733241 m 0
 485.049636091 176.938998446 472.26356776 140.487371218 451.576205567 105.645498052 c 0
 433.40297843 75.7131239432 411.347383637 47.0681330376 383.286437277 23.4969380953 c 0
 347.783908524 -5.34886651637 305.800228539 -24 260 -24 c 2
 42 -24 l 2
 6.59191093803 -24 -12.0684993367 7.96836815762 -12.0684993367 37.2000806659 c 0
 -12.0684993367 42.5330926493 -11.5817126534 47.261836233 -10.5547742821 52.601915764 c 2
 116.494521642 692.85033617 l 2
 124.180204145 728.716854518 152.625024871 760 188 760 c 2
 393 760 l 2
 442.592417709 760 484.556602885 739.45881329 511.968489403 703.704178702 c 0
 536.759149809 672.074715425 548.975922573 630.652617948 548.975922573 586.028405274 c 0
 548.975922573 568.80152283 547.155263026 551.097430757 543.534489414 533.295293832 c 0
 532.918256697 479.249018179 506.43051732 428.373481928 469.974821681 389.04723584 c 1
 487.655633036 359.016418517 498.651303942 319.246880481 498.651303942 273.574854792 c 0
 498.651303942 254.404187869 496.71400952 234.193579272 492.520640314 213.226733241 c 0
EndSplineSet
EndChar

StartChar: C
Encoding: 67 67 35
Width: 547
Flags: HW
AnchorPoint: "bottom" 229 40 basechar 0
AnchorPoint: "above" 377 784 basechar 0
LayerCount: 2
Back
SplineSet
417.783203125 200 m 0
 413.008789062 176 337.95703125 40 229.157226562 40 c 0
 120.356445312 40 59.966796875 186.850585938 96 368 c 0
 132.033203125 549.149414062 250.069335938 696 359.643554688 696 c 0
 468.443359375 696 479.774414062 576 479.774414062 576 c 1024
EndSplineSet
Fore
SplineSet
356.230697161 208.240487272 m 0
 364.71288236 243.086622264 391.405216527 272 427 272 c 0
 463.235948616 272 480.911338657 239.998032026 480.911338657 209.692019739 c 0
 480.911338657 204.903737595 480.470102715 200.15779209 479.591122064 195.587092702 c 0
 477.134789515 182.077263685 472.855454239 172.929181341 470.471900262 166.573037402 c 0
 470.312717142 166.148549083 470.067993325 165.55983817 469.931477167 165.252676815 c 0
 465.505702339 155.294683453 460.531971443 145.355424635 453.904406398 133.204888719 c 0
 438.551490448 106.885604233 416.654919946 76.7137944486 388.080756562 48.1396310647 c 0
 347.758554254 6.75631816998 289.269045183 -32 220 -32 c 0
 166.335120865 -32 120.319699116 -6.9271470046 88.5400417074 31.6624369916 c 0
 44.038934985 84.7514765902 21.8009818991 162.823853331 21.8009818991 251.647485117 c 0
 21.8009818991 290.372808444 26.0279392089 331.141714465 34.479765448 372.774784458 c 0
 62.3811974712 510.215171831 130.173772327 635.018972462 219.899242512 707.653876897 c 0
 264.616196291 743.85331567 315.551367218 768 369 768 c 0
 419.134391098 768 457.853656055 749.087469442 484.970562748 721.970562748 c 0
 508.050869788 698.890255709 522.639887883 671.821874963 530.617395163 649.028997023 c 0
 540.693762996 621.039086373 543 600.764705388 543 593 c 0
 543 587.782934065 543.15643156 580.952288635 541.62444837 571.760389496 c 0
 534.937163881 536.98651015 506.689442312 504 470 504 c 0
 439.105441215 504 419.117438736 529.613808064 416.146790368 556.349643374 c 0
 416.109463684 556.685583529 416.062448999 557.263974495 416.050751267 557.439662237 c 0
 415.747143757 560.07998848 413.117343245 574.459878274 408.244448553 585.862890851 c 0
 397.845708438 607.262055013 385.201765292 624 350 624 c 0
 330.327830412 624 307.48919614 615.200118089 282.233746161 594.454569891 c 0
 231.783998292 553.013705571 178.528642871 466.357374964 157.517037169 363.209492429 c 0
 151.470934637 333.528625451 148.799131329 305.464655505 148.799131329 279.642746936 c 0
 148.799131329 215.487727636 165.29172977 165.172581158 187.503082039 138.285154728 c 0
 202.690303857 119.900623053 219.583597898 112 239 112 c 0
 273.227673376 112 304.836879393 136.923307001 330.341523455 168.095649744 c 0
 341.950362048 182.606697985 351.419101453 199.103497518 356.230697161 208.240487272 c 0
399.155208766 186.764845818 m 0
 393.213301176 175.470211327 382.379936841 156.306177947 367.658476545 137.904350256 c 0
 339.163120607 103.076692999 296.772326624 64 239 64 c 0
 204.416402102 64 173.309696143 80.0993769466 150.496917961 107.714845272 c 0
 118.858637152 146.013816778 100.533173627 206.168650532 100.533173627 277.805307761 c 0
 100.533173627 307.716972057 103.728134177 339.630439636 110.482962831 372.790507571 c 0
 133.471357129 485.642625036 190.216001708 580.986294429 251.766253839 631.545430109 c 0
 282.51080386 656.799881911 315.672169588 672 350 672 c 0
 408.631313682 672 437.607641691 635.612444973 451.788689892 606.068594554 c 0
 461.43444194 584.365652446 463.460669348 566.726130938 463.906379359 561.210469544 c 0
 465.036073208 552.74047478 468.761803673 552 470 552 c 0
 475.218918716 552 490.587525588 562.147372315 494.376191703 580.242614641 c 0
 494.806981239 583.158857869 494.99635411 587.027797583 495.000145072 592.630839418 c 0
 494.82066517 595.10506325 492.756788829 612.487158555 485.382604837 632.971002977 c 0
 479.360112117 650.178125037 467.949130212 671.109744291 451.029437252 688.029437252 c 0
 432.146343945 706.912530558 406.865608902 720 369 720 c 0
 330.448632782 720 289.383803709 702.14668433 250.100757488 670.346123103 c 0
 171.826227673 606.981027538 107.618802529 491.784828169 81.520234552 363.225215542 c 0
 73.70037817 324.705182253 70.0050729946 287.670440844 70.0050729946 253.078523712 c 0
 70.0050729946 171.938623215 90.3365995512 104.239113788 125.459958293 62.3375630084 c 0
 149.680300884 32.9271470046 181.664879135 16 220 16 c 0
 270.730954817 16 318.241445746 45.24368183 353.919243438 81.8603689353 c 0
 379.413960335 107.355085832 398.560559979 133.725199965 412.10018245 156.802742819 c 0
 417.316002211 166.409431255 422.131472721 175.959302499 425.791631466 184.126373129 c 0
 428.850264173 192.140383149 430.951249296 196.395949777 432.408877936 204.412907298 c 0
 435.966649836 222.913321177 427.038852565 224 427 224 c 0
 422.756617789 224 406.870638907 208.720154261 399.155208766 186.764845818 c 0
EndSplineSet
EndChar

StartChar: D
Encoding: 68 68 36
Width: 556
Flags: HW
AnchorPoint: "above" 361 784 basechar 0
LayerCount: 2
Back
SplineSet
51.5478515625 48 m 1
 178.852539062 688 l 1
 345.251953125 688 l 2
 396.452148438 688 511.721679688 624 460.799804688 368 c 0
 409.874023438 111.98046875 269.147460938 48 217.947265625 48 c 2
 51.5478515625 48 l 1
EndSplineSet
Fore
SplineSet
116.494521642 692.85033617 m 2
 124.270462982 729.138062422 152.78828292 760 188 760 c 2
 355 760 l 2
 383.571269715 760 414.707669801 749.90053457 444.055469523 728.454065542 c 0
 468.792507966 710.784752368 491.385477742 683.150569641 507.836128043 646.959138979 c 0
 525.963004202 607.348557742 536.592413415 557.657392459 536.592413415 496.40274703 c 0
 536.592413415 456.988916909 532.191646701 412.787597896 522.555774209 363.403751374 c 0
 497.894616136 237.015316253 451.17075224 145.791805877 397.228909461 83.3884975646 c 0
 367.829187777 48.7388255803 336.666032366 22.6927820495 306.681589628 6.03475830604 c 0
 270.055441982 -14.4327947899 236.437863535 -24 208 -24 c 2
 42 -24 l 2
 5.79992314256 -24 -11.8938782433 7.86771960279 -11.8938782433 38.3168773675 c 0
 -11.8938782433 43.1590517452 -11.4464211163 47.9653522261 -10.5547742821 52.601915764 c 2
 116.494521642 692.85033617 l 2
163.505478358 683.14966383 m 2
 36.5547742821 43.398084236 l 2
 33.0533846429 25.1908581125 41.9567905894 24 42 24 c 2
 208 24 l 2
 225.548666375 24 251.97411059 30.4493094625 283.292287416 47.9506435713 c 0
 307.35993155 61.3215569792 334.16324712 83.2522584061 360.771090539 114.611502435 c 0
 408.82924776 170.208194123 452.105383864 252.984683747 475.444225791 372.596248626 c 0
 484.583717882 419.436145592 488.552276864 460.451255277 488.552276864 496.194650609 c 0
 488.552276864 551.912407395 478.908914715 594.820212032 464.176610425 627.01302511 c 0
 450.600864388 656.879666391 433.217807579 677.207879385 415.944530477 689.545934458 c 0
 393.292330199 706.09946543 372.428730285 712 355 712 c 2
 188 712 l 2
 183.21171708 712 167.729537018 702.861937578 163.505478358 683.14966383 c 2
227.668202102 616 m 1
 128.28584916 120 l 1
 227 120 l 2
 228.672138059 120 245.179108394 122.664598246 263.810994739 133.674349268 c 0
 278.930263792 142.568036946 296.723625466 155.872261538 313.872752981 175.72914603 c 0
 344.705182549 211.095756416 378.091162594 270.832281297 398.466063783 372.706787243 c 0
 406.562719521 413.19006593 409.793635138 446.808306467 409.793635138 474.693626544 c 0
 409.793635138 517.019012427 402.350152144 546.136719435 393.179907396 566.005583057 c 0
 384.943951202 584.124686682 373.780334806 595.966721903 363.394039941 603.956179491 c 0
 350.689173462 613.671665622 337.415403925 616 336 616 c 2
 227.668202102 616 l 1
184.467729017 644.715105767 m 2
 186.685864974 655.785435682 196.698672538 664 208 664 c 2
 336 664 l 2
 350.572032733 664 371.33963908 658.306301257 392.578802582 642.064587991 c 0
 408.250343475 630.009556535 425.049565044 611.889577577 436.820092604 585.994416943 c 0
 449.348521635 558.849487376 457.791355575 522.787731051 457.791355575 474.76002563 c 0
 457.791355575 443.096578654 454.121736757 406.232215458 445.533936217 363.293212757 c 0
 423.908837406 255.167718703 387.294817451 186.904243584 350.127247019 144.27085397 c 0
 329.266105844 120.115848399 307.096346478 103.447616154 288.168483038 92.3135788362 c 0
 262.842259535 77.3480831304 241.318652519 72 227 72 c 2
 99 72 l 2
 88.2421304523 72 72.0481992904 83.6488289652 75.4677290172 100.715105767 c 2
 184.467729017 644.715105767 l 2
EndSplineSet
EndChar

StartChar: E
Encoding: 69 69 37
Width: 556
Flags: HW
AnchorPoint: "above" 361 784 basechar 0
AnchorPoint: "bottom" 215 48 basechar 0
LayerCount: 2
Back
SplineSet
120.778320312 388 m 1
 349.578125 388 l 1025
511.65234375 688 m 1
 178.852539062 688 l 1
 51.5478515625 48 l 1
 397.147460938 48 l 1025
EndSplineSet
Fore
SplineSet
116.494521642 692.85033617 m 2
 124.270462982 729.138062422 152.78828292 760 188 760 c 2
 521 760 l 2
 557.21326044 760 574.900296122 728.082935128 574.900296122 697.686346014 c 0
 574.900296122 692.864010893 574.455132034 688.079944547 573.568154728 683.467662552 c 0
 566.985194651 649.236270155 538.669661618 616 502 616 c 2
 227.656389624 616 l 1
 196.303448447 460 l 1
 359 460 l 2
 395.21326044 460 412.900296122 428.082935128 412.900296122 397.686346014 c 0
 412.900296122 392.864010893 412.455132034 388.079944547 411.568154728 383.467662552 c 0
 404.985194651 349.236270155 376.669661618 316 340 316 c 2
 167.659487157 316 l 1
 128.298831419 120 l 1
 407 120 l 2
 443.21326044 120 460.900296122 88.0829351276 460.900296122 57.6863460143 c 0
 460.900296122 52.8640108927 460.455132034 48.0799445469 459.568154728 43.4676625524 c 0
 452.985194651 9.23627015495 424.669661618 -24 388 -24 c 2
 42 -24 l 2
 5.79992314256 -24 -11.8938782433 7.86771960279 -11.8938782433 38.3168773675 c 0
 -11.8938782433 43.1590517452 -11.4464211163 47.9653522261 -10.5547742821 52.601915764 c 2
 116.494521642 692.85033617 l 2
163.505478358 683.14966383 m 2
 36.5547742821 43.398084236 l 2
 33.0533846429 25.1908581125 41.9567905894 24 42 24 c 2
 388 24 l 2
 393.330338382 24 409.014805349 34.763729845 412.431845272 52.5323374476 c 0
 415.953990504 70.8474926541 407.041605557 72 407 72 c 2
 99 72 l 2
 88.2220921887 72 72.0436566432 83.6646344335 75.4697801415 100.725331037 c 2
 124.469780142 344.725331037 l 2
 126.689855131 355.780398334 136.697504132 364 148 364 c 2
 340 364 l 2
 345.330338382 364 361.014805349 374.763729845 364.431845272 392.532337448 c 0
 367.953990504 410.847492654 359.041605557 412 359 412 c 2
 167 412 l 2
 156.214967868 412 140.042044132 423.670255762 143.470510415 440.728966044 c 2
 184.470510415 644.728966044 l 2
 186.691272063 655.778609369 196.697090951 664 208 664 c 2
 502 664 l 2
 507.330338382 664 523.014805349 674.763729845 526.431845272 692.532337448 c 0
 529.953990504 710.847492654 521.041605557 712 521 712 c 2
 188 712 l 2
 183.21171708 712 167.729537018 702.861937578 163.505478358 683.14966383 c 2
EndSplineSet
EndChar

StartChar: F
Encoding: 70 70 38
Width: 531
Flags: HW
AnchorPoint: "above" 348 784 basechar 0
LayerCount: 2
Back
SplineSet
51.5478515625 48 m 1
 178.852539062 688 l 1
 498.852539062 688 l 1025
120.778320312 388 m 1
 355.978515625 388 l 1025
EndSplineSet
Fore
SplineSet
116.494521642 692.85033617 m 2
 124.270462982 729.138062422 152.78828292 760 188 760 c 2
 508 760 l 2
 544.21326044 760 561.900296122 728.082935128 561.900296122 697.686346014 c 0
 561.900296122 692.864010893 561.455132034 688.079944547 560.568154728 683.467662552 c 0
 553.985194651 649.236270155 525.669661618 616 489 616 c 2
 227.656389624 616 l 1
 196.303448447 460 l 1
 366 460 l 2
 402.545490472 460 418.927366291 427.797982026 418.927366291 398.041797345 c 0
 418.927366291 393.061062715 418.468383983 388.148854683 417.568154728 383.467662552 c 0
 410.985194651 349.236270155 382.669661618 316 346 316 c 2
 167.701743961 316 l 1
 113.554354285 43.3959002498 l 2
 106.996969442 9.29749906977 78.6648123614 -24 42 -24 c 0
 5.79992314256 -24 -11.8938782433 7.86771960279 -11.8938782433 38.3168773675 c 0
 -11.8938782433 43.1590517452 -11.4464211163 47.9653522261 -10.5547742821 52.601915764 c 2
 116.494521642 692.85033617 l 2
163.505478358 683.14966383 m 2
 36.5547742821 43.398084236 l 2
 33.0533846429 25.1908581125 41.9567905894 24 42 24 c 0
 47.3351876386 24 63.0030305576 34.7025009302 66.4456457153 52.6040997502 c 2
 124.459882914 344.675776681 l 2
 126.34126935 354.147584255 135.934925299 364 148 364 c 2
 346 364 l 2
 351.330338382 364 367.014805349 374.763729845 370.431845272 392.532337448 c 0
 374.132995783 411.778320103 366 412 366 412 c 1
 167 412 l 2
 156.214967868 412 140.042044132 423.670255762 143.470510415 440.728966044 c 2
 184.470510415 644.728966044 l 2
 186.691272063 655.778609369 196.697090951 664 208 664 c 2
 489 664 l 2
 494.330338382 664 510.014805349 674.763729845 513.431845272 692.532337448 c 0
 516.953990504 710.847492654 508.041605557 712 508 712 c 2
 188 712 l 2
 183.21171708 712 167.729537018 702.861937578 163.505478358 683.14966383 c 2
EndSplineSet
EndChar

StartChar: G
Encoding: 71 71 39
Width: 537
Flags: HW
AnchorPoint: "above" 377 784 basechar 0
LayerCount: 2
Back
SplineSet
479.774414062 576 m 0
 479.774414062 576 468.443359375 696 359.643554688 696 c 0
 250.069335938 696 132.033203125 549.149414062 96 368 c 0
 59.966796875 186.850585938 120.356445312 40 229.157226562 40 c 0
 331.556640625 40 398.634765625 152 398.634765625 152 c 1
 436.826171875 344 l 1
 302.426757812 344 l 1025
EndSplineSet
Fore
SplineSet
446 416 m 2
 484.216809524 416 499.971554545 382.562247471 499.971554545 353.850913966 c 0
 499.971554545 348.754774433 499.475205407 343.807539499 498.520014174 339.222621581 c 2
 460.691792195 148.090552635 l 2
 458.513607996 135.166405413 454.462456787 127.36440503 450.006391436 119.380719462 c 0
 445.478492668 110.857615899 409.670984999 51.9126150854 343.125042091 7.90642703333 c 0
 309.583813143 -13.7330755137 268.321817606 -32 220 -32 c 0
 166.335120865 -32 120.319699116 -6.9271470046 88.5400417074 31.6624369916 c 0
 44.038934985 84.7514765902 21.8009818991 162.823853331 21.8009818991 251.647485117 c 0
 21.8009818991 290.372808444 26.0279392089 331.141714465 34.479765448 372.774784458 c 0
 62.3811974712 510.215171831 130.173772327 635.018972462 219.899242512 707.653876897 c 0
 264.616196291 743.85331567 315.551367218 768 369 768 c 0
 419.134391098 768 457.853656055 749.087469442 484.970562748 721.970562748 c 0
 508.050869788 698.890255709 522.639887883 671.821874963 530.617395163 649.028997023 c 0
 539.732966934 623.707964325 542.567993366 600.98715772 542.863248462 596.313994024 c 0
 544.498966562 580.982946738 542.851595159 579.123270224 541.62444837 571.760389496 c 0
 534.937163881 536.98651015 506.689442312 504 470 504 c 0
 439.105441215 504 419.117438736 529.613808064 416.146790368 556.349643374 c 0
 416.109463684 556.685583529 416.062448999 557.263974495 416.050751267 557.439662237 c 0
 415.747143757 560.07998848 413.117343245 574.459878274 408.244448553 585.862890851 c 0
 397.845708438 607.262055013 385.201765292 624 350 624 c 0
 330.327830412 624 307.48919614 615.200118089 282.233746161 594.454569891 c 0
 231.783998292 553.013705571 178.528642871 466.357374964 157.517037169 363.209492429 c 0
 151.470934637 333.528625451 148.799131329 305.464655505 148.799131329 279.642746936 c 0
 148.799131329 215.487727636 165.29172977 165.172581158 187.503082039 138.285154728 c 0
 202.690303857 119.900623053 219.583597898 112 239 112 c 0
 273.427832598 112 301.474575233 131.483129437 323.856286271 154.797411768 c 0
 330.964937268 161.906062765 336.242789711 169.129002629 340.505115084 174.94214017 c 2
 359.768507111 272 l 1
 293 272 l 2
 256.78673956 272 239.099703878 303.917064872 239.099703878 334.313653986 c 0
 239.099703878 339.135989107 239.544867966 343.920055453 240.431845272 348.532337448 c 0
 247.014805349 382.763729845 275.330338382 416 312 416 c 2
 446 416 l 2
446 368 m 2
 312 368 l 2
 306.669661618 368 290.985194651 357.236270155 287.568154728 339.467662552 c 0
 284.046009496 321.152507346 292.958394443 320 293 320 c 2
 389 320 l 2
 399.673874658 320 415.932643618 308.417336366 412.540822418 291.327775703 c 2
 386.540822418 160.327775703 l 2
 385.899546155 157.096729919 384.345021715 153.460028954 382.2 150.6 c 0
 376.898404555 143.531206073 369.447725911 132.506600415 358.143713729 121.202588232 c 0
 332.525424767 94.5168705632 292.572167402 64 239 64 c 0
 204.416402102 64 173.309696143 80.0993769466 150.496917961 107.714845272 c 0
 118.858637152 146.013816778 100.533173627 206.168650532 100.533173627 277.805307761 c 0
 100.533173627 307.716972057 103.728134177 339.630439636 110.482962831 372.790507571 c 0
 133.471357129 485.642625036 190.216001708 580.986294429 251.766253839 631.545430109 c 0
 282.51080386 656.799881911 315.672169588 672 350 672 c 0
 408.631313682 672 437.607641691 635.612444973 451.788689892 606.068594554 c 0
 461.43444194 584.365652446 463.460669348 566.726130938 463.906379359 561.210469544 c 0
 465.036073208 552.74047478 468.761803673 552 470 552 c 0
 475.219386214 552 490.586381597 562.141908443 494.377532381 580.249017924 c 0
 495.024394717 584.154984573 495.427834682 588.045091422 495.411404752 588.569843249 c 0
 495.177295554 589.882383049 495.032008516 591.132764242 495.003543535 592.583989827 c 0
 494.816450148 595.163169528 492.765928424 612.461770793 485.382604837 632.971002977 c 0
 479.360112117 650.178125037 467.949130212 671.109744291 451.029437252 688.029437252 c 0
 432.146343945 706.912530558 406.865608902 720 369 720 c 0
 330.448632782 720 289.383803709 702.14668433 250.100757488 670.346123103 c 0
 171.826227673 606.981027538 107.618802529 491.784828169 81.520234552 363.225215542 c 0
 73.70037817 324.705182253 70.0050729946 287.670440844 70.0050729946 253.078523712 c 0
 70.0050729946 171.938623215 90.3365995512 104.239113788 125.459958293 62.3375630084 c 0
 149.680300884 32.9271470046 181.664879135 16 220 16 c 0
 255.678182394 16 288.416186857 29.7330755137 316.874957909 48.0935729667 c 0
 371.084416957 83.9417636278 404.65668616 136.678411467 407.701696983 142.06269401 c 0
 407.81677488 142.283567 408.008628745 142.638646794 408.162164589 142.907334521 c 0
 411.343181444 148.474114016 412.876305381 152.839765151 413.241212152 155.39411255 c 0
 413.283932424 155.693154452 413.377505342 156.259582287 413.45667862 156.65961569 c 2
 451.479985826 348.777378419 l 2
 455.143306533 366.361317813 446.999869394 368 446 368 c 2
EndSplineSet
EndChar

StartChar: H
Encoding: 72 72 40
Width: 569
Flags: HW
AnchorPoint: "above" 368 784 basechar 0
LayerCount: 2
Back
SplineSet
120.778320312 388 m 1
 456.778320312 388 l 1025
518.052734375 688 m 1
 390.748046875 48 l 1025
51.5478515625 48 m 1
 178.852539062 688 l 1025
EndSplineSet
Fore
SplineSet
456.445171642 692.601634569 m 2
 463.003435046 726.704604268 491.335021057 760 528 760 c 0
 564.531654579 760 580.921204556 727.8480631 580.921204556 698.040670885 c 0
 580.921204556 693.039494726 580.459819665 688.104320227 579.554774282 683.398084236 c 2
 452.554774282 43.398084236 l 2
 445.996611093 9.29563565257 417.664959942 -24 381 -24 c 0
 344.800336554 -24 327.106323024 7.86617211164 327.106323024 38.3169775728 c 0
 327.106323024 43.159774687 327.553852182 47.9667733746 328.445645715 52.6040997502 c 2
 380.764009464 316 l 1
 167.701743961 316 l 1
 113.554354285 43.3959002498 l 2
 106.996969442 9.29749906977 78.6648123614 -24 42 -24 c 0
 5.79992314256 -24 -11.8938782433 7.86771960279 -11.8938782433 38.3168773675 c 0
 -11.8938782433 43.1590517452 -11.4464211163 47.9653522261 -10.5547742821 52.601915764 c 2
 116.445225718 692.601915764 l 2
 123.003388907 726.704364347 151.335040058 760 188 760 c 0
 224.200130087 760 241.893904158 728.132081147 241.893904158 697.683135539 c 0
 241.893904158 692.84104134 241.446456305 688.034830754 240.554828358 683.398365431 c 2
 196.229755852 460 l 1
 410.294053672 460 l 1
 456.445171642 692.601634569 l 2
503.554828358 683.398365431 m 2
 453.541094716 431.329147874 l 2
 451.660320223 421.850044433 442.06476612 412 430 412 c 2
 167 412 l 2
 156.328812069 412 140.067972231 423.580549538 143.458905284 440.670852126 c 2
 193.445171642 692.601634569 l 2
 196.946645163 710.809296879 188.043202929 712 188 712 c 0
 182.664959942 712 166.996611093 701.295635653 163.554774282 683.398084236 c 2
 36.5547742821 43.398084236 l 2
 33.0533846429 25.1908581125 41.9567905894 24 42 24 c 0
 47.3351876386 24 63.0030305576 34.7025009302 66.4456457153 52.6040997502 c 2
 124.459882914 344.675776681 l 2
 126.34126935 354.147584255 135.934925299 364 148 364 c 2
 410 364 l 2
 420.68083057 364 436.934237162 352.411862321 433.540117086 335.324223319 c 2
 375.554354285 43.3959002498 l 2
 372.053616141 25.1920619006 380.956740246 24 381 24 c 0
 386.335040058 24 402.003388907 34.7043643474 405.445225718 52.601915764 c 2
 532.445225718 692.601915764 l 2
 536.12567006 711.74022634 528 712 528 712 c 1
 522.664978943 712 506.996564954 701.295395732 503.554828358 683.398365431 c 2
EndSplineSet
EndChar

StartChar: I
Encoding: 73 73 41
Width: 268
Flags: HW
HStem: 0 21G<123.803 144.997> 716 20G<123.803 144.997>
VStem: 96 77<7.56638 728.434>
AnchorPoint: "above" 217 784 basechar 0
LayerCount: 2
Back
SplineSet
198.052734375 688 m 1
 70.748046875 48 l 1025
EndSplineSet
Fore
SplineSet
136.448631477 692.619625712 m 2
 143.000483051 726.689253894 171.336236788 760 208 760 c 0
 244.531654579 760 260.921204556 727.8480631 260.921204556 698.040670885 c 0
 260.921204556 693.039494726 260.459819665 688.104320227 259.554774282 683.398084236 c 2
 132.554774282 43.398084236 l 2
 125.996611093 9.29563565258 97.6649599418 -24 61 -24 c 0
 24.8032747855 -24 7.1077535174 7.85517345047 7.1077535174 38.3176882296 c 0
 7.1077535174 43.1649123849 7.55579483126 47.9768751533 8.4486314772 52.6196257122 c 2
 136.448631477 692.619625712 l 2
183.551368523 683.380374288 m 2
 55.5513685228 43.3803742878 l 2
 52.0552618582 25.200619632 60.9563823563 24 61 24 c 0
 66.3350400582 24 82.003388907 34.7043643474 85.4452257179 52.601915764 c 2
 212.445225718 692.601915764 l 2
 216.12567006 711.74022634 208 712 208 712 c 1
 202.663763212 712 186.999516949 701.310746106 183.551368523 683.380374288 c 2
EndSplineSet
EndChar

StartChar: J
Encoding: 74 74 42
Width: 435
Flags: HW
AnchorPoint: "above" 300 784 basechar 0
LayerCount: 2
Back
SplineSet
59.2958984375 280 m 1
 46.5654296875 216 l 1
 46.5654296875 216 l 1
 27.23046875 118.797851562 65.9990234375 40 133.157226562 40 c 0
 200.314453125 40 272.568359375 129.54296875 294.5390625 240 c 2
 383.65234375 688 l 1025
EndSplineSet
Fore
SplineSet
-2.54456309547 284.655013934 m 2
 3.99467653506 318.659060013 32.3386281074 352 69 352 c 0
 105.190032785 352 122.888988062 320.169879647 122.888988062 289.680703121 c 0
 122.888988062 284.823388403 122.439778772 280.000107583 121.544563095 275.344986066 c 2
 108.526868984 211.257876596 l 2
 106.29968906 200.121976972 105.339197376 189.73032201 105.339197376 180.201673632 c 0
 105.339197376 151.418491327 114.103323595 130.509920282 123.191957338 120.749365474 c 0
 129.597036715 114.554805195 136.092631702 112 143 112 c 0
 149.292032005 112 156.822757961 113.993202708 168.85180383 123.616439404 c 0
 192.018655395 142.789006216 221.448715701 188.702553151 232.455656252 244.654500951 c 2
 321.445712379 692.6044464 l 2
 328.002973679 726.702205162 356.335211063 760 393 760 c 0
 429.19959783 760 446.893645031 728.134073504 446.893645031 697.683006528 c 0
 446.893645031 692.840110571 446.44610444 688.03300106 445.554287621 683.3955536 c 2
 356.544407025 235.34587303 l 2
 338.653553319 144.839201341 293.669108202 60.8398443837 231.153388797 10.3885620573 c 0
 200.220069051 -15.0209505919 163.07085032 -32 124 -32 c 0
 86.5391449502 -32 54.0778700946 -17.0189955915 30.0294372515 7.02943725152 c 0
 -5.186836964 42.245711467 -22.3592731294 95.0024509084 -22.3592731294 154.054274284 c 0
 -22.3592731294 175.626225454 -20.0676450049 198.038243302 -15.5268689844 220.742123404 c 2
 -2.54456309547 284.655013934 l 2
44.5445630955 275.344986066 m 2
 31.51969567 211.222561817 l 2
 27.5931096295 191.589631615 25.7568371871 172.764869286 25.7568371871 155.097461354 c 0
 25.7568371871 105.203018421 40.4020537905 64.5390717064 63.9705627485 40.9705627485 c 0
 79.9221299054 25.0189955915 99.4608550498 16 124 16 c 0
 148.92914968 16 175.779930949 27.0209505919 200.846611203 47.6114379427 c 0
 252.330891798 89.1601556163 293.346446681 163.160798659 309.455592975 244.65412697 c 2
 398.445712379 692.6044464 l 2
 401.946347115 710.80774703 393.043267744 712 393 712 c 0
 387.664788937 712 371.997026321 701.297794838 368.554287621 683.3955536 c 2
 279.539979531 235.323530852 l 2
 266.554799553 169.315532633 233.977418609 115.207744684 199.14819617 86.3835605962 c 0
 181.177242039 72.0067972917 162.707967995 64 143 64 c 0
 121.897203973 64 103.160914247 72.8979602564 88.8225099391 87.236364564 c 0
 68.3024806364 108.782395332 57.1522764596 141.068333269 57.1522764596 178.722751356 c 0
 57.1522764596 192.118594505 58.563484515 206.193890901 61.4660637834 220.706787243 c 2
 74.4554369045 284.655013934 l 2
 77.9409870686 302.779874788 69.0444333797 304 69 304 c 0
 63.6613718926 304 48.0053234649 293.340939987 44.5445630955 275.344986066 c 2
EndSplineSet
EndChar

StartChar: K
Encoding: 75 75 43
Width: 537
Flags: HW
AnchorPoint: "above" 352 784 basechar 0
LayerCount: 2
Back
SplineSet
397.147460938 48 m 1
 254.727539062 434 l 1025
511.65234375 688 m 1
 99.693359375 282 l 1025
178.852539062 688 m 1
 51.5478515625 48 l 1025
EndSplineSet
Fore
SplineSet
459.551368523 43.3803742878 m 0
 452.999516949 9.31074610573 424.663763212 -24 388 -24 c 0
 363.981306598 -24 345.940307837 -8.65673880913 337.645664657 11.2504048226 c 2
 225.260697593 317.836594973 l 1
 154.100642455 248.058288478 l 1
 113.555481391 43.401761202 l 2
 106.996007775 9.29249839771 78.6652084086 -24 42 -24 c 0
 5.79992314256 -24 -11.8938782433 7.86771960279 -11.8938782433 38.3168773675 c 0
 -11.8938782433 43.1590517452 -11.4464211163 47.9653522261 -10.5547742821 52.601915764 c 2
 116.445225718 692.601915764 l 2
 123.003388907 726.704364347 151.335040058 760 188 760 c 0
 224.202564422 760 241.895089284 728.122969046 241.895089284 697.683726706 c 0
 241.895089284 692.845298644 241.448065413 688.043198117 240.557300944 683.411222879 c 2
 197.611153508 465.718682429 l 1
 475.158289443 739.09844395 l 2
 475.436279536 739.372260018 475.839304246 739.745855984 476.055267868 739.937823648 c 0
 486.71427765 749.41249901 501.344415167 760 521 760 c 0
 557.131466735 760 574.860462945 728.389203303 574.860462945 697.667219929 c 0
 574.860462945 692.721183499 574.400947335 687.79818411 573.484726367 683.033835076 c 0
 569.43703314 665.493831096 561.952555717 650.01143022 548.914369448 636.973243951 c 2
 331.866093602 422.780866472 l 1
 456.496808614 84.3605403245 l 2
 459.461401088 76.4549603945 461.07377363 67.7331570887 461.07377363 58.6632968801 c 0
 461.07377363 53.6490017142 460.58095854 48.5283243759 459.551368523 43.3803742878 c 0
412.448631477 52.6196257122 m 0
 413.56307772 58.1918569282 412.899616462 63.9156594734 411.503191386 67.6394596755 c 2
 281.478676126 420.706028035 l 2
 278.727157748 428.177458706 280.167848121 439.199997071 287.142194753 446.082575984 c 2
 515.085630552 671.026756049 l 2
 520.124592288 676.065717785 524.168462587 683.335654625 526.510203149 692.949141574 c 0
 529.605708972 710.649412882 521.272075061 712 521 712 c 0
 520.602341918 712 515.807875997 710.903324561 508.378969228 704.445762789 c 2
 175.841710557 376.90155605 l 2
 170.881727489 372.016047202 163.439771134 369.318525524 156.21651901 370.161958269 c 0
 142.514027525 371.761948108 132.783707627 385.110441259 135.45382303 398.645164164 c 2
 193.442699056 692.588777121 l 2
 196.948008024 710.816383756 188.042906551 712 188 712 c 0
 182.664959942 712 166.996611093 701.295635653 163.554774282 683.398084236 c 2
 36.5547742821 43.398084236 l 2
 33.0533846429 25.1908581125 41.9567905894 24 42 24 c 0
 47.3347915914 24 63.0039922253 34.7075016023 66.4445186091 52.598238798 c 2
 108.457560292 264.664068244 l 2
 109.22888209 268.557406843 111.73225595 273.739019668 115.196622842 277.136117299 c 2
 218.196622842 378.136117299 l 2
 219.599247434 379.511506462 222.523293416 381.681865182 224.997360322 382.816214142 c 0
 228.1571679 384.264972228 231.488885741 384.945334903 234.781223089 384.945334903 c 0
 244.555168296 384.945334903 253.982047336 378.949196859 257.533743442 369.260169883 c 2
 382.315337963 28.855980028 l 2
 384.219635011 24.5828070218 385.91173509 24 388 24 c 0
 393.336236788 24 409.000483051 34.6892538943 412.448631477 52.6196257122 c 0
EndSplineSet
EndChar

StartChar: L
Encoding: 76 76 44
Width: 524
Flags: HW
AnchorPoint: "above" 345 784 basechar 0
LayerCount: 2
Back
SplineSet
178.852539062 688 m 1
 51.5478515625 48 l 1
 384.34765625 48 l 1025
EndSplineSet
Fore
SplineSet
116.445225718 692.601915764 m 2
 123.003388907 726.704364347 151.335040058 760 188 760 c 0
 224.19817413 760 241.8929519 728.139402788 241.8929519 697.682661878 c 0
 241.8929519 692.837621044 241.445163192 688.028106567 240.552841035 683.388031353 c 2
 128.255902353 120 l 1
 394 120 l 2
 430.21326044 120 447.900296122 88.0829351276 447.900296122 57.6863460143 c 0
 447.900296122 52.8640108927 447.455132034 48.0799445469 446.568154728 43.4676625524 c 0
 439.985194651 9.23627015495 411.669661618 -24 375 -24 c 2
 42 -24 l 2
 5.79992314256 -24 -11.8938782433 7.86771960279 -11.8938782433 38.3168773675 c 0
 -11.8938782433 43.1590517452 -11.4464211163 47.9653522261 -10.5547742821 52.601915764 c 2
 116.445225718 692.601915764 l 2
163.554774282 683.398084236 m 2
 36.5547742821 43.398084236 l 2
 33.0533846429 25.1908581125 41.9567905894 24 42 24 c 2
 375 24 l 2
 380.330338382 24 396.014805349 34.763729845 399.431845272 52.5323374476 c 0
 402.953990504 70.8474926541 394.041605557 72 394 72 c 2
 99 72 l 2
 88.2883871667 72 72.0587262015 83.6123737674 75.4630104108 100.691494546 c 2
 193.447158965 692.611968647 l 2
 196.945549774 710.803600854 188.04344114 712 188 712 c 0
 182.664959942 712 166.996611093 701.295635653 163.554774282 683.398084236 c 2
EndSplineSet
EndChar

StartChar: M
Encoding: 77 77 45
Width: 664
Flags: HW
AnchorPoint: "above" 415 784 basechar 0
LayerCount: 2
Back
SplineSet
51.5478515625 48 m 1
 178.852539062 688 l 1
 210.852539062 688 l 1
 269.147460938 48 l 1
 582.052734375 688 l 1
 614.052734375 688 l 1
 486.748046875 48 l 1025
EndSplineSet
Fore
SplineSet
116.494521642 692.85033617 m 2
 124.270462982 729.138062422 152.78828292 760 188 760 c 2
 220 760 l 2
 251.17157146 760 270.973584844 734.010622076 273.885551005 706.346943547 c 2
 313.111481062 276.530901431 l 1
 527.375498443 714.411730602 l 2
 539.28268802 739.549130819 563.646339664 760 592 760 c 2
 624 760 l 2
 642.955813997 760 658.692635348 749.227662284 667.969207064 735.312804709 c 0
 675.271470715 724.359409233 677.412283354 712.95002452 677.412283354 702.379734906 c 0
 677.412283354 695.707002784 676.559159142 689.368654127 675.612797949 683.690486968 c 2
 548.554774282 43.398084236 l 2
 541.996611093 9.29563565256 513.664959942 -24 477 -24 c 0
 440.80147645 -24 423.106877983 7.86190519255 423.106877983 38.3172535928 c 0
 423.106877983 43.1617679659 423.554605787 47.9706921229 424.4468039 52.6101223094 c 2
 483.337766719 348.304746148 l 1
 323.514362615 21.3630937708 l 2
 312.184183507 -1.29726444608 290.479495502 -24 260 -24 c 0
 228.828434242 -24 209.026398829 1.98953302572 206.114468624 29.6528699811 c 2
 176.164930956 357.766693758 l 1
 113.5531961 43.3898776906 l 2
 106.997957627 9.30263762788 78.6644053937 -24 42 -24 c 0
 5.79992314256 -24 -11.8938782433 7.86771960279 -11.8938782433 38.3168773675 c 0
 -11.8938782433 43.1590517452 -11.4464211163 47.9653522261 -10.5547742821 52.601915764 c 2
 116.494521642 692.85033617 l 2
163.505478358 683.14966383 m 2
 36.5547742821 43.398084236 l 2
 33.0533846429 25.1908581125 41.9567905894 24 42 24 c 0
 47.3355946063 24 63.0020423733 34.6973623721 66.4468038997 52.6101223094 c 2
 161.462275641 529.687806738 l 2
 163.376229131 539.297867946 171.246200766 546.994450576 180.949950143 548.655804703 c 0
 182.272490243 548.882233413 183.590311713 548.991437551 184.892975206 548.991437551 c 0
 196.98368843 548.991437551 207.768589748 539.583846086 208.900640602 527.181600055 c 2
 253.885531376 34.3471300189 l 2
 254.973601171 24.0104669743 259.171565758 24 260 24 c 0
 263.520504498 24 273.815816493 29.2972644461 280.485637385 42.6369062292 c 2
 521.43839186 535.540258746 l 2
 525.812718363 544.488569807 535.758419937 550.027081439 545.826655285 548.832960788 c 0
 559.526226162 547.208153666 569.232351402 533.84205747 566.537724359 520.312193262 c 2
 471.5531961 43.3898776906 l 2
 468.054254519 25.1953814658 476.95660142 24 477 24 c 0
 482.335040058 24 498.003388907 34.7043643474 501.445225718 52.601915764 c 2
 628.388257065 692.314829639 l 2
 629.853119232 701.676401729 628.153760425 708.502744056 628.030792936 708.687195291 c 0
 625.307364652 712.772337716 625.044186003 712 624 712 c 2
 592 712 l 2
 588.353660336 712 576.71731198 706.450869181 570.624501557 693.588269398 c 2
 318.557552948 178.45144982 l 2
 315.425313513 172.050246212 308.717209248 166.656746749 301.049680249 165.34413202 c 0
 299.727259858 165.117745073 298.409559049 165.008560777 297.107014125 165.008560777 c 0
 285.016153285 165.008560777 274.231193756 174.416385139 273.099325314 186.818773378 c 2
 226.114448995 701.653056453 l 2
 225.026415156 711.989377924 220.82842854 712 220 712 c 2
 188 712 l 2
 183.21171708 712 167.729537018 702.861937578 163.505478358 683.14966383 c 2
EndSplineSet
EndChar

StartChar: N
Encoding: 78 78 46
Width: 576
Flags: HW
AnchorPoint: "above" 371 784 basechar 0
LayerCount: 2
Back
SplineSet
51.5478515625 48 m 1
 178.852539062 688 l 1
 210.852539062 688 l 1
 371.547851562 48 l 1
 397.147460938 48 l 1
 524.452148438 688 l 1025
EndSplineSet
Fore
SplineSet
116.494521642 692.85033617 m 2
 124.270462982 729.138062422 152.78828292 760 188 760 c 2
 220 760 l 2
 246.861959579 760 266.063426958 740.157197084 272.233884112 717.017982757 c 2
 381.242728924 283.405022285 l 1
 462.445238974 692.601984695 l 2
 469.003377597 726.704305535 497.335044716 760 534 760 c 0
 570.200076857 760 587.893878243 728.132280397 587.893878243 697.683122633 c 0
 587.893878243 692.840948255 587.446421116 688.034647774 586.554774282 683.398084236 c 2
 459.554774282 43.398084236 l 2
 452.996611093 9.29563565257 424.664959942 -24 388 -24 c 2
 362 -24 l 2
 335.137227027 -24 315.938876755 -4.16583601036 309.763372948 18.9923032682 c 2
 197.689529117 466.475549286 l 1
 113.553845238 43.3932532076 l 2
 106.99740377 9.29975757476 78.6646334905 -24 42 -24 c 0
 5.79992314256 -24 -11.8938782433 7.86771960279 -11.8938782433 38.3168773675 c 0
 -11.8938782433 43.1590517452 -11.4464211163 47.9653522261 -10.5547742821 52.601915764 c 2
 116.494521642 692.85033617 l 2
163.505478358 683.14966383 m 2
 36.5547742821 43.398084236 l 2
 33.0533846429 25.1908581125 41.9567905894 24 42 24 c 0
 47.3353665095 24 63.0025962297 34.7002424252 66.4461547618 52.6067467924 c 2
 171.460933811 580.681064299 l 2
 173.000891113 588.424849587 179.09425251 595.976088442 187.360623217 598.751701527 c 0
 189.820045123 599.577505724 192.329423772 599.967566642 194.805281793 599.967566642 c 0
 205.494868868 599.967566642 215.559596212 592.69642132 218.280932461 581.830796152 c 2
 356.236627052 31.0076967318 l 2
 358.061123245 24.1658360104 360.862772973 24 362 24 c 2
 388 24 l 2
 393.335040058 24 409.003388907 34.7043643474 412.445225718 52.601915764 c 2
 539.445225718 692.601915764 l 2
 542.946615357 710.809141888 534.043209411 712 534 712 c 0
 528.664955284 712 512.996622403 701.295694465 509.554761026 683.398015305 c 2
 407.540955927 169.328448435 l 2
 406.015485187 161.641272349 399.935514679 154.04208801 391.659556223 151.255084118 c 0
 389.193945298 150.42476733 386.677707226 150.032606243 384.195067303 150.032606243 c 0
 373.513264192 150.032606243 363.453441922 157.292431462 360.724249048 168.14855423 c 2
 225.766115888 704.982017243 l 2
 223.936573042 711.842802916 221.138040421 712 220 712 c 2
 188 712 l 2
 183.21171708 712 167.729537018 702.861937578 163.505478358 683.14966383 c 2
EndSplineSet
EndChar

StartChar: O
Encoding: 79 79 47
Width: 588
Flags: HW
HStem: -8 96<232.434 356.366> 648 96<232.434 356.366>
VStem: 58 77<242.362 493.638> 454 77<242.362 493.638>
AnchorPoint: "above" 377 784 basechar 0
AnchorPoint: "middle" 294 368 basechar 0
LayerCount: 2
Back
SplineSet
492.799804688 368 m 0
 456.766601562 186.850585938 338.73046875 40 229.157226562 40 c 0
 119.583007812 40 59.966796875 186.850585938 96 368 c 0
 132.033203125 549.149414062 250.069335938 696 359.643554688 696 c 0
 469.216796875 696 528.833007812 549.149414062 492.799804688 368 c 0
EndSplineSet
Fore
SplineSet
554.520234552 363.225215542 m 0
 526.618802529 225.784828169 458.826227673 100.981027538 369.100757488 28.346123103 c 0
 324.383803709 -7.85331567037 273.448632782 -32 220 -32 c 0
 166.335120865 -32 120.319699116 -6.9271470046 88.5400417074 31.6624369916 c 0
 44.038934985 84.7514765902 21.8009818991 162.823853331 21.8009818991 251.647485117 c 0
 21.8009818991 290.372808444 26.0279392089 331.141714465 34.479765448 372.774784458 c 0
 62.3811974712 510.215171831 130.173772327 635.018972462 219.899242512 707.653876897 c 0
 264.616196291 743.85331567 315.551367218 768 369 768 c 0
 422.664879135 768 468.680300884 742.927147005 500.459958293 704.337563008 c 0
 544.961065015 651.24852341 567.199018101 573.176146669 567.199018101 484.352514883 c 0
 567.199018101 445.627191556 562.972060791 404.858285535 554.520234552 363.225215542 c 0
507.479765448 372.774784458 m 0
 515.29962183 411.294817747 518.994927005 448.329559156 518.994927005 482.921476288 c 0
 518.994927005 564.061376785 498.663400449 631.760886212 463.540041707 673.662436992 c 0
 439.319699116 703.072852995 407.335120865 720 369 720 c 0
 330.448632782 720 289.383803709 702.14668433 250.100757488 670.346123103 c 0
 171.826227673 606.981027538 107.618802529 491.784828169 81.520234552 363.225215542 c 0
 73.70037817 324.705182253 70.0050729946 287.670440844 70.0050729946 253.078523712 c 0
 70.0050729946 171.938623215 90.3365995512 104.239113788 125.459958293 62.3375630084 c 0
 149.680300884 32.9271470046 181.664879135 16 220 16 c 0
 258.551367218 16 299.616196291 33.8533156704 338.899242512 65.653876897 c 0
 417.173772327 129.018972462 481.381197471 244.215171831 507.479765448 372.774784458 c 0
430.482962831 372.790507571 m 0
 436.662739335 403.127592229 439.39839221 431.76192485 439.39839221 458.032537826 c 0
 439.39839221 521.490850085 423.436013466 571.156992818 401.496917961 597.714845272 c 0
 386.309696143 616.099376947 369.416402102 624 350 624 c 0
 330.327830412 624 307.48919614 615.200118089 282.233746161 594.454569891 c 0
 231.783998292 553.013705571 178.528642871 466.357374964 157.517037169 363.209492429 c 0
 151.470934637 333.528625451 148.799131329 305.464655505 148.799131329 279.642746936 c 0
 148.799131329 215.487727636 165.29172977 165.172581158 187.503082039 138.285154728 c 0
 202.690303857 119.900623053 219.583597898 112 239 112 c 0
 258.672169588 112 281.51080386 120.799881911 306.766253839 141.545430109 c 0
 357.101266039 182.892047273 409.440072591 269.489046393 430.482962831 372.790507571 c 0
477.517037169 363.209492429 m 0
 454.559927409 250.510953607 398.898733961 155.107952727 337.233746161 104.454569891 c 0
 306.48919614 79.2001180891 273.327830412 64 239 64 c 0
 204.416402102 64 173.309696143 80.0993769466 150.496917961 107.714845272 c 0
 118.858637152 146.013816778 100.533173627 206.168650532 100.533173627 277.805307761 c 0
 100.533173627 307.716972057 103.728134177 339.630439636 110.482962831 372.790507571 c 0
 133.471357129 485.642625036 190.216001708 580.986294429 251.766253839 631.545430109 c 0
 282.51080386 656.799881911 315.672169588 672 350 672 c 0
 384.583597898 672 415.690303857 655.900623053 438.503082039 628.285154728 c 0
 469.951143057 590.216449285 487.68666474 530.736728718 487.68666474 459.984662122 c 0
 487.68666474 429.543765984 484.403591472 397.016213554 477.517037169 363.209492429 c 0
EndSplineSet
EndChar

StartChar: P
Encoding: 80 80 48
Width: 544
Flags: HW
AnchorPoint: "above" 355 784 basechar 0
LayerCount: 2
Back
SplineSet
51.5478515625 48 m 1
 178.852539062 688 l 1
 370.852539062 688 l 2
 447.65234375 688 500.512695312 632 478.234375 520 c 0
 455.956054688 408 380.817382812 352 304.017578125 352 c 2
 112.817382812 352 l 1025
EndSplineSet
Fore
SplineSet
208 664 m 2
 361 664 l 2
 394.15968548 664 422.398858709 652.889710575 441.484337943 632.440982825 c 0
 459.356507237 613.575915236 467.842249764 588.129799427 467.842249764 556.949750877 c 0
 467.842249764 544.084888909 466.397653332 530.243893295 463.571724605 515.486265501 c 0
 453.671290792 463.784000033 430.648787956 427.788467388 400.461145877 404.845859407 c 0
 376.579288139 386.934466105 347.364762459 376 314 376 c 2
 160 376 l 2
 144.248761677 376 133.815981158 391.456374117 136.466063783 404.706787243 c 2
 184.466063783 644.706787243 l 2
 186.832591196 656.539424306 198.387422852 664 208 664 c 2
227.675293665 616 m 1
 189.275293665 424 l 1
 314 424 l 2
 336.635237541 424 355.420711861 431.065533895 371.538854123 443.154140593 c 0
 391.351212044 458.211532612 408.328709208 482.215999967 416.428275395 524.513734499 c 0
 418.914790402 537.498868425 419.990996709 548.409347399 419.990996709 557.628541372 c 0
 419.990996709 579.275687962 414.05749675 591.598191667 406.515662057 599.559017175 c 0
 397.601141291 609.110289425 383.84031452 616 361 616 c 2
 227.675293665 616 l 1
188 712 m 2
 183.374975129 712 167.819795855 703.283145482 163.505478358 683.14966383 c 2
 36.5547742821 43.398084236 l 2
 36.1809214277 41.4540493934 35.9662792714 39.3451776152 35.9346758894 37.5606399767 c 0
 35.7002713894 24.3245992109 41.4238247798 24 42 24 c 0
 47.0854462044 24 62.9136708734 34.2378305726 66.4469288503 52.6107720526 c 2
 117.462534148 308.689104525 l 2
 119.819961767 320.522466695 131.362186237 328 141 328 c 2
 294 328 l 2
 329.936328593 328 367.670209345 339.307269412 401.453650556 365.089369284 c 0
 442.477197852 396.302937879 478.477014883 448.825076562 493.454950187 524.650874037 c 0
 497.490463956 545.080662492 499.300901882 563.580296778 499.300901882 580.248804639 c 0
 499.300901882 625.670131556 485.857480083 657.494414055 467.360565617 677.725414253 c 0
 445.806584067 700.875987028 415.959920728 712 380 712 c 2
 188 712 l 2
188 760 m 2
 380 760 l 2
 426.040079272 760 470.193415933 745.124012972 502.639434383 710.274585747 c 0
 530.997242885 679.258232698 547.252888857 635.184928676 547.252888857 580.066092843 c 0
 547.252888857 559.934568579 545.084398588 538.329579139 540.545049813 515.349125963 c 0
 523.521910342 429.169482389 481.536811482 365.707721397 430.53252398 326.900111341 c 0
 388.344178974 294.703742785 340.057488123 280 294 280 c 2
 160.690373395 280 l 1
 113.55307115 43.3892279474 l 2
 107.086329127 9.76216942741 78.9145537956 -24 42 -24 c 0
 6.59191093803 -24 -12.0684993367 7.96836815762 -12.0684993367 37.2000806659 c 0
 -12.0684993367 42.5330926493 -11.5817126534 47.261836233 -10.5547742821 52.601915764 c 2
 116.494521642 692.85033617 l 2
 124.180204145 728.716854518 152.625024871 760 188 760 c 2
EndSplineSet
EndChar

